<svg width="141" height="40" viewBox="0 0 141 40" fill="none" xmlns="http://www.w3.org/2000/svg">
<g clip-path="url(#clip0_309_12607)">
<path d="M98.1395 0H140.629V40H98.1395V0ZM131.984 12.9138C131.984 11.2996 131.956 9.71272 131.984 8.15321C132.005 8.00506 131.968 7.85445 131.882 7.73234C131.795 7.61022 131.665 7.52586 131.518 7.49658C130.315 7.08618 129.111 6.59371 127.88 6.23803C123.174 4.87004 118.495 4.81532 113.899 6.62107C107.743 9.02873 103.94 14.9932 104.651 21.4774C105.226 26.7579 107.934 30.8071 112.777 32.9959C119.207 35.9234 125.663 35.3215 131.956 32.2845C132.041 32.2188 132.112 32.1363 132.163 32.0421C132.215 31.948 132.247 31.8443 132.257 31.7373C132.285 30.1778 132.285 28.6183 132.257 27.0588C132.257 26.9494 132.23 26.8399 132.23 26.7852C130.752 27.4966 129.302 28.2627 127.825 28.8919C124.186 30.4241 120.438 30.6977 116.635 29.4391C108.974 26.8947 108.016 17.4829 112.886 12.8317C115.185 10.643 118.057 9.7948 121.176 9.76744C123.83 9.74008 126.32 10.4514 128.755 11.4364C129.822 11.8468 130.862 12.394 131.984 12.9138Z" fill="black"/>
<path d="M91.5732 40H49.1108V0H91.5732V40ZM60.2463 34.3912H60.9576C64.4323 34.3912 67.907 34.446 71.3817 34.3639C72.7406 34.3359 74.0912 34.1429 75.4036 33.7893C77.4009 33.2695 79.1792 32.2572 80.3284 30.4788C82.5719 27.0315 81.7784 21.5595 76.6074 19.5075C76.197 19.3434 75.7593 19.2066 75.2942 19.0424C75.3704 18.9922 75.4435 18.9374 75.513 18.8782C80.1642 16.2791 79.5896 10.342 76.3885 7.77018C74.5281 6.26539 72.3393 5.63611 69.9864 5.5814C66.9221 5.52668 63.8578 5.55404 60.8208 5.55404C60.6293 5.55404 60.4378 5.5814 60.2463 5.5814V34.3912Z" fill="black"/>
<path d="M0 0H42.4897V40H0V0ZM26.2107 19.0698C26.2837 19.0025 26.3668 18.9471 26.4569 18.9056C31.0807 16.3338 30.5062 10.4241 27.3871 7.85226C25.4993 6.29275 23.2832 5.66347 20.9029 5.60876C17.8386 5.55404 14.7743 5.5814 11.7373 5.5814C11.5732 5.5814 11.3817 5.60876 11.1902 5.60876V34.3912H22.6265C24.3351 34.3951 26.0276 34.0604 27.606 33.4063C30.8345 32.0657 32.5034 29.5759 32.4487 26.156C32.4213 23.2285 30.4788 20.6566 27.3871 19.4802C27.0315 19.3434 26.6484 19.2339 26.2107 19.0698Z" fill="black"/>
<path d="M65.3899 29.9044V22.1068C65.5438 22.0841 65.6995 22.0749 65.855 22.0795H71.1628C72.1959 22.0486 73.2205 22.2742 74.145 22.7361C75.3762 23.3654 76.1149 24.3503 76.1696 25.773C76.227 26.4551 76.0809 27.1388 75.7498 27.7378C75.4186 28.3368 74.9173 28.8242 74.3092 29.1383C73.3704 29.6554 72.3167 29.9282 71.2449 29.9317C69.4118 29.9591 67.5513 29.9317 65.7182 29.9317C65.6082 29.9499 65.4954 29.9405 65.3899 29.9044Z" fill="black"/>
<path d="M65.3899 17.4554V10.0957C66.4296 10.0957 67.4692 10.0683 68.4815 10.0957C69.2798 10.1006 70.0761 10.1739 70.8618 10.3145C72.4214 10.6429 73.4337 11.7372 73.5978 13.1052C73.7145 13.8447 73.5916 14.6021 73.247 15.2666C72.9024 15.9312 72.3542 16.4681 71.6826 16.7988C71.0845 17.1382 70.4236 17.3523 69.7401 17.4281C68.29 17.5102 66.8673 17.4554 65.3899 17.4554Z" fill="black"/>
<path d="M16.3064 29.9042V22.1614C16.3611 22.134 16.3611 22.1067 16.3885 22.1067C18.7961 22.134 21.2312 22.134 23.6388 22.2708C24.2407 22.2982 24.8974 22.6265 25.4446 22.9548C25.9688 23.2755 26.401 23.7264 26.699 24.2638C26.9971 24.8011 27.1509 25.4065 27.1453 26.021C27.1398 26.6354 26.9752 27.238 26.6676 27.7699C26.3599 28.3018 25.9197 28.7449 25.3898 29.0561C24.4394 29.6269 23.3521 29.9294 22.2435 29.9316C20.3556 29.9589 18.4678 29.9316 16.6074 29.9316C16.5063 29.9478 16.4028 29.9384 16.3064 29.9042Z" fill="black"/>
<path d="M16.3064 17.4555V10.1504C16.3611 10.1231 16.3885 10.0957 16.4158 10.0957C18.0301 10.1231 19.6717 10.041 21.2859 10.2051C23.5294 10.4514 24.7332 12.0382 24.487 14.1176C24.4384 14.6599 24.252 15.1809 23.9456 15.631C23.6391 16.0811 23.2227 16.4454 22.7359 16.6894C22.0424 17.0773 21.2807 17.3281 20.4924 17.4281C19.1245 17.5649 17.7565 17.4555 16.3064 17.4555Z" fill="black"/>
</g>
<defs>
<clipPath id="clip0_309_12607">
<rect width="140.629" height="40" fill="white"/>
</clipPath>
</defs>
</svg>
