<svg width="256" height="120" viewBox="0 0 256 120" fill="none" xmlns="http://www.w3.org/2000/svg">
<rect width="256" height="120" fill="white"/>
<g clip-path="url(#clip0_309_12675)">
<path d="M110.386 50.3435C111.153 50.3435 114.53 50.1135 118.597 53.1809C118.683 53.2564 118.738 53.3603 118.752 53.4732C118.766 53.5861 118.738 53.7003 118.674 53.7944L116.756 56.5552C116.724 56.6053 116.682 56.6479 116.632 56.6797C116.582 56.7116 116.526 56.7319 116.467 56.7393C116.408 56.7466 116.348 56.7408 116.292 56.7222C116.236 56.7036 116.184 56.6728 116.142 56.6319C115.607 56.2318 115.042 55.8729 114.453 55.5582C113.223 54.8998 111.857 54.5325 110.462 54.4846C109.158 54.4846 107.009 54.9447 107.009 57.0153C107.009 58.7024 108.467 59.3159 113.072 60.4662C116.065 61.2331 119.518 62.6901 119.518 67.2147C119.518 71.4325 116.065 74.0398 111.23 74.0398C108.313 74.0398 104.323 72.9662 101.79 70.4355C101.753 70.4011 101.724 70.3595 101.704 70.3134C101.684 70.2672 101.674 70.2174 101.674 70.1671C101.674 70.1168 101.684 70.0671 101.704 70.0209C101.724 69.9747 101.753 69.9332 101.79 69.8987L104.016 67.2914C104.053 67.2463 104.1 67.2101 104.153 67.1852C104.206 67.1603 104.264 67.1474 104.323 67.1474C104.381 67.1474 104.439 67.1603 104.492 67.1852C104.545 67.2101 104.592 67.2463 104.63 67.2914C106.424 68.9778 108.768 69.9584 111.23 70.0521C115.221 70.0521 115.067 67.6748 115.067 67.2914C115.067 66.5245 114.53 65.4509 112.534 64.9141C110.539 64.3773 105.704 63.457 103.862 61.3098C102.954 60.2145 102.489 58.8194 102.557 57.3987C102.481 54.7147 104.092 50.3435 110.386 50.3435Z" fill="black"/>
<path d="M130.877 55.7883C129.833 55.7973 128.804 56.0355 127.862 56.4861C126.92 56.9366 126.089 57.5886 125.428 58.3957V56.6319C125.43 56.5709 125.42 56.5101 125.397 56.4533C125.375 56.3965 125.341 56.3449 125.298 56.3018C125.255 56.2586 125.203 56.2248 125.146 56.2024C125.089 56.1801 125.028 56.1696 124.967 56.1718H121.36C121.299 56.1696 121.238 56.1801 121.182 56.2024C121.125 56.2248 121.073 56.2586 121.03 56.3018C120.987 56.3449 120.953 56.3965 120.93 56.4533C120.908 56.5101 120.898 56.5709 120.9 56.6319V78.411C120.898 78.472 120.908 78.5328 120.93 78.5896C120.953 78.6464 120.987 78.698 121.03 78.7412C121.073 78.7843 121.125 78.8181 121.182 78.8405C121.238 78.8629 121.299 78.8733 121.36 78.8712H124.967C125.028 78.8733 125.089 78.8629 125.146 78.8405C125.203 78.8181 125.255 78.7843 125.298 78.7412C125.341 78.698 125.375 78.6464 125.397 78.5896C125.42 78.5328 125.43 78.472 125.428 78.411V71.6626C126.126 72.45 126.991 73.0719 127.961 73.4831C128.93 73.8944 129.978 74.0846 131.03 74.0399C134.1 74.0399 139.012 71.5859 139.012 65.0675C139.012 58.5491 134.407 55.7883 130.877 55.7883ZM129.879 70.0521C127.423 70.0521 125.351 67.9049 125.351 64.8374C125.351 62.9969 126.502 59.6994 129.879 59.6994C133.256 59.6994 134.484 62.3834 134.484 64.8374C134.484 67.2914 133.102 70.0521 129.879 70.0521Z" fill="black"/>
<path d="M149.449 55.7882C148.244 55.7812 147.05 56.0118 145.934 56.467C144.819 56.9222 143.804 57.5929 142.949 58.4407C142.093 59.2885 141.413 60.2967 140.949 61.4076C140.484 62.5184 140.243 63.71 140.24 64.914C140.235 66.1232 140.474 67.3209 140.942 68.436C141.41 69.5511 142.098 70.5608 142.964 71.405C143.83 72.2492 144.858 72.9107 145.985 73.3501C147.112 73.7896 148.317 73.9981 149.526 73.9631C150.72 73.9581 151.902 73.718 153.004 73.2567C154.105 72.7953 155.105 72.1217 155.946 71.2743C156.787 70.4269 157.452 69.4223 157.905 68.3178C158.357 67.2134 158.587 66.0307 158.582 64.8373C158.577 63.6439 158.337 62.4632 157.875 61.3626C157.414 60.262 156.739 59.2631 155.891 58.4228C155.043 57.5825 154.038 56.9173 152.933 56.4653C151.827 56.0133 150.644 55.7832 149.449 55.7882ZM149.526 70.052C148.865 70.0304 148.215 69.8779 147.613 69.6034C147.011 69.3289 146.469 68.9378 146.02 68.4529C145.57 67.9679 145.221 67.3986 144.993 66.778C144.765 66.1574 144.662 65.4978 144.691 64.8373C144.691 61.5398 146.994 59.6993 149.526 59.6993C150.182 59.7161 150.829 59.8627 151.428 60.1307C152.027 60.3987 152.567 60.7826 153.016 61.2605C153.466 61.7383 153.816 62.3004 154.047 62.9143C154.278 63.5283 154.385 64.1819 154.361 64.8373C154.361 68.3649 151.829 70.052 149.526 70.052Z" fill="black"/>
<path d="M170.248 59.6228V56.5553C170.25 56.4943 170.239 56.4335 170.217 56.3767C170.195 56.3199 170.161 56.2683 170.118 56.2252C170.074 56.182 170.023 56.1482 169.966 56.1258C169.909 56.1035 169.848 56.093 169.787 56.0952H165.643V51.8774C165.645 51.8164 165.635 51.7556 165.612 51.6988C165.59 51.642 165.556 51.5904 165.513 51.5473C165.47 51.5041 165.418 51.4703 165.361 51.4479C165.304 51.4256 165.243 51.4151 165.182 51.4173H161.652C161.591 51.4151 161.53 51.4256 161.473 51.4479C161.417 51.4703 161.365 51.5041 161.322 51.5473C161.279 51.5904 161.245 51.642 161.222 51.6988C161.2 51.7556 161.189 51.8164 161.192 51.8774V56.0952H159.426C159.365 56.093 159.305 56.1035 159.248 56.1258C159.191 56.1482 159.139 56.182 159.096 56.2252C159.053 56.2683 159.019 56.3199 158.997 56.3767C158.974 56.4335 158.964 56.4943 158.966 56.5553V59.6228C158.964 59.6838 158.974 59.7446 158.997 59.8014C159.019 59.8582 159.053 59.9097 159.096 59.9529C159.139 59.9961 159.191 60.0299 159.248 60.0523C159.305 60.0746 159.365 60.0851 159.426 60.0829H161.192V68.8252C161.192 70.8191 162.113 73.8866 166.027 73.8866C167.383 73.8679 168.719 73.5539 169.941 72.9663C170.011 72.9304 170.07 72.8754 170.111 72.8076C170.152 72.7398 170.172 72.662 170.171 72.5829V69.5921C170.175 69.528 170.16 69.464 170.13 69.4075C170.099 69.351 170.053 69.3042 169.998 69.2723C169.942 69.2404 169.878 69.2247 169.814 69.227C169.749 69.2293 169.687 69.2495 169.634 69.2854C169.031 69.7154 168.301 69.9314 167.562 69.8989C165.72 69.8989 165.566 68.5952 165.566 67.7516V60.0829H169.71C169.842 60.0895 169.971 60.0455 170.071 59.9599C170.171 59.8743 170.234 59.7536 170.248 59.6228Z" fill="black"/>
<path d="M174.239 54.0246C175.764 54.0246 177.001 52.7886 177.001 51.2639C177.001 49.7392 175.764 48.5032 174.239 48.5032C172.713 48.5032 171.476 49.7392 171.476 51.2639C171.476 52.7886 172.713 54.0246 174.239 54.0246Z" fill="black"/>
<path d="M175.39 73.5799H173.164C173.022 73.583 172.881 73.5574 172.749 73.5045C172.617 73.4517 172.498 73.3727 172.397 73.2724C172.297 73.1721 172.218 73.0525 172.165 72.9208C172.112 72.7891 172.086 72.6481 172.09 72.5062V57.2455C172.086 57.1037 172.112 56.9626 172.165 56.831C172.218 56.6993 172.297 56.5797 172.397 56.4793C172.498 56.379 172.617 56.3001 172.749 56.2472C172.881 56.1944 173.022 56.1687 173.164 56.1719H175.39C175.532 56.1687 175.673 56.1944 175.805 56.2472C175.936 56.3001 176.056 56.379 176.156 56.4793C176.257 56.5797 176.336 56.6993 176.389 56.831C176.442 56.9626 176.467 57.1037 176.464 57.2455V72.5062C176.467 72.6481 176.442 72.7891 176.389 72.9208C176.336 73.0525 176.257 73.1721 176.156 73.2724C176.056 73.3727 175.936 73.4517 175.805 73.5045C175.673 73.5574 175.532 73.583 175.39 73.5799Z" fill="black"/>
<path d="M180.378 60.0828H178.69C178.629 60.085 178.568 60.0745 178.511 60.0522C178.454 60.0298 178.403 59.996 178.359 59.9528C178.316 59.9097 178.282 59.8581 178.26 59.8013C178.238 59.7445 178.227 59.6837 178.229 59.6227V56.5552C178.227 56.4942 178.238 56.4334 178.26 56.3766C178.282 56.3198 178.316 56.2683 178.359 56.2251C178.403 56.1819 178.454 56.1481 178.511 56.1258C178.568 56.1034 178.629 56.093 178.69 56.0951H180.378V54.9448C180.378 54.1779 180.532 49.5 185.75 49.5C188.36 49.5 189.204 50.1135 189.204 50.1135V53.2577C189.204 53.5644 189.127 53.8712 188.744 53.7178C188.053 53.4743 187.327 53.3448 186.595 53.3344C186.338 53.3161 186.08 53.3532 185.839 53.4431C185.598 53.533 185.379 53.6736 185.197 53.8554C185.016 54.0372 184.875 54.256 184.785 54.4968C184.695 54.7377 184.658 54.9951 184.676 55.2515V56.0951H191.123C191.212 56.0947 191.299 56.125 191.369 56.1808C191.439 56.2366 191.487 56.3146 191.506 56.4018L196.034 68.135L200.102 56.4785C200.135 56.3991 200.187 56.3292 200.254 56.2755C200.321 56.2219 200.401 56.1862 200.486 56.1718H204.477C204.521 56.1738 204.564 56.1867 204.602 56.2094C204.64 56.2321 204.672 56.2639 204.695 56.3018C204.717 56.3398 204.73 56.3828 204.733 56.427C204.735 56.4712 204.726 56.5152 204.707 56.5552C203.786 58.9325 198.49 72.6595 197.8 74.3466C197.032 76.2638 195.804 78.8712 192.12 78.8712C190.689 78.9128 189.277 78.54 188.053 77.7976C187.974 77.7357 187.916 77.6504 187.889 77.554C187.861 77.4576 187.865 77.355 187.899 77.2607L189.204 74.5C189.215 74.4708 189.233 74.4447 189.256 74.424C189.279 74.4032 189.307 74.3884 189.337 74.3809C189.368 74.3733 189.399 74.3732 189.429 74.3806C189.46 74.388 189.488 74.4027 189.511 74.4233C190.179 74.8464 190.947 75.0846 191.737 75.1135C193.195 75.1135 193.809 73.4264 193.809 73.4264L188.283 60.1595H184.599V73.273C184.601 73.334 184.591 73.3948 184.569 73.4516C184.546 73.5084 184.512 73.56 184.469 73.6031C184.426 73.6463 184.374 73.6801 184.317 73.7025C184.261 73.7248 184.2 73.7353 184.139 73.7331H180.532C180.471 73.7353 180.41 73.7248 180.353 73.7025C180.296 73.6801 180.244 73.6463 180.201 73.6031C180.158 73.56 180.124 73.5084 180.102 73.4516C180.079 73.3948 180.069 73.334 180.071 73.273L180.378 60.0828Z" fill="black"/>
<path d="M207.086 57.3222H208.391C208.546 57.3006 208.704 57.3172 208.851 57.3707C208.998 57.4242 209.13 57.5128 209.235 57.6289C209.317 57.7228 209.38 57.8322 209.42 57.9507C209.459 58.0693 209.475 58.1945 209.465 58.3191C209.475 58.518 209.421 58.7149 209.31 58.8806C209.2 59.0463 209.039 59.1721 208.851 59.2393L209.542 60.2363H208.774L208.16 59.316H207.7V60.2363H207.086V57.3222ZM208.391 58.7792C208.698 58.7792 208.851 58.6258 208.851 58.3958C208.851 58.089 208.698 58.0123 208.314 58.0123H207.7V58.8559H208.391V58.7792Z" fill="black"/>
<path d="M208.237 61.6167C207.691 61.6167 207.157 61.4548 206.702 61.1514C206.248 60.8481 205.894 60.4169 205.685 59.9124C205.475 59.408 205.421 58.8529 205.527 58.3174C205.634 57.7818 205.897 57.2899 206.283 56.9038C206.67 56.5177 207.162 56.2548 207.698 56.1483C208.234 56.0417 208.79 56.0964 209.294 56.3054C209.799 56.5143 210.231 56.8682 210.534 57.3222C210.838 57.7762 211 58.3099 211 58.856C210.99 59.5851 210.696 60.2815 210.18 60.7971C209.664 61.3127 208.967 61.6068 208.237 61.6167ZM208.237 56.402C207.586 56.402 206.961 56.6605 206.501 57.1207C206.04 57.5809 205.781 58.2051 205.781 58.856C205.781 59.5068 206.04 60.131 206.501 60.5912C206.961 61.0514 207.586 61.3099 208.237 61.3099C208.561 61.3141 208.882 61.2534 209.182 61.1315C209.482 61.0097 209.754 60.8291 209.983 60.6004C210.212 60.3717 210.392 60.0995 210.514 59.7999C210.636 59.5003 210.697 59.1794 210.693 58.856C210.689 58.2064 210.429 57.5845 209.969 57.1252C209.51 56.6658 208.887 56.406 208.237 56.402Z" fill="black"/>
<path d="M69.0193 37C64.071 37 59.2337 38.4662 55.1193 41.2133C51.0049 43.9603 47.7981 47.8648 45.9045 52.4329C44.0108 57.0011 43.5154 62.0277 44.4808 66.8773C45.4461 71.7268 47.829 76.1814 51.328 79.6777C54.827 83.174 59.285 85.555 64.1383 86.5196C68.9916 87.4843 74.0221 86.9892 78.5938 85.097C83.1655 83.2048 87.0729 80.0005 89.8221 75.8893C92.5713 71.778 94.0386 66.9445 94.0386 62C94.0366 55.3702 91.4 49.0125 86.7084 44.3246C82.0168 39.6366 75.6542 37.002 69.0193 37V37ZM80.4545 73.1196C80.2264 73.481 79.8663 73.7392 79.4507 73.8394C79.0351 73.9397 78.5968 73.874 78.2289 73.6564C68.4053 67.7515 56.6632 71.1258 56.5864 71.2025C56.1692 71.3132 55.7257 71.2646 55.3426 71.0661C54.9594 70.8675 54.664 70.5333 54.5143 70.1288C54.386 69.7119 54.4268 69.2613 54.6277 68.874C54.8287 68.4868 55.1738 68.1938 55.5887 68.0583C56.1259 67.9049 68.7891 64.1472 79.9173 70.819C80.2829 71.0623 80.5419 71.4356 80.6417 71.8631C80.7415 72.2905 80.6746 72.7398 80.4545 73.1196ZM83.6011 66.2178C83.4288 66.5147 83.183 66.7623 82.8874 66.9369C82.5917 67.1114 82.2561 67.2071 81.9127 67.2147C81.5673 67.2118 81.2267 67.1333 80.915 66.9847C68.5588 59.8528 56.0492 63.9939 55.8957 64.0706C55.6529 64.1546 55.3959 64.1897 55.1395 64.1738C54.883 64.1579 54.6323 64.0913 54.4018 63.9778C54.1714 63.8644 53.9657 63.7063 53.7968 63.5129C53.6279 63.3194 53.4991 63.0944 53.4178 62.8509C53.3366 62.6073 53.3045 62.3501 53.3235 62.0941C53.3425 61.838 53.4121 61.5883 53.5284 61.3594C53.6446 61.1305 53.8052 60.9268 54.0008 60.7604C54.1964 60.5939 54.4231 60.4679 54.6677 60.3896C59.3387 59.011 64.2395 58.5857 69.0784 59.139C73.9172 59.6923 78.5952 61.213 82.8336 63.6104C83.2778 63.858 83.6071 64.2698 83.7506 64.7574C83.8941 65.245 83.8404 65.7693 83.6011 66.2178ZM84.9825 59.4693C84.6006 59.486 84.2236 59.3784 83.9081 59.1626C69.6333 51.6472 54.9747 56.1718 54.8212 56.1718C54.5218 56.2757 54.2046 56.3188 53.8882 56.2986C53.5719 56.2783 53.2628 56.195 52.9791 56.0537C52.6954 55.9124 52.4428 55.7159 52.2362 55.4756C52.0296 55.2354 51.8731 54.9564 51.7759 54.6549C51.6787 54.3533 51.6428 54.0355 51.6703 53.7199C51.6978 53.4044 51.7882 53.0975 51.936 52.8173C52.0839 52.5371 52.2863 52.2893 52.5313 52.0883C52.7764 51.8874 53.0592 51.7374 53.3631 51.6472C54.0538 51.4172 70.0938 46.5092 86.1337 54.9448C86.6903 55.2428 87.1071 55.7479 87.2938 56.3507C87.4805 56.9535 87.4222 57.6055 87.1314 58.1656C86.924 58.5562 86.6148 58.8836 86.2366 59.1131C85.8583 59.3425 85.425 59.4656 84.9825 59.4693Z" fill="black"/>
</g>
<defs>
<clipPath id="clip0_309_12675">
<rect width="167" height="50" fill="white" transform="translate(44 37)"/>
</clipPath>
</defs>
</svg>
