<svg width="256" height="120" viewBox="0 0 256 120" fill="none" xmlns="http://www.w3.org/2000/svg">
<rect width="256" height="120" fill="white"/>
<g clip-path="url(#clip0_309_12671)">
<path d="M190.327 75.8472C190.198 74.8062 190.134 73.7581 190.136 72.709V60.5612C190.138 60.1504 190.104 59.7401 190.034 59.3352C189.818 58.2277 189.339 57.1882 188.639 56.3037C187.938 55.4191 187.036 54.7153 186.008 54.2511C185.107 53.8957 184.167 53.6538 183.207 53.5312C181.98 53.364 180.744 53.2813 179.506 53.2838C178.158 53.2825 176.813 53.4144 175.491 53.6774C174.228 53.919 173.015 54.3715 171.903 55.016C171.606 55.1889 171.32 55.3805 171.048 55.5896C170.208 56.328 169.532 57.2338 169.064 58.2488C168.595 59.2638 168.344 60.3657 168.326 61.4836V61.596H174.973C175.02 60.9294 175.152 60.2716 175.367 59.6389C175.544 59.1745 175.826 58.7573 176.191 58.4198C176.556 58.0822 176.994 57.8335 177.47 57.693C178.128 57.504 178.81 57.413 179.495 57.423C180.325 57.4 181.152 57.5454 181.924 57.8505C182.433 58.0697 182.864 58.4366 183.162 58.9037C183.46 59.3707 183.611 59.9165 183.595 60.4702C183.58 61.024 183.398 61.5603 183.074 62.0096C182.75 62.459 182.299 62.8008 181.778 62.9908L181.25 63.1483C180.403 63.354 179.542 63.4968 178.674 63.5757C177.692 63.6732 176.709 63.8006 175.727 63.9581C174.734 64.1147 173.75 64.325 172.78 64.588C172.465 64.678 171.925 64.8804 171.925 64.8804C170.798 65.3282 169.808 66.0614 169.051 67.0081C168.293 67.9547 167.795 69.0821 167.606 70.2795V71.3143C167.604 71.8077 167.642 72.3004 167.718 72.7878C167.954 74.0762 168.541 75.2745 169.414 76.2509C170.288 77.2273 171.413 77.9439 172.667 78.3218C173.632 78.5547 174.622 78.6717 175.614 78.6705C177.111 78.656 178.598 78.4365 180.035 78.0181C181.459 77.6019 182.752 76.8274 183.792 75.7685C183.819 76.1688 183.872 76.567 183.949 76.9608C184.03 77.342 184.135 77.7177 184.264 78.0856H191.013C190.64 77.3898 190.418 76.6233 190.36 75.836L190.327 75.8472ZM183.533 68.7273C183.524 69.2202 183.487 69.7122 183.42 70.2007C183.333 70.8544 183.119 71.4848 182.791 72.0567C182.401 72.706 181.851 73.2444 181.193 73.6201C180.259 74.1091 179.21 74.3383 178.156 74.2838C177.662 74.2775 177.17 74.2323 176.683 74.1488L176.244 74.0363C175.535 73.7784 174.941 73.2759 174.568 72.6191C174.37 72.2721 174.24 71.8903 174.186 71.4943C174.181 71.4156 174.181 71.3367 174.186 71.2581V70.6507C174.186 70.5607 174.276 70.1895 174.276 70.1782C174.41 69.6873 174.661 69.2363 175.008 68.864C175.354 68.4916 175.787 68.2093 176.267 68.0411H176.458C177.526 67.7677 178.607 67.55 179.697 67.3887C180.226 67.31 180.732 67.2425 181.171 67.1525C181.632 67.0657 182.086 66.9492 182.532 66.8039C182.921 66.684 183.281 66.4849 183.589 66.219L183.533 68.7273ZM131.061 75.8472C130.932 74.8062 130.868 73.7581 130.87 72.709V60.5612C130.872 60.1504 130.838 59.7401 130.769 59.3352C130.552 58.2277 130.074 57.1882 129.373 56.3037C128.673 55.4191 127.77 54.7153 126.742 54.2511C125.843 53.884 124.902 53.6308 123.941 53.4975C122.715 53.3303 121.478 53.2476 120.241 53.25C118.892 53.2486 117.547 53.3805 116.225 53.6437C114.962 53.8859 113.75 54.3384 112.637 54.9822C112.34 55.1555 112.055 55.3471 111.782 55.5559H111.703C110.864 56.2943 110.188 57.2001 109.719 58.2151C109.25 59.2301 108.999 60.3319 108.981 61.4498V61.5623H115.629C115.675 60.8956 115.807 60.2377 116.023 59.6051C116.2 59.1408 116.482 58.7235 116.846 58.386C117.211 58.0485 117.649 57.7998 118.126 57.6592C118.784 57.4702 119.466 57.3792 120.151 57.3893C120.977 57.3672 121.8 57.5126 122.569 57.8167C123.078 58.0359 123.509 58.4028 123.807 58.8699C124.105 59.337 124.255 59.8827 124.24 60.4365C124.224 60.9902 124.042 61.5265 123.718 61.9759C123.394 62.4253 122.943 62.7671 122.423 62.957L121.894 63.1145C121.047 63.3202 120.186 63.4631 119.318 63.5419C118.336 63.6394 117.354 63.7669 116.371 63.9244C115.378 64.0813 114.395 64.2916 113.424 64.5543C113.109 64.6442 112.569 64.8467 112.569 64.8467C111.442 65.2935 110.451 66.0265 109.694 66.9733C108.936 67.9201 108.439 69.048 108.25 70.2457V71.2806C108.245 71.7736 108.279 72.2663 108.351 72.754C108.597 74.0561 109.2 75.2638 110.095 76.2415C110.989 77.2191 112.138 77.9279 113.413 78.288C114.376 78.5399 115.365 78.6758 116.36 78.693C117.856 78.6785 119.344 78.459 120.78 78.0406C122.2 77.6227 123.49 76.8482 124.526 75.791C124.554 76.1913 124.607 76.5894 124.683 76.9833C124.765 77.3643 124.87 77.74 124.998 78.1081H131.747C131.374 77.4123 131.152 76.6458 131.095 75.8585L131.061 75.8472ZM124.234 68.7498C124.225 69.2427 124.187 69.7347 124.121 70.2232C124.035 70.8773 123.821 71.5079 123.491 72.0792C123.097 72.7355 122.539 73.2781 121.871 73.6539C120.933 74.1449 119.881 74.3741 118.823 74.3175C118.329 74.3113 117.837 74.2662 117.35 74.1825C117.194 74.1559 117.04 74.1183 116.889 74.0701C116.192 73.8178 115.606 73.3279 115.235 72.6866C115.036 72.34 114.906 71.9579 114.853 71.5618C114.848 71.4831 114.848 71.4042 114.853 71.3255V70.7182C114.853 70.6282 114.943 70.257 114.943 70.2457C115.077 69.7581 115.327 69.3101 115.672 68.94C116.016 68.5698 116.445 68.2885 116.922 68.1199H117.114C118.181 67.8465 119.263 67.6287 120.353 67.4675C120.882 67.3887 121.399 67.3213 121.826 67.2313C122.287 67.1444 122.742 67.0279 123.187 66.8826C123.573 66.7613 123.929 66.5622 124.234 66.2977V68.7498ZM229.02 57.8954C228.633 56.8623 228.004 55.9367 227.186 55.1959C226.37 54.5023 225.409 53.9989 224.374 53.7224C223.201 53.4084 221.989 53.2607 220.775 53.2838C219.212 53.2391 217.671 53.6663 216.355 54.5098C215.195 55.2422 214.193 56.1981 213.408 57.3218C212.856 55.9416 211.804 54.8207 210.461 54.1836C209.149 53.5807 207.72 53.2771 206.276 53.295C204.797 53.2682 203.336 53.6247 202.036 54.3298C200.894 54.9633 199.898 55.8293 199.111 56.8719V53.9024H192.655V78.0968H199.303V64.0368C199.256 63.0284 199.433 62.0221 199.82 61.0899C200.101 60.445 200.524 59.872 201.057 59.4139C201.489 59.0495 201.99 58.7777 202.531 58.6153L202.992 58.5028C203.209 58.4868 203.427 58.4868 203.644 58.5028C204.658 58.4949 205.64 58.8593 206.403 59.5269C207.166 60.1945 207.657 61.1188 207.784 62.1247V78.0743H214.431V64.5767C214.428 63.824 214.48 63.072 214.589 62.3272C214.653 61.8727 214.77 61.4272 214.937 60.9999C215.285 60.1838 215.886 59.501 216.651 59.052C217.416 58.6031 218.305 58.4118 219.187 58.5063C220.068 58.6008 220.897 58.9761 221.549 59.5769C222.202 60.1777 222.644 60.9723 222.811 61.8435V62.0797C222.871 62.8296 222.901 63.5794 222.901 64.3293V78.0518H229.549V61.9335C229.58 60.5652 229.355 59.2032 228.885 57.9179L229.02 57.8954ZM155.773 59.1665C155.548 58.0315 155.076 56.96 154.389 56.0283C153.684 55.1272 152.753 54.4287 151.69 54.0036C150.28 53.4698 148.776 53.225 147.269 53.2838C146.303 53.2868 145.342 53.4425 144.424 53.7449C142.832 54.2856 141.427 55.2688 140.374 56.5794L140.059 57.0181V53.8687H133.491V78.1081H140.138V65.4091C139.986 63.5515 140.414 61.6925 141.364 60.0888C141.462 59.966 141.567 59.8495 141.679 59.7401C142.219 59.1169 142.919 58.6539 143.704 58.4016C144.809 58.0604 146.004 58.1661 147.033 58.696C148.061 59.226 148.841 60.1379 149.204 61.2361C149.481 62.2777 149.609 63.3531 149.587 64.4305V78.1081H156.234V63.2045C156.231 61.8511 156.088 60.5015 155.807 59.1777L155.773 59.1665ZM105.888 65.7128C105.354 64.7456 104.613 63.9083 103.717 63.2607C102.781 62.6186 101.754 62.1218 100.669 61.7872C99.5428 61.403 98.3978 61.0764 97.2384 60.8087L93.6953 60.0663C92.6417 59.8304 91.6076 59.5145 90.6021 59.1215L90.1859 58.964L89.8484 58.8178L89.2186 58.4803C88.7937 58.1921 88.4548 57.7943 88.2377 57.3291C88.0206 56.8639 87.9333 56.3487 87.9852 55.8379C88.0371 55.3272 88.2262 54.84 88.5324 54.428C88.8386 54.0159 89.2506 53.6944 89.7247 53.4975C90.2495 53.3152 90.7926 53.1907 91.3444 53.1263C91.8817 53.0572 92.4225 53.0196 92.9641 53.0138C94.2863 52.9898 95.597 53.2627 96.7997 53.8124C97.3844 54.1192 97.885 54.5646 98.2576 55.1098C98.6302 55.6549 98.8634 56.2831 98.9368 56.9394H105.686C105.548 55.4611 105.075 54.0338 104.302 52.7664C103.587 51.6376 102.636 50.6781 101.513 49.9544C100.364 49.2208 99.0965 48.6918 97.767 48.3909C96.315 48.0461 94.8277 47.8724 93.3353 47.8735C91.9353 47.8793 90.5387 48.011 89.1623 48.2672C87.7666 48.513 86.4211 48.988 85.1805 49.6732C84.0146 50.3105 83.0073 51.2024 82.2336 52.2827C81.4441 53.4689 81.0504 54.8745 81.1088 56.2982C81.0682 57.5821 81.3424 58.8565 81.9074 60.0101C82.3992 60.9886 83.1116 61.8395 83.9882 62.4959C84.8929 63.129 85.8859 63.6255 86.9352 63.9694C88.0822 64.3603 89.25 64.687 90.4333 64.9479C91.6106 65.2104 92.7654 65.4578 93.8977 65.6903C94.9291 65.8878 95.9443 66.1622 96.9347 66.5114C97.7161 66.7783 98.4381 67.1948 99.0606 67.7374C99.6459 68.3062 99.9817 69.0839 99.9944 69.9C100.007 70.716 99.6954 71.5038 99.128 72.0904L99.0606 72.1579C98.6737 72.5013 98.2278 72.7719 97.7445 72.9565C97.0426 73.227 96.3095 73.4084 95.5624 73.4964C94.8723 73.5866 94.1775 73.6354 93.4815 73.6426C91.9331 73.6778 90.4044 73.2889 89.0611 72.5178C88.4082 72.0768 87.8719 71.4842 87.4978 70.7909C87.1236 70.0975 86.9229 69.3238 86.9127 68.536H80.5239C80.5212 70.0963 80.8792 71.6362 81.5699 73.0352C82.2205 74.2915 83.152 75.3807 84.2919 76.2184C85.5247 77.1044 86.9139 77.7493 88.3862 78.1193C90.0733 78.5473 91.8086 78.7553 93.549 78.738C95.0968 78.766 96.643 78.6264 98.1607 78.3218C99.6541 78.0027 101.086 77.4443 102.401 76.6683C103.645 75.9419 104.706 74.9418 105.506 73.7439C106.332 72.421 106.747 70.8825 106.698 69.3234C106.742 68.0582 106.459 66.8031 105.877 65.6791L105.888 65.7128ZM165.412 78.0518H158.754V44.6566H165.401L165.412 78.0518ZM50.8854 70.6957C50.7362 71.9043 50.6836 73.123 50.7279 74.34V82.0111H58.3991C58.7202 81.9801 59.0309 81.8804 59.3101 81.7187C59.6856 81.4993 59.9972 81.1857 60.2142 80.8089C60.4312 80.4321 60.5461 80.0051 60.5474 79.5703V76.4996C60.4988 75.065 60.7359 73.6351 61.2448 72.2929L66.7901 63.2945C67.085 62.861 67.2347 62.345 67.2175 61.821C67.2261 61.4216 67.1123 61.029 66.8913 60.6962C56.7456 46.9287 51.9652 40.3598 51.8415 40.1911V40.0899C51.8258 40.0645 51.8044 40.0432 51.779 40.0275C51.7536 40.0119 51.725 40.0024 51.6953 39.9999C51.659 39.986 51.619 39.986 51.5828 39.9999L51.4253 40.1911L51.3241 40.3486C49.9406 42.7669 51.3241 44.8478 52.3589 46.6699C52.8023 47.5419 53.2903 48.3903 53.8211 49.212C54.7547 50.8654 55.947 52.6876 57.0156 54.521C57.9787 55.7928 58.4965 57.3462 58.489 58.9415C58.4496 60.7761 57.8403 62.5529 56.7456 64.0256C55.4388 65.7458 53.9023 67.2785 52.1789 68.581C51.5272 69.1181 51.0755 69.8591 50.8966 70.6844L50.8854 70.6957ZM47.0498 68.581C45.3265 67.2785 43.7899 65.7458 42.4831 64.0256C41.3845 62.5543 40.7712 60.7773 40.7285 58.9415C40.721 57.3462 41.2388 55.7928 42.2019 54.521C43.3267 52.6876 44.4515 50.8654 45.4639 49.257C45.9363 48.4809 46.4087 47.6485 46.9374 46.7374C47.9272 44.9378 49.3557 42.8344 47.9722 40.4161L47.7472 40.2024V39.9999C47.711 39.986 47.6709 39.986 47.6347 39.9999C47.606 40.0012 47.5779 40.0089 47.5526 40.0226C47.5273 40.0362 47.5054 40.0553 47.4885 40.0786L47.4098 40.1799C47.2748 40.3598 42.5056 46.9287 32.36 60.5725C32.139 60.9053 32.0251 61.2978 32.0338 61.6973H32C31.9843 62.2211 32.1339 62.7366 32.4274 63.1707L37.849 72.1691C38.357 73.5116 38.594 74.9413 38.5464 76.3759V79.4803C38.5496 79.9132 38.6654 80.3379 38.8823 80.7125C39.0992 81.0872 39.4098 81.3991 39.7836 81.6175C40.0628 81.7791 40.3736 81.8789 40.6947 81.9099H48.3659V74.2613C48.4109 73.0442 48.3583 71.8255 48.2084 70.6169C48.0295 69.7916 47.5778 69.0506 46.9261 68.5135L47.0498 68.581ZM49.6481 51.8103C48.2755 51.8103 46.9337 52.2173 45.7925 52.9799C44.6512 53.7425 43.7617 54.8263 43.2364 56.0945C42.7111 57.3626 42.5737 58.758 42.8415 60.1042C43.1092 61.4504 43.7702 62.687 44.7408 63.6576C45.7114 64.6282 46.948 65.2892 48.2942 65.5569C49.6404 65.8247 51.0358 65.6873 52.3039 65.162C53.5721 64.6367 54.656 63.7472 55.4185 62.606C56.1811 61.4647 56.5881 60.1229 56.5881 58.7503C56.5881 56.9097 55.857 55.1445 54.5554 53.843C53.2539 52.5415 51.4887 51.8103 49.6481 51.8103Z" fill="black"/>
</g>
<defs>
<clipPath id="clip0_309_12671">
<rect width="197.582" height="42" fill="white" transform="translate(32 40)"/>
</clipPath>
</defs>
</svg>
