<svg width="256" height="120" viewBox="0 0 256 120" fill="none" xmlns="http://www.w3.org/2000/svg">
<g clip-path="url(#clip0_309_12281)">
<g filter="url(#filter0_d_309_12281)">
<path d="M108.728 79.4275L115.331 40.6741H125.898L119.288 79.4275H108.728ZM157.592 41.6308C154.558 40.5317 151.354 39.9796 148.127 40.0001C137.69 40.0001 130.341 45.2546 130.276 52.785C130.218 58.3512 135.523 61.4822 139.531 63.3159C143.539 65.1495 145.025 66.4251 145.003 68.1211C145.003 70.7158 141.72 71.9044 138.683 71.9044C135.251 72.0092 131.842 71.3145 128.725 69.875L127.362 69.259L125.913 77.9562C128.377 79.0361 132.943 79.9783 137.676 80.0218C148.779 80.0218 155.983 74.8252 156.07 66.7803C156.107 62.3737 153.294 59.018 147.199 56.2494C143.51 54.4592 141.249 53.2633 141.271 51.4442C141.271 49.8352 143.184 48.1102 147.322 48.1102C150.03 48.0384 152.723 48.5321 155.23 49.5598L156.179 50.0091L157.629 41.6091L157.592 41.6308ZM184.677 40.7248H176.516C173.987 40.7248 172.095 41.4496 170.986 43.9356L155.302 79.4492H166.413C166.413 79.4492 168.225 74.673 168.638 73.6511H182.162C182.481 75.0064 183.445 79.4492 183.445 79.4492H193.229L184.677 40.7248ZM171.631 65.7004C172.53 63.4536 175.835 54.8578 175.835 54.8578C175.835 54.8578 176.704 52.611 177.234 51.1615L178.009 54.4954L180.452 65.6859L171.631 65.7004ZM99.8717 40.7248L89.5293 67.1282L88.4276 61.7431C86.4997 55.5536 80.5059 48.8422 73.8018 45.4866L83.2238 79.3768H94.3997L111.062 40.7248H99.8717Z" fill="black"/>
<path d="M79.9406 40.6814H62.9085L62.7708 41.4497C76.0196 44.6894 84.7893 52.4444 88.4276 61.7432L84.724 43.9501C84.0862 41.4931 82.2308 40.7611 79.9333 40.6814" fill="black"/>
</g>
</g>
<defs>
<filter id="filter0_d_309_12281" x="58.7708" y="39.9995" width="138.458" height="48.0222" filterUnits="userSpaceOnUse" color-interpolation-filters="sRGB">
<feFlood flood-opacity="0" result="BackgroundImageFix"/>
<feColorMatrix in="SourceAlpha" type="matrix" values="0 0 0 0 0 0 0 0 0 0 0 0 0 0 0 0 0 0 127 0" result="hardAlpha"/>
<feOffset dy="4"/>
<feGaussianBlur stdDeviation="2"/>
<feComposite in2="hardAlpha" operator="out"/>
<feColorMatrix type="matrix" values="0 0 0 0 0 0 0 0 0 0 0 0 0 0 0 0 0 0 0.25 0"/>
<feBlend mode="normal" in2="BackgroundImageFix" result="effect1_dropShadow_309_12281"/>
<feBlend mode="normal" in="SourceGraphic" in2="effect1_dropShadow_309_12281" result="shape"/>
</filter>
<clipPath id="clip0_309_12281">
<rect width="130.458" height="40" fill="white" transform="translate(62.7708 40)"/>
</clipPath>
</defs>
</svg>
