<svg width="256" height="120" viewBox="0 0 256 120" fill="none" xmlns="http://www.w3.org/2000/svg">
<rect width="256" height="120" fill="white"/>
<g clip-path="url(#clip0_309_12673)">
<path d="M160.14 40H202.629V80H160.14V40ZM193.984 52.9138C193.984 51.2996 193.956 49.7127 193.984 48.1532C194.005 48.0051 193.968 47.8545 193.882 47.7323C193.795 47.6102 193.665 47.5259 193.518 47.4966C192.315 47.0862 191.111 46.5937 189.88 46.238C185.174 44.87 180.495 44.8153 175.899 46.6211C169.743 49.0287 165.94 54.9932 166.651 61.4774C167.226 66.7579 169.934 70.8071 174.777 72.9959C181.207 75.9234 187.663 75.3215 193.956 72.2845C194.041 72.2188 194.112 72.1363 194.163 72.0421C194.215 71.948 194.247 71.8443 194.257 71.7373C194.285 70.1778 194.285 68.6183 194.257 67.0588C194.257 66.9494 194.23 66.8399 194.23 66.7852C192.752 67.4966 191.302 68.2627 189.825 68.8919C186.186 70.4241 182.438 70.6977 178.635 69.4391C170.974 66.8947 170.016 57.4829 174.886 52.8317C177.185 50.643 180.057 49.7948 183.176 49.7674C185.83 49.7401 188.32 50.4514 190.755 51.4364C191.822 51.8468 192.862 52.394 193.984 52.9138Z" fill="black"/>
<path d="M153.573 80H111.111V40H153.573V80ZM122.246 74.3912H122.958C126.432 74.3912 129.907 74.446 133.382 74.3639C134.741 74.3359 136.091 74.1429 137.404 73.7893C139.401 73.2695 141.179 72.2572 142.328 70.4788C144.572 67.0315 143.778 61.5595 138.607 59.5075C138.197 59.3434 137.759 59.2066 137.294 59.0424C137.37 58.9922 137.444 58.9374 137.513 58.8782C142.164 56.2791 141.59 50.342 138.389 47.7702C136.528 46.2654 134.339 45.6361 131.986 45.5814C128.922 45.5267 125.858 45.554 122.821 45.554C122.629 45.554 122.438 45.5814 122.246 45.5814V74.3912Z" fill="black"/>
<path d="M62 40H104.49V80H62V40ZM88.2107 59.0698C88.2837 59.0025 88.3668 58.9471 88.4569 58.9056C93.0807 56.3338 92.5062 50.4241 89.3871 47.8523C87.4993 46.2927 85.2832 45.6635 82.9029 45.6088C79.8386 45.554 76.7743 45.5814 73.7373 45.5814C73.5732 45.5814 73.3817 45.6088 73.1902 45.6088V74.3912H84.6265C86.3351 74.3951 88.0276 74.0604 89.606 73.4063C92.8345 72.0657 94.5034 69.5759 94.4487 66.156C94.4213 63.2285 92.4788 60.6566 89.3871 59.4802C89.0315 59.3434 88.6484 59.2339 88.2107 59.0698Z" fill="black"/>
<path d="M127.39 69.9044V62.1068C127.544 62.0841 127.699 62.0749 127.855 62.0795H133.163C134.196 62.0486 135.22 62.2742 136.145 62.7361C137.376 63.3654 138.115 64.3503 138.17 65.773C138.227 66.4551 138.081 67.1388 137.75 67.7378C137.419 68.3368 136.917 68.8242 136.309 69.1383C135.37 69.6554 134.317 69.9282 133.245 69.9317C131.412 69.9591 129.551 69.9317 127.718 69.9317C127.608 69.9499 127.495 69.9405 127.39 69.9044Z" fill="black"/>
<path d="M127.39 57.4554V50.0957C128.43 50.0957 129.469 50.0683 130.482 50.0957C131.28 50.1006 132.076 50.1739 132.862 50.3145C134.421 50.6429 135.434 51.7372 135.598 53.1052C135.715 53.8447 135.592 54.6021 135.247 55.2666C134.902 55.9312 134.354 56.4681 133.683 56.7988C133.085 57.1382 132.424 57.3523 131.74 57.4281C130.29 57.5102 128.867 57.4554 127.39 57.4554Z" fill="black"/>
<path d="M78.3064 69.9042V62.1614C78.3611 62.134 78.3611 62.1067 78.3885 62.1067C80.7961 62.134 83.2312 62.134 85.6388 62.2708C86.2407 62.2982 86.8974 62.6265 87.4446 62.9548C87.9688 63.2755 88.401 63.7264 88.699 64.2638C88.9971 64.8011 89.1509 65.4065 89.1453 66.021C89.1398 66.6354 88.9752 67.238 88.6676 67.7699C88.3599 68.3018 87.9197 68.7449 87.3898 69.0561C86.4394 69.6269 85.3521 69.9294 84.2435 69.9316C82.3556 69.9589 80.4678 69.9316 78.6074 69.9316C78.5063 69.9478 78.4028 69.9384 78.3064 69.9042Z" fill="black"/>
<path d="M78.3064 57.4555V50.1504C78.3611 50.1231 78.3885 50.0957 78.4158 50.0957C80.0301 50.1231 81.6717 50.041 83.2859 50.2051C85.5294 50.4514 86.7332 52.0382 86.487 54.1176C86.4384 54.6599 86.252 55.1809 85.9456 55.631C85.6391 56.0811 85.2227 56.4454 84.7359 56.6894C84.0424 57.0773 83.2807 57.3281 82.4924 57.4281C81.1245 57.5649 79.7565 57.4555 78.3064 57.4555Z" fill="black"/>
</g>
<defs>
<clipPath id="clip0_309_12673">
<rect width="140.629" height="40" fill="white" transform="translate(62 40)"/>
</clipPath>
</defs>
</svg>
