<svg width="256" height="120" viewBox="0 0 256 120" fill="none" xmlns="http://www.w3.org/2000/svg">
<rect width="256" height="120" fill="white"/>
<g clip-path="url(#clip0_309_12663)">
<path d="M38 41H57.0264V60.0264H38V41Z" fill="black"/>
<path d="M58.969 41H77.9954V60.0264H58.9713V41H58.969Z" fill="black"/>
<path d="M209.575 48.2496C211.329 47.1068 213.595 47.0017 215.572 47.5457C215.589 48.7204 215.572 49.8962 215.58 51.0721C214.64 50.6584 213.535 50.3865 212.547 50.7944C212.172 50.9693 211.849 51.2379 211.609 51.5742C211.369 51.9105 211.22 52.3032 211.176 52.7142C211.089 53.7402 211.063 54.7705 211.099 55.7996H217.119C217.134 54.4969 217.103 53.193 217.136 51.8903C218.501 51.5018 219.85 51.0664 221.208 50.6573C221.219 52.3714 221.192 54.0912 221.223 55.8087C222.579 55.7893 223.936 55.8087 225.294 55.7996V59.1409C223.932 59.0849 222.569 59.126 221.207 59.1215V64.8854C221.228 65.9493 221.149 67.0189 221.274 68.0793C221.349 68.7044 221.577 69.3969 222.163 69.7203C223.145 70.2699 224.39 70.0299 225.292 69.4266V72.801C224.102 73.2918 222.812 73.4879 221.53 73.3724C220.323 73.2833 219.073 72.8445 218.286 71.8869C217.372 70.8024 217.143 69.334 217.124 67.9605C217.113 65.0122 217.124 62.064 217.124 59.1146H211.101V72.9953H206.988V59.1192C206.033 59.1009 205.078 59.1192 204.124 59.1043C204.124 58.0062 204.132 56.9069 204.124 55.8076C205.073 55.7859 206.024 55.795 206.981 55.8076C207.05 54.3472 206.828 52.8445 207.264 51.4218C207.627 50.1207 208.448 48.9944 209.575 48.2496Z" fill="black"/>
<path d="M89.9369 48.9991H95.9214C97.784 53.7285 99.6505 58.4567 101.521 63.1838C101.997 64.3665 102.443 65.563 102.942 66.7365C105.342 60.8264 107.769 54.931 110.147 49.0128C112.066 48.982 113.986 49.006 115.905 49.0014C115.901 57.0005 115.901 64.9996 115.905 72.9987C114.52 72.9987 113.137 73.0101 111.753 72.9907C111.768 67.0885 111.753 61.1863 111.76 55.2784C111.76 55.0133 111.753 54.7482 111.734 54.4785C111.654 54.6013 111.581 54.7296 111.518 54.8625C109.14 60.9041 106.719 66.9285 104.352 72.9758C103.367 73.0113 102.381 72.9758 101.395 72.9941C98.9416 66.9525 96.519 60.8972 94.0816 54.851C94.0176 54.7253 93.949 54.6031 93.8748 54.4854C93.8245 57.0714 93.8668 59.6596 93.8531 62.2456V72.9872H89.9358V48.99L89.9369 48.9991Z" fill="black"/>
<path d="M132.797 55.7811C134.797 55.2237 136.913 55.2301 138.91 55.7994C139.32 55.9111 139.715 56.0755 140.083 56.2885C140.06 57.5992 140.083 58.9167 140.071 60.2229C138.744 59.2093 137.061 58.5671 135.374 58.7796C134.704 58.8405 134.053 59.0407 133.465 59.3676C132.876 59.6944 132.362 60.1407 131.956 60.6777C130.928 62.0193 130.689 63.8008 130.866 65.4417C130.9 66.1139 131.073 66.7717 131.374 67.3734C131.676 67.975 132.099 68.5073 132.618 68.9364C133.136 69.3654 133.738 69.6819 134.386 69.8656C135.033 70.0493 135.712 70.0963 136.378 70.0035C137.721 69.8322 138.995 69.309 140.071 68.4871C140.082 69.7292 140.065 70.9714 140.08 72.2135C138.398 73.2145 136.381 73.4705 134.455 73.378C132.458 73.2992 130.556 72.506 129.095 71.1428C127.567 69.6073 126.678 67.5504 126.605 65.3857C126.504 63.1677 126.956 60.8536 128.232 59.0013C129.334 57.4296 130.948 56.2897 132.797 55.7765V55.7811Z" fill="black"/>
<path d="M177.746 55.5194C179.664 55.2053 181.63 55.4101 183.442 56.1125V59.8949C182.175 59.0227 180.664 58.5757 179.127 58.6185C178.358 58.6482 177.512 58.9739 177.161 59.7053C177.012 60.0724 176.989 60.479 177.097 60.8603C177.205 61.2417 177.438 61.576 177.758 61.8102C178.924 62.5906 180.316 62.922 181.529 63.6214C182.481 64.1562 183.404 64.8555 183.886 65.8634C184.792 67.7512 184.408 70.2458 182.815 71.6536C181.294 73.0752 179.104 73.4683 177.089 73.3928C175.649 73.3219 174.233 72.9969 172.906 72.4329C172.906 71.1062 172.898 69.7807 172.913 68.4551C174.018 69.27 175.295 69.8211 176.646 70.0664C177.597 70.2689 178.587 70.178 179.486 69.8058C180.324 69.3887 180.475 68.1969 179.977 67.4678C179.471 66.9491 178.858 66.5477 178.181 66.2919C176.956 65.7446 175.685 65.2875 174.62 64.4739C173.859 63.8908 173.318 63.0682 173.083 62.1393C172.754 60.768 172.854 59.2299 173.654 58.0346C174.132 57.3616 174.741 56.792 175.445 56.3601C176.149 55.9281 176.932 55.6426 177.749 55.5206L177.746 55.5194Z" fill="black"/>
<path d="M149.284 56.0611C149.861 55.7378 150.5 55.5417 151.159 55.4861C151.818 55.4305 152.481 55.5167 153.103 55.7389V59.8527C152.276 59.3295 151.296 59.0994 150.322 59.199C149.154 59.3316 148.229 60.2275 147.749 61.256C147.278 62.3636 147.077 63.5671 147.162 64.7675V72.9952H143.106V55.8051C144.46 55.788 145.814 55.7949 147.168 55.8051C147.162 56.789 147.168 57.7729 147.168 58.7579C147.608 57.6872 148.263 56.6473 149.295 56.0634L149.284 56.0611Z" fill="black"/>
<path d="M119.76 55.8028C121.124 55.8028 122.49 55.7834 123.854 55.8097C123.838 61.5382 123.854 67.2678 123.847 72.9963H119.762V55.8028L119.76 55.8028Z" fill="black"/>
<path d="M170.161 59.8127C169.441 58.2071 168.165 56.9166 166.567 56.1799C164.734 55.3458 162.651 55.2338 160.676 55.4851V55.4886C158.567 55.7178 156.629 56.7538 155.267 58.3797C154.103 59.8922 153.439 61.7294 153.367 63.6362C153.202 65.8543 153.572 68.2083 154.875 70.0595C156.013 71.6538 157.71 72.7607 159.628 73.1598C161.217 73.4905 162.857 73.4905 164.446 73.1598C166.32 72.7869 167.997 71.7521 169.17 70.2446C170.259 68.7933 170.889 67.0494 170.979 65.2372C171.157 63.3893 170.876 61.526 170.161 59.8127ZM166.186 67.7066C165.798 68.607 165.072 69.3197 164.165 69.6927C163.089 70.087 161.917 70.1385 160.811 69.8401C160.256 69.6861 159.74 69.4171 159.295 69.0505C158.851 68.684 158.489 68.228 158.232 67.7123C157.569 66.3891 157.47 64.8555 157.607 63.4077C157.731 62.0878 158.191 60.7303 159.196 59.8195C159.946 59.1579 160.904 58.7799 161.904 58.7511C162.527 58.6912 163.156 58.7643 163.75 58.9656C164.343 59.167 164.887 59.4919 165.345 59.919C166.296 60.8537 166.664 62.2044 166.766 63.5037C166.839 64.9195 166.781 66.3948 166.186 67.7066Z" fill="black"/>
<path d="M203.116 60.3087C202.481 58.5793 201.22 57.1517 199.581 56.3092C197.707 55.3653 195.53 55.2247 193.474 55.4795V55.4784C191.798 55.6645 190.216 56.3433 188.927 57.429C187.406 58.7984 186.441 60.6775 186.213 62.7107C185.959 64.7093 186.045 66.8142 186.859 68.6849C187.661 70.5366 189.165 71.9949 191.04 72.7404C192.894 73.4167 194.894 73.5859 196.836 73.2306C198.834 72.9177 200.641 71.8614 201.894 70.2733C203.152 68.5834 203.807 66.5213 203.756 64.4157C203.806 63.0184 203.589 61.6244 203.116 60.3087ZM199.401 66.1446C199.271 67.0639 198.904 67.9338 198.337 68.6688C197.721 69.378 196.868 69.8381 195.937 69.9624C194.945 70.1301 193.926 70.0193 192.994 69.6425C192.002 69.197 191.223 68.3825 190.822 67.3719C190.369 66.1782 190.202 64.8949 190.334 63.6249C190.382 62.38 190.818 61.1812 191.581 60.1967C191.958 59.7659 192.419 59.416 192.935 59.1683C193.451 58.9206 194.012 58.7803 194.584 58.7557V58.7546C195.768 58.6317 196.953 58.9811 197.881 59.727C198.674 60.4454 199.198 61.4129 199.367 62.4696C199.595 63.6829 199.607 64.9272 199.401 66.1446L199.401 66.1446Z" fill="black"/>
<path d="M38 61.9736H57.0264V80.9989H38V61.9736Z" fill="black"/>
<path d="M58.9701 61.9736H77.9954V81H58.969V61.9748L58.9701 61.9736Z" fill="black"/>
</g>
<defs>
<clipPath id="clip0_309_12663">
<rect width="187.294" height="40" fill="white" transform="translate(38 41)"/>
</clipPath>
</defs>
</svg>
