<svg width="256" height="120" viewBox="0 0 256 120" fill="none" xmlns="http://www.w3.org/2000/svg">
<rect width="256" height="120" fill="white"/>
<g clip-path="url(#clip0_309_12670)">
<path d="M95 10V110H160.633V10H95ZM143.64 28.5887V28.315H133.942V35.747H141.472V37.7749H133.942V47.5025H131.625C130.489 47.2166 129.321 47.0802 128.149 47.0969C126.802 47.0763 125.467 47.3533 124.239 47.908C123.09 48.3766 122.048 49.0735 121.177 49.9564C120.306 50.8393 119.623 51.8899 119.169 53.0446C118.694 54.2024 118.448 55.4412 118.443 56.6927C118.449 58.0315 118.695 59.3586 119.169 60.6105C119.591 61.7923 120.285 62.8575 121.197 63.7192C122.126 64.5849 123.206 65.2723 124.384 65.7471C125.737 66.204 127.156 66.4329 128.584 66.4243C129.311 66.4465 130.039 66.4017 130.758 66.2904C131.453 66.1939 132.134 66.0127 132.786 65.751C133.51 65.4793 134.09 65.2116 134.668 64.9399C135.168 64.7005 135.651 64.4296 136.116 64.1288V58.1831H129.308V56.2911H138.433V65.0738L138.29 65.2076C136.972 66.1159 135.564 66.8858 134.088 67.5051C132.334 68.181 130.463 68.5022 128.584 68.4502C126.805 68.424 125.044 68.1047 123.369 67.5051C121.9 66.9976 120.563 66.1668 119.458 65.0738C118.431 64.0105 117.598 62.7759 116.996 61.4257C116.404 60.0141 116.109 58.4966 116.126 56.9664C116.121 55.4813 116.417 54.0106 116.996 52.643C117.599 51.2936 118.432 50.0592 119.458 48.9949C119.724 48.6109 120.07 48.2886 120.471 48.0499V28.5927H113.663V26.5648H129.449V28.5927H122.787V46.5615C123.073 46.4237 123.221 46.4237 123.365 46.2898C124.971 45.6266 126.697 45.3048 128.434 45.3447C129.353 45.3189 130.273 45.3637 131.186 45.4787C131.33 45.4787 131.621 45.6126 131.764 45.6126V26.5607H143.64V28.315H143.646L143.64 28.5887Z" fill="black"/>
</g>
<defs>
<clipPath id="clip0_309_12670">
<rect width="65.6334" height="100" fill="white" transform="translate(95 10)"/>
</clipPath>
</defs>
</svg>
