<svg width="256" height="120" viewBox="0 0 256 120" fill="none" xmlns="http://www.w3.org/2000/svg">
<rect width="256" height="120" fill="white"/>
<path d="M113.895 63.3973L109.901 67.4294L120.674 81.0001L124.669 76.968L113.895 63.3973Z" fill="#0A0A0A"/>
<path d="M101.492 47.177C99.1792 48.5598 97.2518 50.639 95.9242 53.1833C94.57 55.7862 93.8725 58.7572 93.9074 61.7747C93.8725 64.7923 94.57 67.7633 95.9242 70.3662C97.2518 72.9105 99.1792 74.9897 101.492 76.3725C103.944 77.8357 106.683 78.5778 109.456 78.5301C111.428 78.5452 113.388 78.1769 115.248 77.4415L111.697 72.9709C110.959 73.1358 110.209 73.2204 109.456 73.2236C107.638 73.2538 105.845 72.7515 104.25 71.7657C102.721 70.8095 101.461 69.3884 100.613 67.6644C99.7199 65.8665 99.2621 63.8353 99.2857 61.7747C99.2621 59.7142 99.7199 57.683 100.613 55.8851C101.466 54.1652 102.725 52.7456 104.25 51.7838C105.854 50.8264 107.642 50.3259 109.456 50.3259C111.271 50.3259 113.058 50.8264 114.662 51.7838C116.191 52.74 117.452 54.161 118.3 55.8851C119.193 57.683 119.651 59.7142 119.627 61.7747C119.644 63.3678 119.374 64.9482 118.834 66.4204L122.575 71.1243C122.73 70.8716 122.868 70.6383 123.006 70.3662C124.366 67.7592 125.064 64.78 125.023 61.7553C125.062 58.731 124.364 55.7525 123.006 53.1444C121.668 50.6145 119.742 48.5445 117.438 47.1576C114.969 45.7361 112.235 44.9966 109.463 45C106.691 45.0034 103.959 45.7496 101.492 47.177Z" fill="#0A0A0A"/>
<path d="M88.1497 45.0195H82.7713V77.6749H88.1497V45.0195Z" fill="#0A0A0A"/>
<path d="M133.917 74.3316C131.677 71.8047 130.573 68.1698 130.573 63.4465V45.0195H135.952V63.2132C135.952 69.6277 138.399 72.8155 143.312 72.8155C148.191 72.8155 150.633 69.6147 150.639 63.2132V45.0195H155.931V63.4465C155.931 68.1698 154.822 71.7982 152.604 74.3316C150.38 76.8585 147.277 78.1414 143.278 78.1414C139.261 78.1414 136.141 76.8715 133.917 74.3316" fill="#0A0A0A"/>
<path d="M168.825 45.0195H163.447V77.6749H168.825V45.0195Z" fill="#0A0A0A"/>
<path d="M182.03 50.1511H189.063C191.001 50.107 192.92 50.5799 194.665 51.5312C196.231 52.3837 197.53 53.7531 198.389 55.4576C199.283 57.2613 199.735 59.3008 199.699 61.3667C199.739 63.4331 199.287 65.4738 198.389 67.2757C197.52 68.9713 196.224 70.3378 194.665 71.2022C192.92 72.1514 191.001 72.6242 189.063 72.5822H182.03L182.03 50.1511ZM176.651 45.0195V77.6749H189.304C192.153 77.7301 194.974 77.0381 197.544 75.6534C199.861 74.3958 201.802 72.4029 203.129 69.9192C204.481 67.3312 205.168 64.3697 205.112 61.3666C205.168 58.3635 204.481 55.4021 203.129 52.814C201.798 50.3345 199.858 48.3429 197.544 47.0799C195.148 45.7193 192.407 45.0584 189.304 45.0584H176.651V45.0195Z" fill="#0A0A0A"/>
<path d="M58 45.0195V77.6751H78.5134V72.5435H63.3783V45.0195H58Z" fill="#0A0A0A"/>
</svg>
