<svg width="256" height="120" viewBox="0 0 256 120" fill="none" xmlns="http://www.w3.org/2000/svg">
<rect width="256" height="120" fill="white"/>
<g clip-path="url(#clip0_309_12646)">
<path d="M108.527 48.4187H93.5194V51.9536H99.0077V67.6125H103.039V51.9536H108.527V48.4187Z" fill="black"/>
<path d="M111.628 63.2403H111.566L108.558 53.7209H104.682L109.333 66.7752C109.432 67.0541 109.485 67.3475 109.488 67.6434C109.485 68.0407 109.366 68.4284 109.147 68.7597C109.027 68.9304 108.869 69.072 108.687 69.174C108.505 69.2759 108.302 69.3357 108.093 69.3489C107.731 69.3695 107.368 69.3591 107.008 69.3178L105.953 69.2248V72.3566L107.07 72.4496C107.442 72.4806 107.814 72.4806 108.186 72.4806C109.426 72.4806 110.419 72.2326 111.101 71.7675C111.783 71.3023 112.341 70.4651 112.744 69.3489L118.264 53.7209H114.512L111.628 63.2403Z" fill="black"/>
<path d="M137.984 54.4651C137.543 54.0574 137.012 53.7599 136.434 53.5969C135.801 53.4044 135.142 53.3103 134.481 53.3178C133.629 53.2974 132.794 53.5471 132.093 54.031C131.452 54.4543 130.904 55.0028 130.481 55.6434C130.19 54.8714 129.628 54.232 128.899 53.8449C128.184 53.5028 127.398 53.3328 126.605 53.3488C125.79 53.3298 124.986 53.5336 124.279 53.938C123.585 54.3629 122.992 54.9343 122.543 55.6124H122.481V53.7209H119.039V67.6124H122.667V59.5504C122.644 58.9891 122.739 58.4293 122.946 57.907C123.087 57.5332 123.322 57.2021 123.628 56.9457C123.868 56.7452 124.14 56.5878 124.434 56.4806C124.653 56.4022 124.884 56.3603 125.116 56.3566C125.582 56.3219 126.047 56.43 126.45 56.6666C126.748 56.8585 126.976 57.1411 127.101 57.4728C127.223 57.8334 127.296 58.2089 127.318 58.5891C127.349 58.9922 127.349 59.3953 127.349 59.7984V67.6124H130.977V59.8604C130.976 59.4349 131.007 59.01 131.07 58.5891C131.118 58.1959 131.244 57.8163 131.442 57.4728C131.622 57.1485 131.877 56.8721 132.186 56.6666C132.559 56.4411 132.991 56.3331 133.426 56.3566C133.848 56.3344 134.267 56.4311 134.636 56.6356C134.923 56.8076 135.159 57.054 135.318 57.3488C135.483 57.688 135.578 58.0572 135.597 58.4341C135.628 58.8372 135.659 59.2713 135.659 59.7674V67.6434H139.287V58.3411C139.308 57.5596 139.181 56.7813 138.915 56.0465C138.76 55.4423 138.437 54.8941 137.984 54.4651Z" fill="black"/>
<path d="M152.31 55.8606C151.781 55.0873 151.067 54.4585 150.233 54.0311C149.325 53.5556 148.311 53.3207 147.287 53.349C146.338 53.3391 145.398 53.5292 144.527 53.9071C143.713 54.2677 142.984 54.796 142.388 55.4575C141.781 56.1382 141.307 56.9272 140.992 57.7831C140.341 59.6806 140.33 61.7392 140.961 63.6435C141.255 64.496 141.707 65.2852 142.295 65.9691C142.885 66.6214 143.617 67.1304 144.434 67.4575C145.331 67.8162 146.29 67.9953 147.256 67.9846C148.618 68.0189 149.958 67.6406 151.101 66.8993C152.155 66.1862 152.961 64.9769 153.457 63.3334H150.264C150.093 63.8357 149.753 64.2631 149.302 64.5428C148.75 64.9349 148.088 65.1412 147.411 65.1319C146.388 65.1319 145.612 64.8528 145.054 64.2947C144.496 63.7366 144.217 62.8373 144.155 61.597H153.705C153.766 60.5569 153.682 59.5135 153.457 58.4962C153.249 57.5519 152.859 56.6568 152.31 55.8606ZM144.186 59.1784C144.213 58.8749 144.264 58.5741 144.341 58.2792C144.451 57.9091 144.633 57.5647 144.878 57.2665C145.123 56.9682 145.426 56.7221 145.767 56.5428C146.218 56.3143 146.72 56.2075 147.225 56.2327C148.124 56.2327 148.775 56.4807 149.209 56.9769C149.706 57.6137 150.018 58.3757 150.109 59.1784H144.186Z" fill="black"/>
<path d="M165.829 57.4728V57.4108C166.293 57.3031 166.734 57.1142 167.132 56.8527C167.913 56.2858 168.49 55.4806 168.775 54.5581C168.925 54.0871 168.998 53.595 168.992 53.1007C169.026 52.3259 168.855 51.5557 168.496 50.8682C168.182 50.287 167.736 49.7877 167.194 49.4108C166.632 49.0295 165.999 48.7658 165.333 48.6356C164.609 48.4852 163.871 48.4124 163.132 48.4186H155.411V67.6124H163.132C163.988 67.6274 164.842 67.5336 165.674 67.3333C166.302 67.1743 166.907 66.9346 167.473 66.6201C167.918 66.3451 168.316 65.9996 168.651 65.5969C168.927 65.2284 169.147 64.8208 169.302 64.3876C169.445 64.0063 169.549 63.6115 169.612 63.2093C169.661 62.8705 169.682 62.5282 169.674 62.186C169.711 61.0398 169.337 59.9181 168.62 59.0232C168.287 58.5861 167.867 58.2227 167.387 57.9558C166.907 57.689 166.376 57.5245 165.829 57.4728ZM157.147 49.969H163.132C165.891 49.969 167.256 51.1783 167.256 53.5659C167.251 54.0012 167.167 54.4321 167.008 54.8372C166.832 55.2339 166.567 55.5842 166.233 55.8604C165.858 56.1764 165.426 56.4184 164.961 56.5736C164.367 56.7448 163.75 56.8283 163.132 56.8217H157.147V49.969ZM167.566 64.0155C167.327 64.5041 166.963 64.9211 166.512 65.2248C166.05 65.549 165.519 65.7614 164.961 65.8449C164.359 65.9697 163.746 66.0321 163.132 66.031H157.147V58.3721H163.132C164.682 58.3721 165.891 58.6821 166.698 59.3023C167.504 59.9224 167.938 60.8527 167.938 62.093C167.962 62.7538 167.835 63.4113 167.566 64.0155Z" fill="black"/>
<path d="M181.209 65.1627V57.7829C181.237 57.0053 181.089 56.2314 180.775 55.5193C180.526 54.9766 180.141 54.5069 179.659 54.155C179.187 53.8441 178.661 53.6233 178.109 53.5038C177.538 53.3791 176.956 53.3167 176.372 53.3178C175.66 53.3107 174.95 53.4047 174.264 53.5968C173.667 53.7681 173.109 54.0523 172.62 54.434C172.142 54.8283 171.76 55.3268 171.504 55.8914C171.212 56.5585 171.044 57.2729 171.008 57.9999H172.62C172.651 56.8836 172.992 56.0464 173.643 55.5503C174.37 55.0185 175.255 54.7456 176.155 54.7751C176.603 54.7673 177.05 54.8089 177.488 54.8991C177.883 54.9784 178.26 55.1253 178.605 55.3333C178.923 55.5544 179.179 55.8533 179.349 56.2015C179.552 56.6487 179.647 57.1371 179.628 57.6278C179.636 57.9348 179.583 58.2404 179.473 58.5271C179.394 58.7474 179.254 58.9409 179.07 59.0852C178.873 59.2205 178.652 59.3154 178.419 59.3643C178.122 59.4272 177.822 59.4686 177.519 59.4883C176.651 59.5813 175.783 59.7053 174.946 59.8294C174.156 59.9288 173.384 60.1375 172.651 60.4495C172.012 60.7099 171.454 61.1385 171.039 61.6898C170.596 62.3592 170.379 63.1521 170.419 63.9534C170.409 64.5799 170.525 65.2019 170.76 65.7829C170.979 66.2741 171.308 66.7089 171.721 67.0542C172.123 67.3997 172.601 67.6442 173.116 67.7674C173.682 67.9214 174.267 67.9945 174.853 67.9844C175.417 67.9945 175.979 67.932 176.527 67.7984C176.965 67.6855 177.383 67.5078 177.767 67.2712C178.147 67.0423 178.482 66.7484 178.76 66.403C179.089 66.0226 179.389 65.6184 179.659 65.1937H179.721C179.724 65.5253 179.745 65.8565 179.783 66.186C179.804 66.4648 179.901 66.7327 180.062 66.9612C180.205 67.1808 180.41 67.3533 180.651 67.4573C180.964 67.5931 181.303 67.6567 181.643 67.6433C181.83 67.6503 182.017 67.6399 182.202 67.6123C182.369 67.5936 182.535 67.5625 182.698 67.5193V66.0929C182.53 66.1592 182.351 66.1908 182.171 66.186C181.519 66.186 181.209 65.8449 181.209 65.1627ZM179.597 62.217C179.609 62.8467 179.482 63.4714 179.225 64.0464C178.985 64.5607 178.648 65.0239 178.233 65.4108C177.801 65.7825 177.308 66.0762 176.775 66.279C176.207 66.477 175.61 66.5817 175.008 66.5891C174.628 66.5878 174.251 66.525 173.891 66.403C173.536 66.2856 173.209 66.0955 172.93 65.8449C172.654 65.6053 172.432 65.3093 172.279 64.9767C172.114 64.617 172.029 64.2253 172.031 63.8294C172.011 63.539 172.053 63.2476 172.154 62.9748C172.256 62.702 172.415 62.4542 172.62 62.248C173.032 61.8559 173.532 61.5687 174.078 61.4108C174.725 61.2089 175.389 61.0637 176.062 60.9767C176.775 60.8836 177.488 60.7596 178.171 60.6356C178.433 60.5926 178.692 60.5304 178.946 60.4495C179.069 60.4235 179.186 60.3712 179.287 60.2963C179.389 60.2214 179.473 60.1257 179.535 60.0154H179.597V62.217Z" fill="black"/>
<path d="M193.612 54.7753C193.218 54.299 192.704 53.9354 192.124 53.721C191.379 53.4519 190.59 53.3257 189.798 53.3489C188.882 53.3382 187.983 53.6088 187.225 54.1241C186.467 54.6074 185.89 55.3265 185.581 56.1706H185.519V53.783H183.907V67.6745H185.519V59.5194C185.539 58.8781 185.644 58.2421 185.829 57.628C186.003 57.0766 186.277 56.5617 186.636 56.1086C186.98 55.6867 187.414 55.3475 187.907 55.1163C188.449 54.8593 189.044 54.7319 189.643 54.7443C190.198 54.7207 190.75 54.8268 191.256 55.0543C191.676 55.2492 192.032 55.5615 192.279 55.9536C192.547 56.356 192.726 56.8103 192.806 57.2869C192.908 57.8288 192.96 58.3789 192.961 58.9303V67.5815H194.574V58.6512C194.588 57.9012 194.515 57.152 194.357 56.4187C194.264 55.813 194.007 55.2444 193.612 54.7753Z" fill="black"/>
<path d="M201.984 58.8683L207.597 53.721H205.457L198.14 60.4497V48.4187H196.527V67.6125H198.14V62.3412L200.744 60.0466L205.953 67.6125H208L201.984 58.8683Z" fill="black"/>
<path d="M74.3876 37.3799L48 42.8062V47.2093L72.155 43.0233L86.0465 48.1706V44.9768L74.3876 37.3799Z" fill="black"/>
<path d="M48 48.8528V53.4109L68.8062 51.6435L86.0465 53.5349V49.5039L71.2868 45.2869L48 48.8528Z" fill="black"/>
<path d="M48 54.8992V59.5504L64.8992 60.7597L86.0465 59.7054V54.9302L67.845 53.783L48 54.8992Z" fill="black"/>
<path d="M48 64.8528L61.5504 69.1939L86.0465 65.752V61.1318L63.938 62.8373L48 60.9768V64.8528Z" fill="black"/>
<path d="M48 69.2558L58.4496 77.0387L86.0465 71.8915V67.4574L60.6202 71.4574L48 66.217V69.2558Z" fill="black"/>
<path d="M208 79.4574C208.032 79.1329 207.95 78.8076 207.769 78.5363C207.588 78.2651 207.319 78.0647 207.008 77.969L205.829 77.3488C205.457 77.1628 205.271 76.9768 205.271 76.7287V76.6047C205.274 76.5451 205.29 76.4867 205.316 76.4333C205.343 76.38 205.38 76.3327 205.426 76.2946C205.579 76.2133 205.749 76.1707 205.922 76.1706H207.473C207.498 76.1742 207.524 76.1719 207.548 76.1638C207.572 76.1557 207.594 76.1421 207.612 76.1241C207.631 76.106 207.644 76.084 207.652 76.0598C207.66 76.0356 207.663 76.0098 207.659 75.9845V75.4574C207.663 75.4321 207.66 75.4063 207.652 75.3821C207.644 75.3579 207.631 75.3359 207.612 75.3178C207.594 75.2997 207.572 75.2861 207.548 75.2781C207.524 75.27 207.498 75.2677 207.473 75.2713H205.705C204.682 75.2713 204.186 75.7364 204.186 76.6977C204.178 76.996 204.265 77.2891 204.434 77.5349C204.648 77.7842 204.912 77.985 205.209 78.124L206.357 78.6822C206.501 78.7283 206.627 78.8194 206.716 78.9421C206.806 79.0647 206.853 79.2127 206.853 79.3644V79.4884C206.853 79.8295 206.636 79.9845 206.171 79.9845H204.372C204.347 79.9809 204.321 79.9832 204.297 79.9912C204.273 79.9993 204.251 80.0129 204.232 80.031C204.214 80.049 204.201 80.071 204.193 80.0953C204.185 80.1195 204.182 80.1453 204.186 80.1706V80.6977C204.182 80.723 204.185 80.7487 204.193 80.773C204.201 80.7972 204.214 80.8192 204.232 80.8373C204.251 80.8553 204.273 80.8689 204.297 80.877C204.321 80.8851 204.347 80.8874 204.372 80.8837H206.326C207.473 80.9147 208 80.4186 208 79.4574ZM202.326 80.9147H203.008C203.07 80.9147 203.101 80.9147 203.132 80.8837C203.163 80.8527 203.163 80.8217 203.163 80.7287V75.4884C203.166 75.4631 203.164 75.4373 203.156 75.4131C203.148 75.3889 203.134 75.3669 203.116 75.3488C203.098 75.3307 203.076 75.3171 203.052 75.3091C203.028 75.301 203.002 75.2987 202.977 75.3023H202.295C202.171 75.3023 202.14 75.3644 202.14 75.4884V80.7287C202.136 80.754 202.138 80.7797 202.146 80.804C202.154 80.8282 202.168 80.8502 202.186 80.8683C202.204 80.8863 202.226 80.8999 202.25 80.908C202.275 80.9161 202.3 80.9184 202.326 80.9147ZM202.326 74.5271H203.008C203.033 74.5308 203.059 74.5285 203.083 74.5204C203.107 74.5123 203.129 74.4987 203.147 74.4807C203.165 74.4626 203.179 74.4406 203.187 74.4164C203.195 74.3921 203.197 74.3664 203.194 74.3411V73.3489C203.197 73.3236 203.195 73.2978 203.187 73.2736C203.179 73.2493 203.165 73.2273 203.147 73.2093C203.129 73.1912 203.107 73.1776 203.083 73.1695C203.059 73.1615 203.033 73.1592 203.008 73.1628H202.326C202.202 73.1628 202.171 73.2248 202.171 73.3489V74.3411C202.14 74.4651 202.202 74.5271 202.326 74.5271ZM197.736 80.7287V77.1628C197.736 76.5426 198.015 76.2326 198.605 76.2326H199.101C199.628 76.2326 199.876 76.5116 199.876 77.0388V80.6977C199.872 80.723 199.875 80.7487 199.883 80.773C199.891 80.7972 199.904 80.8192 199.922 80.8373C199.94 80.8553 199.962 80.8689 199.987 80.877C200.011 80.8851 200.037 80.8874 200.062 80.8837H200.744C200.769 80.8874 200.795 80.8851 200.819 80.877C200.844 80.8689 200.866 80.8553 200.884 80.8373C200.902 80.8192 200.915 80.7972 200.923 80.773C200.932 80.7487 200.934 80.723 200.93 80.6977V76.9768C200.964 76.5169 200.82 76.0616 200.527 75.7054C200.37 75.5582 200.184 75.444 199.982 75.3695C199.779 75.2949 199.564 75.2616 199.349 75.2713H198.884C198.326 75.2713 197.984 75.4574 197.798 75.8605H197.767V73.3489C197.771 73.3236 197.769 73.2978 197.761 73.2736C197.753 73.2493 197.739 73.2273 197.721 73.2093C197.703 73.1912 197.681 73.1776 197.657 73.1695C197.632 73.1615 197.607 73.1592 197.581 73.1628H196.899C196.874 73.1592 196.848 73.1615 196.824 73.1695C196.8 73.1776 196.778 73.1912 196.76 73.2093C196.742 73.2273 196.728 73.2493 196.72 73.2736C196.712 73.2978 196.71 73.3236 196.713 73.3489V80.6977C196.71 80.723 196.712 80.7487 196.72 80.773C196.728 80.7972 196.742 80.8192 196.76 80.8373C196.778 80.8553 196.8 80.8689 196.824 80.877C196.848 80.8851 196.874 80.8874 196.899 80.8837H197.581C197.674 80.9147 197.736 80.8527 197.736 80.7287ZM193.333 76.3256V79.2093C193.308 79.4354 193.333 79.6645 193.408 79.8793C193.483 80.0941 193.606 80.2893 193.767 80.4502C193.928 80.6111 194.123 80.7337 194.338 80.8088C194.553 80.8838 194.782 80.9094 195.008 80.8837H195.597C195.622 80.8874 195.648 80.8851 195.672 80.877C195.696 80.8689 195.718 80.8553 195.736 80.8373C195.755 80.8192 195.768 80.7972 195.776 80.773C195.784 80.7487 195.787 80.723 195.783 80.6977V80.1395C195.787 80.1143 195.784 80.0885 195.776 80.0643C195.768 80.04 195.755 80.018 195.736 80C195.718 79.9819 195.696 79.9683 195.672 79.9602C195.648 79.9522 195.622 79.9499 195.597 79.9535H195.194C195.085 79.9671 194.974 79.9556 194.87 79.9199C194.766 79.8842 194.671 79.8252 194.594 79.7474C194.516 79.6697 194.457 79.5752 194.421 79.4712C194.386 79.3672 194.374 79.2564 194.388 79.1473V76.3256C194.386 76.3089 194.388 76.2922 194.394 76.2765C194.4 76.2608 194.409 76.2466 194.421 76.2348C194.433 76.2229 194.447 76.2139 194.463 76.2081C194.478 76.2024 194.495 76.2001 194.512 76.2016H195.504C195.529 76.2052 195.555 76.2029 195.579 76.1948C195.603 76.1868 195.625 76.1732 195.643 76.1551C195.661 76.137 195.675 76.115 195.683 76.0908C195.691 76.0666 195.694 76.0408 195.69 76.0155V75.4574C195.694 75.4321 195.691 75.4063 195.683 75.3821C195.675 75.3579 195.661 75.3359 195.643 75.3178C195.625 75.2997 195.603 75.2861 195.579 75.2781C195.555 75.27 195.529 75.2677 195.504 75.2713H194.512C194.419 75.2713 194.388 75.2403 194.388 75.1473V74.1551C194.391 74.1298 194.389 74.104 194.381 74.0798C194.373 74.0555 194.359 74.0335 194.341 74.0155C194.323 73.9974 194.301 73.9838 194.277 73.9757C194.253 73.9677 194.227 73.9654 194.202 73.969H193.519C193.494 73.9654 193.468 73.9677 193.444 73.9757C193.42 73.9838 193.398 73.9974 193.38 74.0155C193.362 74.0335 193.348 74.0555 193.34 74.0798C193.332 74.104 193.33 74.1298 193.333 74.1551V75.1473C193.333 75.2093 193.302 75.2713 193.24 75.2713H192.744C192.719 75.2677 192.693 75.27 192.669 75.2781C192.645 75.2861 192.623 75.2997 192.605 75.3178C192.587 75.3359 192.573 75.3579 192.565 75.3821C192.557 75.4063 192.554 75.4321 192.558 75.4574V76.0155C192.558 76.0775 192.558 76.1395 192.589 76.1395C192.639 76.1565 192.691 76.1669 192.744 76.1706H193.24C193.302 76.2326 193.333 76.2636 193.333 76.3256ZM187.597 76.3256V79.2093C187.572 79.6639 187.728 80.1099 188.031 80.4496C188.374 80.7478 188.818 80.9032 189.271 80.8837H189.86C189.886 80.8874 189.911 80.8851 189.936 80.877C189.96 80.8689 189.982 80.8553 190 80.8373C190.018 80.8192 190.032 80.7972 190.04 80.773C190.048 80.7487 190.05 80.723 190.046 80.6977V80.1395C190.05 80.1143 190.048 80.0885 190.04 80.0643C190.032 80.04 190.018 80.018 190 80C189.982 79.9819 189.96 79.9683 189.936 79.9602C189.911 79.9522 189.886 79.9499 189.86 79.9535H189.457C189.348 79.9671 189.237 79.9556 189.133 79.9199C189.029 79.8842 188.935 79.8252 188.857 79.7474C188.779 79.6697 188.72 79.5752 188.685 79.4712C188.649 79.3672 188.638 79.2564 188.651 79.1473V76.3256C188.65 76.3089 188.652 76.2922 188.658 76.2765C188.663 76.2608 188.673 76.2466 188.684 76.2348C188.696 76.2229 188.71 76.2139 188.726 76.2081C188.742 76.2024 188.759 76.2001 188.775 76.2016H189.767C189.793 76.2052 189.818 76.2029 189.843 76.1948C189.867 76.1868 189.889 76.1732 189.907 76.1551C189.925 76.137 189.939 76.115 189.947 76.0908C189.955 76.0666 189.957 76.0408 189.953 76.0155V75.4574C189.957 75.4321 189.955 75.4063 189.947 75.3821C189.939 75.3579 189.925 75.3359 189.907 75.3178C189.889 75.2997 189.867 75.2861 189.843 75.2781C189.818 75.27 189.793 75.2677 189.767 75.2713H188.775C188.682 75.2713 188.651 75.2403 188.651 75.1473V74.1551C188.655 74.1298 188.652 74.104 188.644 74.0798C188.636 74.0555 188.623 74.0335 188.605 74.0155C188.587 73.9974 188.565 73.9838 188.54 73.9757C188.516 73.9677 188.49 73.9654 188.465 73.969H187.783C187.758 73.9654 187.732 73.9677 187.708 73.9757C187.683 73.9838 187.661 73.9974 187.643 74.0155C187.625 74.0335 187.612 74.0555 187.604 74.0798C187.596 74.104 187.593 74.1298 187.597 74.1551V75.1473C187.597 75.2093 187.566 75.2713 187.504 75.2713H187.008C186.982 75.2677 186.957 75.27 186.932 75.2781C186.908 75.2861 186.886 75.2997 186.868 75.3178C186.85 75.3359 186.836 75.3579 186.828 75.3821C186.82 75.4063 186.818 75.4321 186.822 75.4574V76.0155C186.822 76.0775 186.822 76.1395 186.853 76.1395C186.884 76.1395 186.915 76.1706 187.008 76.1706H187.504C187.566 76.2326 187.597 76.2636 187.597 76.3256ZM183.163 79.7675C183.023 79.5923 182.957 79.3702 182.977 79.1473V77.0078C182.957 76.7848 183.023 76.5628 183.163 76.3876C183.243 76.3186 183.337 76.2666 183.438 76.2347C183.54 76.2027 183.646 76.1914 183.752 76.2016H184.403C184.51 76.1912 184.618 76.2052 184.719 76.2426C184.82 76.2799 184.911 76.3396 184.986 76.4171C185.06 76.4947 185.116 76.5881 185.15 76.6904C185.183 76.7927 185.193 76.9012 185.178 77.0078V79.1473C185.178 79.6744 184.93 79.9535 184.403 79.9535H183.752C183.539 79.9685 183.328 79.902 183.163 79.7675ZM185.767 80.4496C186.066 80.107 186.221 79.6631 186.202 79.2093V77.0078C186.22 76.5447 186.065 76.0914 185.767 75.7364C185.608 75.583 185.418 75.465 185.209 75.3902C185.001 75.3154 184.779 75.2855 184.558 75.3023H183.628C183.407 75.2898 183.187 75.3217 182.979 75.3963C182.771 75.4709 182.581 75.5866 182.419 75.7364C182.115 76.0884 181.96 76.5439 181.984 77.0078V79.2093C181.959 79.6639 182.116 80.1099 182.419 80.4496C182.575 80.6098 182.764 80.7343 182.972 80.8146C183.181 80.8949 183.405 80.929 183.628 80.9147H184.558C184.781 80.9266 185.004 80.8913 185.212 80.8112C185.421 80.731 185.61 80.6078 185.767 80.4496ZM178.915 79.6744H178.419C177.922 79.6744 177.674 79.3954 177.674 78.8682V77.0388C177.674 76.4806 177.922 76.2326 178.419 76.2326H179.69C179.783 76.2326 179.814 76.2636 179.814 76.3566V78.7752C179.83 78.897 179.817 79.0208 179.778 79.1371C179.738 79.2533 179.672 79.359 179.585 79.4458C179.498 79.5327 179.393 79.5984 179.277 79.6381C179.16 79.6777 179.037 79.6901 178.915 79.6744ZM179.752 80.0465H179.783V80.8837C179.783 81.4419 179.535 81.6899 179.008 81.6899H177.178C177.153 81.6863 177.127 81.6886 177.103 81.6967C177.079 81.7047 177.057 81.7183 177.039 81.7364C177.021 81.7545 177.007 81.7765 176.999 81.8007C176.991 81.8249 176.989 81.8507 176.992 81.876V82.4341C176.989 82.4594 176.991 82.4852 176.999 82.5094C177.007 82.5336 177.021 82.5556 177.039 82.5737C177.057 82.5918 177.079 82.6054 177.103 82.6134C177.127 82.6215 177.153 82.6238 177.178 82.6202H179.194C179.414 82.6327 179.635 82.6008 179.843 82.5262C180.05 82.4516 180.241 82.3359 180.403 82.1861C180.701 81.8435 180.857 81.3995 180.837 80.9457V75.4884C180.841 75.4631 180.839 75.4373 180.83 75.4131C180.822 75.3889 180.809 75.3669 180.791 75.3488C180.773 75.3307 180.751 75.3171 180.726 75.3091C180.702 75.301 180.676 75.2987 180.651 75.3023H178.264C178.043 75.2898 177.822 75.3217 177.615 75.3963C177.407 75.4709 177.216 75.5866 177.054 75.7364C176.751 76.0884 176.596 76.5439 176.62 77.0078V78.9302C176.586 79.3901 176.73 79.8454 177.023 80.2016C177.175 80.3572 177.359 80.4769 177.563 80.552C177.767 80.6271 177.985 80.6557 178.202 80.6357H178.667C178.886 80.6581 179.107 80.6139 179.3 80.5088C179.494 80.4036 179.651 80.2425 179.752 80.0465ZM170.388 77.7209V77.0078C170.368 76.7848 170.434 76.5628 170.574 76.3876C170.654 76.3186 170.748 76.2666 170.849 76.2347C170.95 76.2027 171.057 76.1914 171.163 76.2016H171.752C171.858 76.1914 171.964 76.2027 172.065 76.2347C172.167 76.2666 172.26 76.3186 172.341 76.3876C172.48 76.5628 172.547 76.7848 172.527 77.0078V77.7209C172.527 77.783 172.496 77.845 172.434 77.845H170.543C170.419 77.845 170.388 77.814 170.388 77.7209ZM173.488 80.7287V80.1706C173.492 80.1453 173.49 80.1195 173.482 80.0953C173.474 80.071 173.46 80.049 173.442 80.031C173.424 80.0129 173.402 79.9993 173.378 79.9912C173.353 79.9832 173.328 79.9809 173.302 79.9845H171.163C170.636 79.9845 170.388 79.7054 170.388 79.1783V78.7132C170.386 78.6965 170.388 78.6798 170.394 78.6641C170.4 78.6484 170.409 78.6342 170.421 78.6223C170.433 78.6105 170.447 78.6014 170.463 78.5957C170.478 78.59 170.495 78.5877 170.512 78.5892H173.364C173.39 78.5928 173.415 78.5905 173.44 78.5824C173.464 78.5744 173.486 78.5608 173.504 78.5427C173.522 78.5246 173.536 78.5026 173.544 78.4784C173.552 78.4542 173.554 78.4284 173.55 78.4031V77.0078C173.569 76.5447 173.414 76.0914 173.116 75.7364C172.952 75.5804 172.757 75.461 172.543 75.3862C172.329 75.3113 172.102 75.2828 171.876 75.3023H171.008C170.787 75.2898 170.567 75.3217 170.359 75.3963C170.151 75.4709 169.961 75.5866 169.798 75.7364C169.495 76.0884 169.34 76.5439 169.364 77.0078V79.2093C169.339 79.6639 169.495 80.1099 169.798 80.4496C169.955 80.6098 170.143 80.7343 170.352 80.8146C170.561 80.8949 170.785 80.929 171.008 80.9147H173.302C173.328 80.9184 173.353 80.9161 173.378 80.908C173.402 80.8999 173.424 80.8863 173.442 80.8683C173.46 80.8502 173.474 80.8282 173.482 80.804C173.49 80.7797 173.492 80.754 173.488 80.7287ZM164.31 75.4884L165.736 80.7287C165.74 80.7573 165.75 80.7849 165.764 80.8098C165.779 80.8347 165.798 80.8565 165.821 80.8738C165.844 80.8912 165.871 80.9037 165.899 80.9107C165.927 80.9178 165.956 80.9191 165.984 80.9147H167.008C167.065 80.919 167.121 80.9025 167.167 80.8683C167.212 80.8341 167.244 80.7845 167.256 80.7287L168.682 75.4884C168.713 75.3644 168.682 75.3023 168.558 75.3023H167.845C167.792 75.2989 167.739 75.3164 167.699 75.3512C167.658 75.3859 167.633 75.4352 167.628 75.4884L166.543 79.9225H166.481L165.364 75.4884C165.36 75.4352 165.334 75.3859 165.294 75.3512C165.253 75.3164 165.201 75.2989 165.147 75.3023H164.434C164.341 75.3023 164.31 75.3644 164.31 75.4884ZM163.504 75.4574L163.721 73.876C163.721 73.814 163.721 73.783 163.69 73.752C163.659 73.7209 163.628 73.7209 163.566 73.7209H162.946C162.822 73.7209 162.76 73.783 162.791 73.876L163.008 75.4264C163.004 75.4516 163.006 75.4774 163.014 75.5016C163.023 75.5259 163.036 75.5479 163.054 75.566C163.072 75.584 163.094 75.5976 163.119 75.6057C163.143 75.6137 163.169 75.616 163.194 75.6124H163.318C163.362 75.6113 163.404 75.5953 163.438 75.5672C163.472 75.5391 163.495 75.5004 163.504 75.4574ZM160.93 80.3256H160.961V80.7287C160.958 80.754 160.96 80.7797 160.968 80.804C160.976 80.8282 160.99 80.8502 161.008 80.8683C161.026 80.8863 161.048 80.8999 161.072 80.908C161.096 80.9161 161.122 80.9184 161.147 80.9147H161.829C161.855 80.9184 161.88 80.9161 161.905 80.908C161.929 80.8999 161.951 80.8863 161.969 80.8683C161.987 80.8502 162.001 80.8282 162.009 80.804C162.017 80.7797 162.019 80.754 162.015 80.7287V75.4884C162.019 75.4631 162.017 75.4373 162.009 75.4131C162.001 75.3889 161.987 75.3669 161.969 75.3488C161.951 75.3307 161.929 75.3171 161.905 75.3091C161.88 75.301 161.855 75.2987 161.829 75.3023H161.147C161.122 75.2987 161.096 75.301 161.072 75.3091C161.048 75.3171 161.026 75.3307 161.008 75.3488C160.99 75.3669 160.976 75.3889 160.968 75.4131C160.96 75.4373 160.958 75.4631 160.961 75.4884V79.0543C160.961 79.6744 160.682 79.9845 160.093 79.9845H159.597C159.49 79.9948 159.382 79.9808 159.281 79.9435C159.18 79.9062 159.089 79.8465 159.014 79.7689C158.94 79.6914 158.884 79.598 158.85 79.4957C158.817 79.3934 158.807 79.2849 158.822 79.1783V75.4884C158.825 75.4631 158.823 75.4373 158.815 75.4131C158.807 75.3889 158.793 75.3669 158.775 75.3488C158.757 75.3307 158.735 75.3171 158.711 75.3091C158.687 75.301 158.661 75.2987 158.636 75.3023H157.953C157.928 75.2987 157.902 75.301 157.878 75.3091C157.854 75.3171 157.832 75.3307 157.814 75.3488C157.796 75.3669 157.782 75.3889 157.774 75.4131C157.766 75.4373 157.764 75.4631 157.767 75.4884V79.2093C157.733 79.6692 157.878 80.1245 158.171 80.4806C158.322 80.6362 158.507 80.756 158.711 80.8311C158.914 80.9062 159.132 80.9348 159.349 80.9147H159.814C160.403 80.9147 160.744 80.6977 160.93 80.3256ZM153.674 79.7675C153.535 79.5923 153.468 79.3702 153.488 79.1473V77.0078C153.468 76.7848 153.535 76.5628 153.674 76.3876C153.755 76.3186 153.849 76.2666 153.95 76.2347C154.051 76.2027 154.158 76.1914 154.264 76.2016H154.915C155.022 76.1912 155.13 76.2052 155.231 76.2426C155.332 76.2799 155.423 76.3396 155.497 76.4171C155.572 76.4947 155.628 76.5881 155.661 76.6904C155.695 76.7927 155.704 76.9012 155.69 77.0078V79.1473C155.69 79.6744 155.442 79.9535 154.915 79.9535H154.264C154.158 79.9636 154.051 79.9524 153.95 79.9204C153.849 79.8884 153.755 79.8364 153.674 79.7675ZM156.279 80.4496C156.433 80.2839 156.551 80.0882 156.625 79.8747C156.7 79.6613 156.73 79.4348 156.713 79.2093V77.0078C156.732 76.5447 156.577 76.0914 156.279 75.7364C156.119 75.583 155.929 75.465 155.721 75.3902C155.512 75.3154 155.291 75.2855 155.07 75.3023H154.14C153.919 75.2898 153.698 75.3217 153.491 75.3963C153.283 75.4709 153.092 75.5866 152.93 75.7364C152.627 76.0884 152.471 76.5439 152.496 77.0078V79.2093C152.471 79.6639 152.627 80.1099 152.93 80.4496C153.086 80.6098 153.275 80.7343 153.484 80.8146C153.693 80.8949 153.916 80.929 154.14 80.9147H155.07C155.292 80.9236 155.514 80.8869 155.722 80.8069C155.93 80.7269 156.12 80.6054 156.279 80.4496ZM150.481 80.7287V78.3101L152.465 74.062C152.48 74.0391 152.489 74.0121 152.489 73.9845C152.489 73.9569 152.48 73.9299 152.465 73.907C152.45 73.8881 152.432 73.8727 152.41 73.862C152.389 73.8512 152.365 73.8454 152.341 73.845H151.504C151.452 73.8463 151.402 73.8655 151.362 73.8994C151.323 73.9333 151.296 73.9798 151.287 74.031L149.984 77.0698H149.922L148.62 74.031C148.558 73.907 148.496 73.845 148.403 73.845H147.566C147.542 73.8454 147.518 73.8512 147.497 73.862C147.475 73.8727 147.457 73.8881 147.442 73.907C147.427 73.9299 147.418 73.9569 147.418 73.9845C147.418 74.0121 147.427 74.0391 147.442 74.062L149.426 78.3101V80.7287C149.423 80.754 149.425 80.7797 149.433 80.804C149.441 80.8282 149.455 80.8502 149.473 80.8683C149.491 80.8863 149.513 80.8999 149.537 80.908C149.561 80.9161 149.587 80.9184 149.612 80.9147H150.295C150.32 80.9184 150.346 80.9161 150.37 80.908C150.394 80.8999 150.416 80.8863 150.434 80.8683C150.452 80.8502 150.466 80.8282 150.474 80.804C150.482 80.7797 150.484 80.754 150.481 80.7287Z" fill="black"/>
</g>
<defs>
<clipPath id="clip0_309_12646">
<rect width="160" height="45.2403" fill="white" transform="translate(48 37.3799)"/>
</clipPath>
</defs>
</svg>
