<svg width="256" height="120" viewBox="0 0 256 120" fill="none" xmlns="http://www.w3.org/2000/svg">
<rect width="256" height="120" fill="white"/>
<g clip-path="url(#clip0_309_12672)">
<path d="M77.048 80.7502C77.7887 79.6673 78.1718 78.3797 78.1437 77.068C78.1853 75.9499 77.8808 74.8462 77.2716 73.9076C76.5967 72.975 75.7396 72.1889 74.7522 71.597C73.3075 70.7229 71.8143 69.9316 70.28 69.2266C69.4237 68.8648 68.6152 68.3991 67.8724 67.8402C67.6152 67.6378 67.4071 67.3797 67.2638 67.0854C67.1206 66.7911 67.0457 66.4681 67.045 66.1408C67.0428 65.8055 67.1159 65.4739 67.2592 65.1707C67.4024 64.8675 67.612 64.6004 67.8724 64.3891C68.5616 63.8874 69.4079 63.6494 70.2576 63.7183C71.7156 63.7114 73.1577 64.0217 74.4839 64.6277C75.3711 65.0318 76.2302 65.495 77.0554 66.0141V61.5791C76.8169 61.4523 76.4368 61.2585 75.8256 60.9902C74.9219 60.618 73.9864 60.3286 73.0304 60.1256C71.8065 59.8573 70.5564 59.7273 69.3035 59.738C67.7023 59.7065 66.1139 60.0297 64.6523 60.6846C63.5198 61.1901 62.5626 62.0202 61.9019 63.0698C61.3055 64.0593 60.9934 65.1941 61 66.3495C60.9691 67.5048 61.2747 68.6443 61.8795 69.6292C62.4811 70.5817 63.279 71.3949 64.22 72.0144C65.3269 72.7119 66.4944 73.3081 67.7084 73.7958C68.7317 74.1789 69.7071 74.6792 70.6154 75.2866C70.9793 75.5152 71.2799 75.8316 71.4896 76.2067C71.6993 76.5818 71.8113 77.0035 71.8154 77.4333C71.7813 78.0247 71.529 78.5825 71.1073 78.9986C70.6154 79.5501 69.6687 79.8259 68.2078 79.8259C66.8005 79.8343 65.406 79.558 64.1082 79.0135C63.1155 78.5854 62.1497 78.0976 61.2161 77.5525V82.226C62.319 82.6975 63.4582 83.0789 64.6225 83.3665C65.5679 83.6104 66.5294 83.7872 67.4997 83.8957C68.2451 83.9628 68.8339 83.9926 69.3333 83.9926C70.9255 84.0214 72.5072 83.7299 73.9845 83.1354C75.2119 82.6445 76.2744 81.8147 77.048 80.7427V80.7502ZM94.3482 77.1351L94.0799 77.3289C93.3824 77.8684 92.6334 78.3377 91.8438 78.7302C91.2986 78.9822 90.7074 79.1192 90.107 79.1327C89.5847 79.144 89.0665 79.038 88.5905 78.8226C88.1145 78.6071 87.6929 78.2878 87.3566 77.8879C86.6765 77.0919 86.2415 76.1159 86.1043 75.0779C85.8737 73.6483 85.9861 72.1844 86.4323 70.8069C86.8337 69.5315 87.6136 68.4084 88.6684 67.5868C89.7393 66.7761 91.0525 66.3506 92.3953 66.3793H94.3557L94.3482 77.1351ZM94.2215 83.0981H99.9907V63.0698C98.6342 62.8611 97.6055 62.7195 96.8527 62.63C95.7879 62.5206 94.7179 62.4708 93.6476 62.481C91.1105 62.4033 88.5816 62.8054 86.1938 63.6661C84.5413 64.2555 83.0821 65.2867 81.9749 66.6476C81.1026 67.7957 80.5151 69.1342 80.2606 70.5534C80.0307 71.9015 80.0131 73.2772 80.2084 74.6306C80.4323 76.1863 80.959 77.6829 81.7588 79.0358C82.496 80.3149 83.5158 81.4087 84.7403 82.2335C85.8704 83.0124 87.2066 83.4379 88.579 83.4559C89.4537 83.5003 90.3247 83.3153 91.1058 82.9193C91.8344 82.4744 92.5032 81.9384 93.096 81.3241L94.229 80.2135L94.2215 83.0981ZM117.328 83.0981H123.105V70.777C123.105 69.6739 123.03 68.8763 122.971 68.4813C122.734 66.9469 122.088 65.5048 121.1 64.3071C120.123 63.0996 118.677 62.5108 116.665 62.5108C115.552 62.4637 114.446 62.6943 113.445 63.1816C112.396 63.7918 111.398 64.4873 110.463 65.2612L109.397 66.0513V62.8462H103.665V83.046H109.36V70.464L109.532 70.2776C110.328 69.3653 111.198 68.5201 112.133 67.7508C112.825 67.2032 113.681 66.9039 114.563 66.9011C115.435 66.9011 116.941 67.2365 117.276 69.4801C117.324 69.7608 117.349 70.045 117.351 70.3298L117.328 83.0981ZM134.047 83.4559C135.833 83.4738 137.588 82.9937 139.116 82.0695L138.49 77.1053C137.538 77.8513 136.38 78.286 135.173 78.3501C134.383 78.3501 132.996 78.0519 132.616 76.032C132.538 75.539 132.503 75.0402 132.512 74.5412V66.8563H136.775V62.2201H132.556V55.0645H126.809V75.3835C126.804 76.1333 126.869 76.882 127.003 77.6196C127.217 79.03 127.875 80.3355 128.882 81.3465C129.592 82.0877 130.457 82.6629 131.416 83.0311C132.251 83.3273 133.131 83.4811 134.017 83.4857L134.047 83.4559ZM154.597 77.1277L154.269 77.3811C153.592 77.9103 152.869 78.3769 152.108 78.7749C151.562 79.0261 150.971 79.1631 150.371 79.1775C149.849 79.1881 149.331 79.0819 148.855 78.8665C148.379 78.6512 147.957 78.3321 147.62 77.9327C146.938 77.1375 146.5 76.1614 146.361 75.1226C146.129 73.6931 146.242 72.229 146.689 70.8516C147.089 69.5758 147.869 68.4525 148.925 67.6315C149.996 66.8208 151.309 66.3953 152.652 66.424H154.605L154.597 77.1277ZM154.5 83.0907H160.255V63.0698C158.891 62.8611 157.869 62.712 157.117 62.63C156.054 62.5207 154.987 62.471 153.919 62.481C151.369 62.399 148.827 62.8011 146.428 63.6661C144.775 64.2555 143.316 65.2867 142.209 66.6476C141.336 67.7951 140.748 69.1339 140.495 70.5534C140.265 71.9015 140.248 73.2771 140.442 74.6306C140.666 76.1887 141.193 77.6879 141.993 79.0433C142.73 80.3224 143.75 81.4161 144.974 82.241C146.117 83.0056 147.461 83.413 148.835 83.4112C149.71 83.456 150.581 83.2709 151.362 82.8745C152.094 82.431 152.765 81.8949 153.36 81.2794L154.478 80.1464L154.5 83.0907ZM195.176 71.1646C195.189 70.2163 195.147 69.2681 195.049 68.3247C194.806 66.8268 194.147 65.4271 193.148 64.2848C192.149 63.0847 190.487 62.481 188.221 62.481C187.37 62.4663 186.524 62.6183 185.732 62.9282C185.041 63.2022 184.394 63.5737 183.809 64.0314C183.289 64.4423 182.81 64.9015 182.377 65.4029L181.811 66.0737L181.341 65.3283C180.827 64.4354 180.079 63.699 179.178 63.1975C178.278 62.6961 177.258 62.4484 176.228 62.481C175.121 62.4703 174.03 62.7532 173.068 63.3009C172.195 63.7797 171.408 64.4021 170.742 65.142L169.609 66.4687V62.8537H163.944V83.0758H169.617V69.8602L169.773 69.6813C170.448 68.8872 171.197 68.1585 172.009 67.5048C172.626 66.9969 173.395 66.7107 174.193 66.6924C174.515 66.6722 174.837 66.7239 175.136 66.8438C175.435 66.9638 175.704 67.1488 175.922 67.3856C176.301 67.8784 176.536 68.4667 176.601 69.085C176.679 69.9424 176.711 70.8033 176.698 71.664V83.046H182.377V69.3534L182.564 69.167C184.204 67.5048 185.597 66.6924 186.827 66.6924C187.617 66.6924 189.004 67.0501 189.354 69.4577C189.423 69.9841 189.458 70.5145 189.459 71.0454V83.0758H195.168L195.176 71.1646Z" fill="black"/>
<path d="M132.333 35.4908V34H126.37V35.4237C103.306 35.768 80.9646 43.5158 62.6398 57.5242C64.3949 56.6489 66.2109 55.9016 68.0736 55.288C82.5042 50.7561 96.562 51.7922 105.395 57.4049C111.566 54.3041 119.348 52.4705 128.345 52.4407C137.342 52.4109 145.116 54.2967 151.288 57.4049C160.12 51.7922 174.186 50.7561 188.609 55.288C190.472 55.9014 192.288 56.6487 194.043 57.5242C176.266 43.9385 154.694 36.2363 132.333 35.4908Z" fill="black"/>
</g>
<defs>
<clipPath id="clip0_309_12672">
<rect width="134.168" height="50" fill="white" transform="translate(61 34)"/>
</clipPath>
</defs>
</svg>
