<svg width="256" height="120" viewBox="0 0 256 120" fill="none" xmlns="http://www.w3.org/2000/svg">
<rect width="256" height="120" fill="white"/>
<g clip-path="url(#clip0_309_12662)">
<path fill-rule="evenodd" clip-rule="evenodd" d="M93.0968 61.9623C93.8938 61.9122 94.8814 61.9122 95.4228 61.9122C99.1524 61.9122 101.158 62.5138 102.752 63.8171C103.563 64.4974 104.206 65.3557 104.631 66.3252C105.056 67.2946 105.252 68.3491 105.203 69.4066C105.241 70.4696 105.037 71.5274 104.606 72.5C104.175 73.4726 103.529 74.3346 102.717 75.0211C101.253 76.2242 99.2727 76.9009 95.4528 76.9009C93.3825 76.9009 93.0968 76.6653 93.0968 75.0211V61.9623ZM89.5576 74.8155C89.5576 76.5651 89.2368 76.931 86.5298 76.931V77.6378H96.4404C105.78 77.6378 109.063 72.8805 109.063 69.0406C109.064 67.9648 108.817 66.9033 108.341 65.9383C107.866 64.9734 107.175 64.1309 106.321 63.4762C104.376 61.8821 100.902 61.1753 96.0895 61.1753C94.8763 61.1753 93.2522 61.1753 91.5327 61.2254C90.1943 61.2756 87.4522 61.3808 86.5298 61.3808V62.0876C88.951 62.0626 89.5576 62.4787 89.5576 64.3836V74.8155Z" fill="black"/>
<path d="M111.8 62.0927C114.001 62.0676 114.412 62.6391 114.412 64.0527V74.6852C114.412 76.1741 114.317 76.9862 111.8 76.931V77.6378H120.693V76.931C118.397 76.9811 117.951 76.4598 117.951 74.4997V64.3435C117.951 62.4887 118.558 62.0977 120.693 62.0977V61.3909H111.8V62.0927Z" fill="black"/>
<path d="M124.062 77.8734H124.829C124.944 77.7693 125.08 77.6902 125.228 77.641C125.375 77.5918 125.531 77.5737 125.686 77.5877C126.578 77.5877 127.566 78.0589 129.957 78.0589C134.038 78.0589 136.81 76.2292 136.81 73.5372C136.81 68.4942 126.739 67.4515 126.739 63.9524C126.739 62.8045 127.821 61.8119 129.862 61.8119C130.956 61.8019 132.03 62.1103 132.952 62.6995C133.874 63.2887 134.605 64.1333 135.055 65.1305H136.013L135.311 61.08H134.514C134.396 61.1928 134.255 61.279 134.101 61.3326C133.948 61.3862 133.784 61.4061 133.621 61.3908C133.054 61.3669 132.489 61.2964 131.932 61.1803C131.121 61.0392 130.299 60.9688 129.476 60.9697C126.067 60.9697 123.641 62.5388 123.641 64.7846C123.641 69.3313 133.682 70.765 133.682 74.4245C133.682 75.9935 132.057 77.1165 129.731 77.1165C126.989 77.1165 125.014 75.7579 124.217 73.3567H123.26L124.062 77.8734Z" fill="black"/>
<path d="M136.775 65.4364H137.697C138.178 62.7194 138.81 62.564 140.69 62.564H145.246V74.8708C145.246 76.5953 144.735 76.9361 141.547 76.9361V77.643H152.48V76.9361C149.131 76.9361 148.781 76.6504 148.781 74.8708V62.564H153.337C155.252 62.564 155.889 62.7194 156.335 65.4364H157.257L156.686 60.9448H155.824C155.633 61.3358 155.378 61.391 153.753 61.391H140.274C139.751 61.4065 139.228 61.3813 138.71 61.3158C138.602 61.2975 138.5 61.2551 138.412 61.1917C138.323 61.1283 138.25 61.0456 138.198 60.9498H137.336L136.775 65.4364Z" fill="black"/>
<path d="M175.52 77.6377L175.996 73.5371H175.134C174.276 76.0988 173.635 76.4647 170.417 76.4647H166.877C165.248 76.4647 164.998 76.204 164.998 74.5848V69.8326H169.935C171.69 69.8326 172.101 70.0682 172.326 71.923H173.189V66.6644H172.326C172.136 68.469 171.785 68.6495 169.935 68.6495H164.998V62.5638H170.607C172.647 62.5638 173.154 62.6139 173.79 64.7595L173.951 65.3059H174.808L174.522 61.3857H158.235V62.0926C160.406 62.0926 161.453 62.1477 161.453 63.8672V75.1262C161.453 76.59 160.812 76.9309 158.235 76.9309V77.6377H175.52Z" fill="black"/>
<path d="M193.932 77.6377L196.389 73.6925H195.431C193.045 76.3594 192.849 76.4597 190.142 76.4597H186.859C185.395 76.4597 185.14 76.2491 185.14 75.1814V64.1579C185.14 62.1978 185.521 62.0926 188.964 62.0926V61.3857H178.512V62.0926C181.38 62.0424 181.605 62.5638 181.605 64.3384V74.6801C181.605 76.7454 181.064 76.9259 178.512 76.9259V77.6327H193.932" fill="black"/>
<path d="M212.32 77.6377L214.771 73.6925H213.814C211.422 76.3594 211.232 76.4597 208.525 76.4597H205.241C203.778 76.4597 203.522 76.2491 203.522 75.1814V64.1579C203.522 62.1978 203.903 62.0926 207.347 62.0926V61.3857H196.89V62.0926C199.757 62.0424 199.983 62.5638 199.983 64.3384V74.6801C199.983 76.7454 199.441 76.9259 196.89 76.9259V77.6327H212.32" fill="black"/>
<path d="M46.0552 49.3146C46.3008 47.7105 47.6594 46.5976 49.088 46.8332C50.5167 47.0688 51.4792 48.5627 51.2286 50.1668C50.9829 51.771 49.6244 52.8839 48.1957 52.6483C46.7671 52.4126 45.8096 50.9188 46.0552 49.3146Z" fill="black"/>
<path d="M52.161 50.3173C52.4066 48.7132 53.7651 47.6003 55.1938 47.8359C56.6225 48.0715 57.58 49.5604 57.3394 51.1695C57.0937 52.7787 55.7352 53.8865 54.3065 53.6509C52.8728 53.4203 51.9103 51.9265 52.161 50.3173Z" fill="black"/>
<path d="M58.2618 51.3249C58.5074 49.7207 59.8659 48.6079 61.2946 48.8435C62.7233 49.0791 63.6858 50.573 63.4401 52.1771C63.1945 53.7812 61.836 54.8941 60.4073 54.6585C58.9736 54.4229 58.0161 52.929 58.2618 51.3249Z" fill="black"/>
<path d="M54.3015 56.7539C54.5471 55.1497 55.9056 54.0368 57.3343 54.2724C58.763 54.508 59.7205 56.0019 59.4749 57.6061C59.2292 59.2152 57.8707 60.3231 56.442 60.0875C55.0133 59.8519 54.0559 58.358 54.3015 56.7539Z" fill="black"/>
<path d="M48.2057 55.7111C48.4514 54.107 49.8099 52.9941 51.2386 53.2297C52.6673 53.4653 53.6247 54.9592 53.3791 56.5633C53.1335 58.1675 51.7749 59.2803 50.3463 59.0447C48.9176 58.8091 47.9601 57.3153 48.2057 55.7111Z" fill="black"/>
<path d="M50.3463 61.9675C50.5919 60.3633 51.9504 59.2505 53.3791 59.4861C54.8078 59.7217 55.7703 61.2155 55.5196 62.8197C55.274 64.4238 53.9155 65.5367 52.4868 65.3011C51.0631 65.0655 50.1006 63.5716 50.3463 61.9675Z" fill="black"/>
<path fill-rule="evenodd" clip-rule="evenodd" d="M52.7575 78.3096C53.9456 79.1267 54.3115 79.3773 55.1387 79.8836C55.4946 80.1594 55.7001 79.8736 55.6901 79.7583C57.3293 65.311 113.655 64.2282 64.6532 30.9622C64.5379 30.877 64.4277 30.9873 64.4728 31.1227C64.934 32.5463 65.2548 35.2032 64.563 36.5818C61.846 34.4863 58.8884 32.5112 54.9933 30.0348C54.8228 29.9246 54.6273 30.09 54.7577 30.3356C61.6004 47.1892 4.04666 41.3441 52.7575 78.3096ZM57.8607 36.3411C55.4846 49.1192 16.559 45.0687 50.8275 72.1086C50.8528 72.1249 50.8725 72.1484 50.8841 72.1762C50.8958 72.2039 50.8988 72.2345 50.8927 72.264C50.8877 72.264 50.8827 72.2339 50.9027 72.1487C54.863 56.9795 92.3598 59.1501 58.2266 36.1557C58.0462 36.0504 57.9158 35.8549 57.8607 36.3411ZM53.3992 73.9283C53.9757 74.4145 53.9807 74.3744 54.3967 74.7002C62.1418 60.8094 100.506 61.9022 68.1122 37.2034C68.0489 37.8061 67.9177 38.3997 67.7212 38.9729C92.9463 60.4334 57.3293 60.6289 53.3992 73.9282V73.9283Z" fill="black"/>
</g>
<defs>
<clipPath id="clip0_309_12662">
<rect width="181.771" height="50" fill="white" transform="translate(33 30)"/>
</clipPath>
</defs>
</svg>
