<svg width="182" height="50" viewBox="0 0 182 50" fill="none" xmlns="http://www.w3.org/2000/svg">
<g clip-path="url(#clip0_309_12391)">
<path fill-rule="evenodd" clip-rule="evenodd" d="M60.0968 31.9623C60.8938 31.9122 61.8814 31.9122 62.4228 31.9122C66.1524 31.9122 68.1576 32.5138 69.7517 33.8171C70.5627 34.4974 71.2059 35.3557 71.631 36.3252C72.0562 37.2946 72.2519 38.3491 72.203 39.4066C72.2409 40.4696 72.0367 41.5274 71.606 42.5C71.1752 43.4726 70.5292 44.3346 69.7166 45.0211C68.2528 46.2242 66.2727 46.9009 62.4528 46.9009C60.3825 46.9009 60.0968 46.6653 60.0968 45.0211V31.9623ZM56.5576 44.8155C56.5576 46.5651 56.2368 46.931 53.5298 46.931V47.6378H63.4404C72.7795 47.6378 76.063 42.8805 76.063 39.0406C76.0639 37.9648 75.817 36.9033 75.3415 35.9383C74.866 34.9734 74.1746 34.1309 73.3209 33.4762C71.3759 31.8821 67.9019 31.1753 63.0895 31.1753C61.8763 31.1753 60.2522 31.1753 58.5327 31.2254C57.1943 31.2756 54.4522 31.3808 53.5298 31.3808V32.0876C55.951 32.0626 56.5576 32.4787 56.5576 34.3836V44.8155Z" fill="black"/>
<path d="M78.8 32.0927C81.0007 32.0676 81.4118 32.6391 81.4118 34.0527V44.6852C81.4118 46.1741 81.3166 46.9862 78.8 46.931V47.6378H87.693V46.931C85.3971 46.9811 84.9509 46.4598 84.9509 44.4997V34.3435C84.9509 32.4887 85.5575 32.0977 87.693 32.0977V31.3909H78.8V32.0927Z" fill="black"/>
<path d="M91.0618 47.8734H91.8288C91.9443 47.7693 92.08 47.6902 92.2275 47.641C92.375 47.5918 92.5311 47.5737 92.686 47.5877C93.5783 47.5877 94.5658 48.0589 96.957 48.0589C101.038 48.0589 103.81 46.2292 103.81 43.5372C103.81 38.4942 93.7387 37.4515 93.7387 33.9524C93.7387 32.8045 94.8215 31.8119 96.8618 31.8119C97.956 31.8019 99.0295 32.1103 99.9516 32.6995C100.874 33.2887 101.605 34.1333 102.055 35.1305H103.013L102.311 31.08H101.514C101.396 31.1928 101.255 31.279 101.101 31.3326C100.948 31.3862 100.784 31.4061 100.621 31.3908C100.054 31.3669 99.4885 31.2964 98.9321 31.1803C98.121 31.0392 97.2991 30.9688 96.4758 30.9697C93.067 30.9697 90.6407 32.5388 90.6407 34.7846C90.6407 39.3313 100.682 40.765 100.682 44.4245C100.682 45.9935 99.0574 47.1165 96.7314 47.1165C93.9893 47.1165 92.0142 45.7579 91.2172 43.3567H90.2597L91.0618 47.8734Z" fill="black"/>
<path d="M103.775 35.4364H104.697C105.178 32.7194 105.81 32.564 107.69 32.564H112.246V44.8708C112.246 46.5953 111.735 46.9361 108.547 46.9361V47.643H119.48V46.9361C116.131 46.9361 115.781 46.6504 115.781 44.8708V32.564H120.337C122.252 32.564 122.889 32.7194 123.335 35.4364H124.257L123.686 30.9448H122.824C122.633 31.3358 122.378 31.391 120.753 31.391H107.274C106.751 31.4065 106.228 31.3813 105.71 31.3158C105.602 31.2975 105.5 31.2551 105.412 31.1917C105.323 31.1283 105.25 31.0456 105.198 30.9498H104.336L103.775 35.4364Z" fill="black"/>
<path d="M142.52 47.6377L142.996 43.5371H142.134C141.276 46.0988 140.635 46.4647 137.417 46.4647H133.877C132.248 46.4647 131.998 46.204 131.998 44.5848V39.8326H136.935C138.69 39.8326 139.101 40.0682 139.326 41.923H140.189V36.6644H139.326C139.136 38.469 138.785 38.6495 136.935 38.6495H131.998V32.5638H137.607C139.647 32.5638 140.154 32.6139 140.79 34.7595L140.951 35.3059H141.808L141.522 31.3857H125.235V32.0926C127.406 32.0926 128.453 32.1477 128.453 33.8672V45.1262C128.453 46.59 127.812 46.9309 125.235 46.9309V47.6377H142.52Z" fill="black"/>
<path d="M160.932 47.6377L163.389 43.6925H162.431C160.045 46.3594 159.849 46.4597 157.142 46.4597H153.859C152.395 46.4597 152.14 46.2491 152.14 45.1814V34.1579C152.14 32.1978 152.521 32.0926 155.964 32.0926V31.3857H145.512V32.0926C148.38 32.0424 148.605 32.5638 148.605 34.3384V44.6801C148.605 46.7454 148.064 46.9259 145.512 46.9259V47.6327H160.932" fill="black"/>
<path d="M179.32 47.6377L181.771 43.6925H180.814C178.422 46.3594 178.232 46.4597 175.525 46.4597H172.241C170.778 46.4597 170.522 46.2491 170.522 45.1814V34.1579C170.522 32.1978 170.903 32.0926 174.347 32.0926V31.3857H163.89V32.0926C166.757 32.0424 166.983 32.5638 166.983 34.3384V44.6801C166.983 46.7454 166.441 46.9259 163.89 46.9259V47.6327H179.32" fill="black"/>
<path d="M13.0552 19.3146C13.3008 17.7105 14.6594 16.5976 16.088 16.8332C17.5167 17.0688 18.4792 18.5627 18.2286 20.1668C17.9829 21.771 16.6244 22.8839 15.1957 22.6483C13.7671 22.4126 12.8096 20.9188 13.0552 19.3146Z" fill="black"/>
<path d="M19.161 20.3173C19.4066 18.7132 20.7651 17.6003 22.1938 17.8359C23.6225 18.0715 24.58 19.5604 24.3394 21.1695C24.0937 22.7787 22.7352 23.8865 21.3065 23.6509C19.8728 23.4203 18.9103 21.9265 19.161 20.3173Z" fill="black"/>
<path d="M25.2618 21.3249C25.5074 19.7207 26.8659 18.6079 28.2946 18.8435C29.7233 19.0791 30.6858 20.573 30.4401 22.1771C30.1945 23.7812 28.836 24.8941 27.4073 24.6585C25.9736 24.4229 25.0161 22.929 25.2618 21.3249Z" fill="black"/>
<path d="M21.3015 26.7539C21.5471 25.1497 22.9056 24.0368 24.3343 24.2724C25.763 24.508 26.7205 26.0019 26.4749 27.6061C26.2292 29.2152 24.8707 30.3231 23.442 30.0875C22.0133 29.8519 21.0559 28.358 21.3015 26.7539Z" fill="black"/>
<path d="M15.2057 25.7111C15.4514 24.107 16.8099 22.9941 18.2386 23.2297C19.6673 23.4653 20.6247 24.9592 20.3791 26.5633C20.1335 28.1675 18.7749 29.2803 17.3463 29.0447C15.9176 28.8091 14.9601 27.3153 15.2057 25.7111Z" fill="black"/>
<path d="M17.3463 31.9675C17.5919 30.3633 18.9504 29.2505 20.3791 29.4861C21.8078 29.7217 22.7703 31.2155 22.5196 32.8197C22.274 34.4238 20.9155 35.5367 19.4868 35.3011C18.0631 35.0655 17.1006 33.5716 17.3463 31.9675Z" fill="black"/>
<path fill-rule="evenodd" clip-rule="evenodd" d="M19.7575 48.3096C20.9456 49.1267 21.3115 49.3773 22.1387 49.8836C22.4946 50.1594 22.7001 49.8736 22.6901 49.7583C24.3293 35.311 80.6549 34.2282 31.6532 0.96224C31.5379 0.87702 31.4277 0.987305 31.4728 1.12265C31.934 2.54633 32.2548 5.2032 31.563 6.58176C28.846 4.48635 25.8884 2.51124 21.9933 0.0348443C21.8228 -0.0754407 21.6273 0.0899867 21.7577 0.335621C28.6004 17.1892 -28.9533 11.3441 19.7575 48.3096ZM24.8607 6.34114C22.4846 19.1192 -16.441 15.0687 17.8275 42.1086C17.8528 42.1249 17.8725 42.1484 17.8841 42.1762C17.8958 42.2039 17.8988 42.2345 17.8927 42.264C17.8877 42.264 17.8827 42.2339 17.9027 42.1487C21.863 26.9795 59.3598 29.1501 25.2266 6.15566C25.0462 6.05039 24.9158 5.85488 24.8607 6.34114ZM20.3992 43.9283C20.9757 44.4145 20.9807 44.3744 21.3967 44.7002C29.1418 30.8094 67.5059 31.9022 35.1122 7.20337C35.0489 7.80607 34.9177 8.39969 34.7212 8.97294C59.9463 30.4334 24.3293 30.6289 20.3992 43.9282V43.9283Z" fill="black"/>
</g>
<defs>
<clipPath id="clip0_309_12391">
<rect width="181.771" height="50" fill="white"/>
</clipPath>
</defs>
</svg>
