<svg width="123" height="60" viewBox="0 0 123 60" fill="none" xmlns="http://www.w3.org/2000/svg">
<path fill-rule="evenodd" clip-rule="evenodd" d="M84.0974 5.39627L57.9121 18.9748L53.4178 16.2052L72.3971 6.41598C67.8902 4.52763 60.8932 4.6787 60.8932 4.6787C39.5926 5.68582 40.1011 16.2077 40.1011 16.2077C40.1011 18.6928 42.4754 26.561 60.8932 27.485C83.2086 26.7775 84.2434 15.4474 81.2875 12.1113L88.2316 8.43276C90.457 10.4322 91.8124 13.2225 92.0083 16.2078C92.0813 21.7923 84.684 31.4355 60.9008 32.1606C37.1528 30.7833 30.7903 21.8653 30.7173 16.2078C30.6443 10.6081 37.5154 0.781136 60.9008 0.00313176C76.6295 -0.150457 84.0974 5.39627 84.0974 5.39627Z" fill="black"/>
<path fill-rule="evenodd" clip-rule="evenodd" d="M122.705 58.9652C122.698 59.0748 122.67 59.1819 122.621 59.2804C122.573 59.3789 122.506 59.4669 122.423 59.5394C122.341 59.6119 122.245 59.6674 122.141 59.7028C122.037 59.7382 121.927 59.7529 121.818 59.7458L121.817 59.7458H116.22C116.147 59.7486 116.074 59.7426 116.003 59.7281C115.88 59.6927 115.762 59.6384 115.656 59.567C115.603 59.5292 106.138 50.0497 106.138 50.0497V58.9677C106.125 59.1859 106.027 59.3902 105.864 59.5363C105.702 59.6824 105.488 59.7586 105.27 59.7483H99.6524C99.4336 59.7593 99.2193 59.6834 99.0562 59.5373C98.893 59.3911 98.7942 59.1864 98.7812 58.9677V42.1236C98.7866 42.016 98.8132 41.9104 98.8594 41.813C98.9056 41.7156 98.9705 41.6283 99.0505 41.556C99.1304 41.4837 99.2238 41.4279 99.3253 41.3917C99.4269 41.3555 99.5345 41.3396 99.6422 41.345L99.6524 41.3456H105.272C105.38 41.3322 105.49 41.3431 105.593 41.3775C105.696 41.4119 105.791 41.469 105.869 41.5445L115.351 51.0266V42.1236C115.361 41.9068 115.457 41.703 115.618 41.557C115.778 41.4109 115.99 41.3347 116.207 41.3449L116.22 41.3456H121.839C121.947 41.3389 122.055 41.3534 122.157 41.3883C122.259 41.4232 122.353 41.4779 122.434 41.5492C122.514 41.6205 122.58 41.707 122.628 41.8038C122.675 41.9006 122.703 42.0058 122.71 42.1134L122.71 42.1236V58.9652H122.705ZM84.334 45.4068V48.3073C84.3356 48.3612 84.3478 48.4143 84.3699 48.4634C84.3919 48.5126 84.4234 48.5569 84.4627 48.5939C84.5019 48.6309 84.548 48.6598 84.5983 48.679C84.6487 48.6981 84.7024 48.7072 84.7562 48.7056L84.7671 48.7052H92.6529C92.8702 48.6916 93.0839 48.7648 93.2472 48.9088C93.4104 49.0529 93.5098 49.2558 93.5234 49.4731L93.5241 49.4857V51.6057C93.519 51.7134 93.4927 51.819 93.4468 51.9165C93.4009 52.014 93.3363 52.1016 93.2566 52.1741C93.1768 52.2466 93.0836 52.3028 92.9822 52.3393C92.8808 52.3758 92.7731 52.392 92.6655 52.3869L92.6529 52.3862H84.7671C84.7133 52.3832 84.6594 52.3908 84.6085 52.4087C84.5577 52.4265 84.5108 52.4541 84.4707 52.4901C84.4305 52.526 84.3978 52.5695 84.3744 52.6181C84.3511 52.6666 84.3375 52.7193 84.3345 52.7731L84.334 52.784V55.6845C84.3411 55.7923 84.3907 55.8929 84.4719 55.9642C84.5531 56.0355 84.6593 56.0716 84.7671 56.0647H94.506C94.6153 56.06 94.7245 56.0769 94.8273 56.1143C94.9302 56.1518 95.0246 56.2092 95.1053 56.2832C95.1859 56.3571 95.2512 56.4463 95.2974 56.5455C95.3436 56.6447 95.3698 56.752 95.3746 56.8614L95.3746 56.8629V58.9653C95.3604 59.1862 95.2591 59.3925 95.0929 59.5388C94.9268 59.6851 94.7093 59.7596 94.4883 59.7458H77.8456C77.7377 59.7522 77.6295 59.7373 77.5274 59.7019C77.4252 59.6665 77.331 59.6114 77.2501 59.5396C77.1693 59.4678 77.1034 59.3808 77.0561 59.2836C77.0089 59.1863 76.9813 59.0807 76.9749 58.9728L76.9745 58.9653V42.1236C76.9799 42.016 77.0064 41.9104 77.0526 41.813C77.0988 41.7156 77.1637 41.6283 77.2437 41.556C77.3236 41.4837 77.417 41.4279 77.5186 41.3917C77.6201 41.3555 77.7278 41.3396 77.8354 41.345L77.8456 41.3456H94.506C94.7226 41.332 94.9357 41.405 95.0984 41.5486C95.2612 41.6921 95.3603 41.8944 95.3739 42.111L95.3746 42.1236V44.2084C95.3661 44.4312 95.2701 44.6417 95.1076 44.7944C94.945 44.9471 94.7289 45.0296 94.506 45.0241H84.7671C84.662 45.0147 84.5575 45.0474 84.4765 45.1151C84.3955 45.1827 84.3448 45.2798 84.3354 45.3849C84.3347 45.3922 84.3343 45.3995 84.334 45.4068L84.334 45.4068ZM65.954 46.2578C65.954 45.86 65.5915 45.4773 64.7581 45.1878C63.6544 44.8822 62.5114 44.7422 61.3666 44.7723C60.2229 44.7486 59.0817 44.8885 57.9776 45.1878C57.1795 45.4597 56.7817 45.86 56.7817 46.2578V54.8335C56.7817 55.2313 57.1442 55.6115 57.9776 55.9011C59.0803 56.2074 60.2225 56.3483 61.3666 56.319C62.5111 56.3406 63.653 56.1999 64.7581 55.9011C65.5738 55.6291 65.954 55.2313 65.954 54.8335V53.0559C65.9463 52.9384 65.8925 52.8286 65.8044 52.7504C65.7162 52.6721 65.6009 52.6318 65.4832 52.638H62.3259C62.084 52.647 61.8481 52.5613 61.6685 52.3991C61.4889 52.2368 61.3796 52.0109 61.3641 51.7693V49.8105C61.3752 49.5705 61.4806 49.3446 61.6574 49.1819C61.8343 49.0192 62.0681 48.933 62.3082 48.9418H72.3795C72.6192 48.9336 72.8524 49.0202 73.0287 49.1828C73.2049 49.3454 73.31 49.5709 73.3211 49.8105V55.4126C73.3211 58.6203 66.868 60.0001 61.3741 60.0001C55.8803 60.0001 49.4095 58.6203 49.4095 55.4126V45.6788C49.4095 42.4686 55.8627 41.0913 61.3741 41.0913C66.8856 41.0913 73.3211 42.4685 73.3211 45.6788V46.2578C73.3094 46.4953 73.2039 46.7183 73.0277 46.878C72.8516 47.0376 72.6192 47.1207 72.3818 47.109L72.3795 47.1089H66.8932C66.7774 47.1188 66.6609 47.1054 66.5504 47.0695C66.44 47.0336 66.3379 46.9759 66.2501 46.8998C66.1623 46.8238 66.0906 46.7309 66.0393 46.6267C65.9881 46.5225 65.9582 46.4091 65.9515 46.2931V46.2578L65.954 46.2578ZM45.7587 58.9652C45.7517 59.0748 45.7231 59.1819 45.6747 59.2804C45.6263 59.3789 45.5589 59.4669 45.4765 59.5394C45.394 59.6119 45.2981 59.6674 45.1942 59.7028C45.0903 59.7382 44.9804 59.7529 44.8709 59.7458L44.8699 59.7458H39.2652C39.1926 59.7486 39.1199 59.7426 39.0487 59.7281C38.9246 59.6953 38.8077 59.6398 38.7038 59.5645C38.6308 59.5267 29.1864 50.0471 29.1864 50.0471V58.9652C29.1794 59.0748 29.1509 59.1819 29.1024 59.2804C29.054 59.3789 28.9866 59.4669 28.9042 59.5394C28.8218 59.6119 28.7259 59.6674 28.622 59.7028C28.5181 59.7382 28.4082 59.7529 28.2986 59.7458L28.2977 59.7457H22.698C22.4768 59.7602 22.2589 59.6862 22.0922 59.54C21.9256 59.3939 21.8238 59.1874 21.8093 58.9662L21.8093 58.9652V42.1236C21.8241 41.9026 21.9261 41.6966 22.0927 41.5507C22.2593 41.4049 22.4771 41.3311 22.698 41.3456H28.2876C28.3986 41.3336 28.5109 41.3451 28.6172 41.3794C28.7235 41.4137 28.8214 41.4699 28.9045 41.5445L38.3689 51.0266V42.1236C38.3838 41.9031 38.4854 41.6975 38.6515 41.5517C38.8175 41.4059 39.0346 41.3318 39.2552 41.3456H44.8573C45.0783 41.3311 45.296 41.4049 45.4626 41.5507C45.6293 41.6966 45.7312 41.9026 45.7461 42.1236V58.9652H45.7587ZM7.36211 45.4068V48.3073C7.36923 48.4171 7.41857 48.5198 7.49978 48.594C7.58098 48.6681 7.68775 48.708 7.79769 48.7052H15.6985C15.9158 48.6916 16.1296 48.7648 16.2928 48.9089C16.4561 49.0529 16.5554 49.2558 16.569 49.4731L16.5697 49.4857V51.6057C16.5555 51.8269 16.454 52.0335 16.2875 52.1798C16.121 52.3262 15.9032 52.4005 15.6819 52.3863L15.6809 52.3862H7.79514C7.6852 52.3834 7.57843 52.4232 7.49723 52.4974C7.41602 52.5715 7.36668 52.6743 7.35956 52.784V55.6845C7.37036 55.7913 7.42137 55.8901 7.50226 55.9607C7.58314 56.0313 7.68784 56.0685 7.79514 56.0647H17.5315C17.7544 56.0551 17.9721 56.1333 18.1379 56.2826C18.3036 56.4318 18.4041 56.6402 18.4178 56.8629V58.9652C18.4035 59.1862 18.3022 59.3925 18.1361 59.5388C17.9699 59.6851 17.7525 59.7596 17.5315 59.7458H0.888787C0.667552 59.7596 0.449849 59.6852 0.283292 59.5389C0.116735 59.3927 0.0148785 59.1864 0 58.9652L0 42.1236C0.0142733 41.9056 0.113559 41.702 0.276486 41.5565C0.439414 41.411 0.652958 41.3352 0.871155 41.3456H17.5315C17.7521 41.3318 17.9691 41.4059 18.1352 41.5517C18.3013 41.6975 18.4029 41.9031 18.4178 42.1236V44.2084C18.4054 44.433 18.3059 44.6439 18.1403 44.7963C17.9748 44.9486 17.7564 45.0304 17.5315 45.0241H7.79514C7.68665 45.0172 7.57986 45.0536 7.4982 45.1254C7.41654 45.1971 7.36668 45.2984 7.35956 45.4068H7.36211Z" fill="black"/>
</svg>
