<svg width="256" height="120" viewBox="0 0 256 120" fill="none" xmlns="http://www.w3.org/2000/svg">
<rect width="256" height="120" fill="white"/>
<g clip-path="url(#clip0_309_12668)">
<path d="M114.371 69.3783H110.168C109.878 69.3627 109.597 69.2784 109.346 69.1322C109.095 68.986 108.883 68.7822 108.727 68.5377L103.924 62.0534V68.1775C103.924 68.4959 103.797 68.8014 103.572 69.0265C103.347 69.2517 103.042 69.3783 102.723 69.3783H99.481C99.1823 69.3798 98.8937 69.2699 98.6717 69.07C98.4496 68.8702 98.3101 68.5948 98.2802 68.2975V44.8819C98.2802 44.5953 98.394 44.3204 98.5967 44.1177C98.7994 43.9151 99.0743 43.8012 99.3609 43.8012H102.843C102.994 43.788 103.146 43.806 103.29 43.8541C103.434 43.9021 103.566 43.9792 103.678 44.0806C103.791 44.182 103.882 44.3054 103.945 44.4433C104.007 44.5811 104.041 44.7304 104.044 44.8819V57.3702L109.328 50.8859C109.466 50.6981 109.647 50.5458 109.856 50.4414C110.065 50.337 110.295 50.2836 110.528 50.2855H114.251C115.091 50.2855 115.572 50.7658 114.971 51.7265L108.367 59.5317L115.091 68.4176C115.572 68.8979 115.091 69.3783 114.371 69.3783ZM90.1147 54.4883C91.5557 54.4883 92.9967 54.6084 94.3175 54.7285C95.1581 54.8486 95.3983 54.4883 95.3983 53.7678V51.6064C95.411 51.2921 95.3081 50.9841 95.1089 50.7406C94.9097 50.4972 94.6281 50.3352 94.3175 50.2855C92.8622 49.9416 91.3698 49.7803 89.8746 49.8052C82.3095 49.8052 81.9493 56.7698 81.7091 57.9706C81.5891 59.048 81.5891 60.1354 81.7091 61.2128C81.8292 62.5337 82.3095 69.3783 89.8746 69.3783C91.3695 69.3968 92.8612 69.2356 94.3175 68.8979C94.6259 68.8434 94.9045 68.6802 95.1028 68.4379C95.3011 68.1955 95.4059 67.8901 95.3983 67.5771V65.4156C95.3983 64.6951 95.038 64.3349 94.1975 64.455C92.8766 64.5751 91.4356 64.6951 89.9947 64.6951C88.3135 64.5751 87.3529 63.6144 87.2328 60.8526C87.1127 59.8555 87.1127 58.8476 87.2328 57.8506C87.5931 55.569 88.4336 54.4883 90.1147 54.4883ZM78.9473 51.3662C78.9605 51.2153 78.9425 51.0633 78.8944 50.9196C78.8464 50.7759 78.7693 50.6436 78.6679 50.531C78.5665 50.4184 78.4431 50.3278 78.3052 50.2649C78.1674 50.202 78.0181 50.1682 77.8666 50.1654H74.5043C74.2177 50.1654 73.9428 50.2793 73.7402 50.482C73.5375 50.6847 73.4236 50.9595 73.4236 51.2462V68.2975C73.4236 68.5842 73.5375 68.859 73.7402 69.0617C73.9428 69.2644 74.2177 69.3783 74.5043 69.3783H77.7465C78.0331 69.3783 78.308 69.2644 78.5107 69.0617C78.7134 68.859 78.8272 68.5842 78.8272 68.2975L78.9473 51.3662ZM69.9413 44.8819V71.1795C69.9117 71.9343 69.5985 72.6502 69.0643 73.1844C68.5302 73.7186 67.8142 74.0317 67.0594 74.0614H40.8819C40.1271 74.0317 39.4111 73.7186 38.877 73.1844C38.3428 72.6502 38.0296 71.9343 38 71.1795V44.8819C38.0296 44.1271 38.3428 43.4111 38.877 42.877C39.4111 42.3428 40.1271 42.0296 40.8819 42H67.1795C67.5501 42.0078 67.9155 42.0885 68.2549 42.2376C68.5943 42.3867 68.901 42.6012 69.1574 42.8688C69.4139 43.1364 69.6151 43.4519 69.7496 43.7974C69.8841 44.1428 69.9493 44.5113 69.9413 44.8819ZM65.018 54.7285C65.018 50.5257 63.6971 48.1241 61.4156 47.1634C60.1222 46.8265 58.7894 46.6649 57.453 46.6831H45.565C45.2784 46.6831 45.0035 46.797 44.8009 46.9997C44.5982 47.2023 44.4843 47.4772 44.4843 47.7638V68.1775C44.4843 68.4641 44.5982 68.739 44.8009 68.9416C45.0035 69.1443 45.2784 69.2582 45.565 69.2582H48.8072C49.0938 69.2582 49.3687 69.1443 49.5714 68.9416C49.7741 68.739 49.8879 68.4641 49.8879 68.1775V62.7739H57.453C58.7931 62.9118 60.1472 62.7476 61.4156 62.2935C63.6971 61.3329 65.018 58.9313 65.018 54.7285ZM59.3742 54.7285C59.3742 57.4903 58.5337 58.2108 56.7325 58.2108H49.8879V51.2462H56.7325C58.5337 51.2462 59.3742 51.9666 59.3742 54.7285ZM189.541 49.8052C187.597 49.808 185.662 50.05 183.777 50.5257C183.5 50.5523 183.24 50.6747 183.043 50.8719C182.845 51.0691 182.723 51.3288 182.696 51.6064V53.5277C182.696 54.2482 183.177 54.6084 184.017 54.6084C185.698 54.3682 187.26 54.2482 188.941 54.1281C191.462 54.1281 191.823 54.8486 191.823 56.1694V56.8899C189.898 56.79 187.968 56.8704 186.059 57.1301C182.937 57.7305 181.015 59.5317 181.015 63.2542C181.015 66.9767 183.537 69.3783 189.181 69.3783C191.596 69.4171 194.01 69.216 196.386 68.7779C196.685 68.6813 196.943 68.4864 197.117 68.2248C197.291 67.9632 197.372 67.6502 197.346 67.3369V56.4096C197.466 52.9273 196.866 49.8052 189.541 49.8052ZM192.063 65.2955L189.421 65.4156C187.26 65.4156 186.539 64.6951 186.539 63.014C186.539 61.3329 187.62 60.9727 188.821 60.7325C189.898 60.6124 190.985 60.6124 192.063 60.7325V65.2955ZM164.805 51.2462H158.08V58.2108H164.925C166.606 58.2108 167.566 57.4903 167.566 54.7285C167.566 51.9666 166.606 51.2462 164.805 51.2462ZM175.252 42H148.954C148.199 42.0296 147.483 42.3428 146.949 42.877C146.415 43.4111 146.102 44.1271 146.072 44.8819V71.1795C146.102 71.9343 146.415 72.6502 146.949 73.1844C147.483 73.7186 148.199 74.0317 148.954 74.0614H175.131C175.886 74.0317 176.602 73.7186 177.136 73.1844C177.671 72.6502 177.984 71.9343 178.013 71.1795V44.8819C178.011 44.1388 177.723 43.4251 177.209 42.8886C176.695 42.3521 175.994 42.0339 175.252 42V42ZM169.488 62.2935C168.194 62.6305 166.861 62.792 165.525 62.7739H157.96V68.1775C157.96 68.4641 157.846 68.739 157.643 68.9416C157.441 69.1443 157.166 69.2582 156.879 69.2582H153.637C153.35 69.2582 153.076 69.1443 152.873 68.9416C152.67 68.739 152.556 68.4641 152.556 68.1775V47.7638C152.556 47.4772 152.67 47.2023 152.873 46.9997C153.076 46.797 153.35 46.6831 153.637 46.6831H165.525C166.865 46.5452 168.219 46.7093 169.488 47.1634C171.769 48.1241 173.09 50.5257 173.09 54.7285C173.09 58.9313 171.769 61.3329 169.488 62.2935ZM218 67.8172C218 73.8212 215.478 76.5831 209.234 76.5831C207.211 76.5877 205.195 76.3457 203.23 75.8626C202.939 75.8184 202.672 75.6746 202.475 75.4556C202.278 75.2366 202.163 74.9561 202.149 74.6618V72.7405C202.121 72.6288 202.117 72.5121 202.14 72.399C202.162 72.2858 202.209 72.1792 202.279 72.0869C202.348 71.9946 202.437 71.9191 202.539 71.866C202.642 71.8128 202.755 71.7834 202.87 71.7799H203.23C205.091 72.1235 206.982 72.2844 208.874 72.2602C211.996 72.2602 212.476 71.5397 212.476 69.018C211.29 69.2567 210.084 69.3774 208.874 69.3783C203.23 69.3783 200.949 67.5771 200.949 62.4136V51.1261C200.949 50.8395 201.062 50.5646 201.265 50.3619C201.468 50.1592 201.743 50.0454 202.029 50.0454H205.272C205.558 50.0454 205.833 50.1592 206.036 50.3619C206.238 50.5646 206.352 50.8395 206.352 51.1261V62.4136C206.352 64.2148 207.313 64.9353 209.594 64.9353C210.493 64.9029 211.383 64.7411 212.236 64.455V51.006C212.236 50.7194 212.35 50.4445 212.553 50.2418C212.755 50.0391 213.03 49.9253 213.317 49.9253H216.799C217.086 49.9253 217.361 50.0391 217.563 50.2418C217.766 50.4445 217.88 50.7194 217.88 51.006L218 67.8172ZM138.627 56.7698V68.1775C138.627 68.4641 138.513 68.739 138.311 68.9416C138.108 69.1443 137.833 69.2582 137.546 69.2582H134.304C134.018 69.2582 133.743 69.1443 133.54 68.9416C133.337 68.739 133.223 68.4641 133.223 68.1775V56.8899C133.223 55.449 133.103 54.6084 130.342 54.6084C129.251 54.6095 128.164 54.7303 127.099 54.9686V68.2975C127.099 68.5842 126.986 68.859 126.783 69.0617C126.58 69.2644 126.305 69.3783 126.019 69.3783H122.536C122.25 69.3783 121.975 69.2644 121.772 69.0617C121.569 68.859 121.456 68.5842 121.456 68.2975V52.0867C121.394 51.832 121.435 51.5632 121.569 51.3385C121.704 51.1137 121.922 50.9511 122.176 50.8859C124.635 50.1744 127.181 49.8106 129.741 49.8052C136.346 49.8052 138.627 52.3269 138.627 56.7698Z" fill="black"/>
</g>
<defs>
<clipPath id="clip0_309_12668">
<rect width="180" height="34.5831" fill="white" transform="translate(38 42)"/>
</clipPath>
</defs>
</svg>
