<svg width="256" height="120" viewBox="0 0 256 120" fill="none" xmlns="http://www.w3.org/2000/svg">
<rect width="256" height="120" fill="white"/>
<path fill-rule="evenodd" clip-rule="evenodd" d="M150.097 35.3963L123.912 48.9748L119.418 46.2052L138.397 36.416C133.89 34.5276 126.893 34.6787 126.893 34.6787C105.593 35.6858 106.101 46.2077 106.101 46.2077C106.101 48.6928 108.475 56.561 126.893 57.485C149.209 56.7775 150.243 45.4474 147.287 42.1113L154.232 38.4328C156.457 40.4322 157.812 43.2225 158.008 46.2078C158.081 51.7923 150.684 61.4355 126.901 62.1606C103.153 60.7833 96.7903 51.8653 96.7173 46.2078C96.6443 40.6081 103.515 30.7811 126.901 30.0031C142.63 29.8495 150.097 35.3963 150.097 35.3963Z" fill="black"/>
<path fill-rule="evenodd" clip-rule="evenodd" d="M188.705 88.9652C188.698 89.0748 188.67 89.1819 188.621 89.2804C188.573 89.3789 188.506 89.4669 188.423 89.5394C188.341 89.6119 188.245 89.6674 188.141 89.7028C188.037 89.7382 187.927 89.7529 187.818 89.7458L187.817 89.7458H182.22C182.147 89.7486 182.074 89.7426 182.003 89.7281C181.88 89.6927 181.762 89.6384 181.656 89.567C181.603 89.5292 172.138 80.0497 172.138 80.0497V88.9677C172.125 89.1859 172.027 89.3902 171.864 89.5363C171.702 89.6824 171.488 89.7586 171.27 89.7483H165.652C165.434 89.7593 165.219 89.6834 165.056 89.5373C164.893 89.3911 164.794 89.1864 164.781 88.9677V72.1236C164.787 72.016 164.813 71.9104 164.859 71.813C164.906 71.7156 164.971 71.6283 165.05 71.556C165.13 71.4837 165.224 71.4279 165.325 71.3917C165.427 71.3555 165.535 71.3396 165.642 71.345L165.652 71.3456H171.272C171.38 71.3322 171.49 71.3431 171.593 71.3775C171.696 71.4119 171.791 71.469 171.869 71.5445L181.351 81.0266V72.1236C181.361 71.9068 181.457 71.703 181.618 71.557C181.778 71.4109 181.99 71.3347 182.207 71.3449L182.22 71.3456H187.839C187.947 71.3389 188.055 71.3534 188.157 71.3883C188.259 71.4232 188.353 71.4779 188.434 71.5492C188.514 71.6205 188.58 71.707 188.628 71.8038C188.675 71.9006 188.703 72.0058 188.71 72.1134L188.71 72.1236V88.9652H188.705ZM150.334 75.4068V78.3073C150.336 78.3612 150.348 78.4143 150.37 78.4634C150.392 78.5126 150.423 78.5569 150.463 78.5939C150.502 78.6309 150.548 78.6598 150.598 78.679C150.649 78.6981 150.702 78.7072 150.756 78.7056L150.767 78.7052H158.653C158.87 78.6916 159.084 78.7648 159.247 78.9088C159.41 79.0529 159.51 79.2558 159.523 79.4731L159.524 79.4857V81.6057C159.519 81.7134 159.493 81.819 159.447 81.9165C159.401 82.014 159.336 82.1016 159.257 82.1741C159.177 82.2466 159.084 82.3028 158.982 82.3393C158.881 82.3758 158.773 82.392 158.665 82.3869L158.653 82.3862H150.767C150.713 82.3832 150.659 82.3908 150.609 82.4087C150.558 82.4265 150.511 82.4541 150.471 82.4901C150.43 82.526 150.398 82.5695 150.374 82.6181C150.351 82.6666 150.337 82.7193 150.334 82.7731L150.334 82.784V85.6845C150.341 85.7923 150.391 85.8929 150.472 85.9642C150.553 86.0355 150.659 86.0716 150.767 86.0647H160.506C160.615 86.06 160.725 86.0769 160.827 86.1143C160.93 86.1518 161.025 86.2092 161.105 86.2832C161.186 86.3571 161.251 86.4463 161.297 86.5455C161.344 86.6447 161.37 86.752 161.375 86.8614L161.375 86.8629V88.9653C161.36 89.1862 161.259 89.3925 161.093 89.5388C160.927 89.6851 160.709 89.7596 160.488 89.7458H143.846C143.738 89.7522 143.63 89.7373 143.527 89.7019C143.425 89.6665 143.331 89.6114 143.25 89.5396C143.169 89.4678 143.103 89.3808 143.056 89.2836C143.009 89.1863 142.981 89.0807 142.975 88.9728L142.974 88.9653V72.1236C142.98 72.016 143.006 71.9104 143.053 71.813C143.099 71.7156 143.164 71.6283 143.244 71.556C143.324 71.4837 143.417 71.4279 143.519 71.3917C143.62 71.3555 143.728 71.3396 143.835 71.345L143.846 71.3456H160.506C160.723 71.332 160.936 71.405 161.098 71.5486C161.261 71.6921 161.36 71.8944 161.374 72.111L161.375 72.1236V74.2084C161.366 74.4312 161.27 74.6417 161.108 74.7944C160.945 74.9471 160.729 75.0296 160.506 75.0241H150.767C150.662 75.0147 150.557 75.0474 150.477 75.1151C150.396 75.1827 150.345 75.2798 150.335 75.3849C150.335 75.3922 150.334 75.3995 150.334 75.4068L150.334 75.4068ZM131.954 76.2578C131.954 75.86 131.591 75.4773 130.758 75.1878C129.654 74.8822 128.511 74.7422 127.367 74.7723C126.223 74.7486 125.082 74.8885 123.978 75.1878C123.179 75.4597 122.782 75.86 122.782 76.2578V84.8335C122.782 85.2313 123.144 85.6115 123.978 85.9011C125.08 86.2074 126.222 86.3483 127.367 86.319C128.511 86.3406 129.653 86.1999 130.758 85.9011C131.574 85.6291 131.954 85.2313 131.954 84.8335V83.0559C131.946 82.9384 131.892 82.8286 131.804 82.7504C131.716 82.6721 131.601 82.6318 131.483 82.638H128.326C128.084 82.647 127.848 82.5613 127.669 82.3991C127.489 82.2368 127.38 82.0109 127.364 81.7693V79.8105C127.375 79.5705 127.481 79.3446 127.657 79.1819C127.834 79.0192 128.068 78.933 128.308 78.9418H138.379C138.619 78.9336 138.852 79.0202 139.029 79.1828C139.205 79.3454 139.31 79.5709 139.321 79.8105V85.4126C139.321 88.6203 132.868 90.0001 127.374 90.0001C121.88 90.0001 115.41 88.6203 115.41 85.4126V75.6788C115.41 72.4686 121.863 71.0913 127.374 71.0913C132.886 71.0913 139.321 72.4685 139.321 75.6788V76.2578C139.309 76.4953 139.204 76.7183 139.028 76.878C138.852 77.0376 138.619 77.1207 138.382 77.109L138.379 77.1089H132.893C132.777 77.1188 132.661 77.1054 132.55 77.0695C132.44 77.0336 132.338 76.9759 132.25 76.8998C132.162 76.8238 132.091 76.7309 132.039 76.6267C131.988 76.5225 131.958 76.4091 131.951 76.2931V76.2578L131.954 76.2578ZM111.759 88.9652C111.752 89.0748 111.723 89.1819 111.675 89.2804C111.626 89.3789 111.559 89.4669 111.476 89.5394C111.394 89.6119 111.298 89.6674 111.194 89.7028C111.09 89.7382 110.98 89.7529 110.871 89.7458L110.87 89.7458H105.265C105.193 89.7486 105.12 89.7426 105.049 89.7281C104.925 89.6953 104.808 89.6398 104.704 89.5645C104.631 89.5267 95.1864 80.0471 95.1864 80.0471V88.9652C95.1794 89.0748 95.1509 89.1819 95.1024 89.2804C95.054 89.3789 94.9866 89.4669 94.9042 89.5394C94.8218 89.6119 94.7259 89.6674 94.622 89.7028C94.5181 89.7382 94.4082 89.7529 94.2986 89.7458L94.2977 89.7457H88.698C88.4768 89.7602 88.2589 89.6862 88.0922 89.54C87.9256 89.3939 87.8238 89.1874 87.8093 88.9662L87.8093 88.9652V72.1236C87.8241 71.9026 87.9261 71.6966 88.0927 71.5507C88.2593 71.4049 88.4771 71.3311 88.698 71.3456H94.2876C94.3986 71.3336 94.5109 71.3451 94.6172 71.3794C94.7235 71.4137 94.8214 71.4699 94.9045 71.5445L104.369 81.0266V72.1236C104.384 71.9031 104.485 71.6975 104.651 71.5517C104.818 71.4059 105.035 71.3318 105.255 71.3456H110.857C111.078 71.3311 111.296 71.4049 111.463 71.5507C111.629 71.6966 111.731 71.9026 111.746 72.1236V88.9652H111.759ZM73.3621 75.4068V78.3073C73.3692 78.4171 73.4186 78.5198 73.4998 78.594C73.581 78.6681 73.6877 78.708 73.7977 78.7052H81.6985C81.9158 78.6916 82.1296 78.7648 82.2928 78.9089C82.4561 79.0529 82.5554 79.2558 82.569 79.4731L82.5697 79.4857V81.6057C82.5555 81.8269 82.454 82.0335 82.2875 82.1798C82.121 82.3262 81.9032 82.4005 81.6819 82.3863L81.6809 82.3862H73.7951C73.6852 82.3834 73.5784 82.4232 73.4972 82.4974C73.416 82.5715 73.3667 82.6743 73.3596 82.784V85.6845C73.3704 85.7913 73.4214 85.8901 73.5023 85.9607C73.5831 86.0313 73.6878 86.0685 73.7951 86.0647H83.5315C83.7544 86.0551 83.9721 86.1333 84.1379 86.2826C84.3036 86.4318 84.4041 86.6402 84.4178 86.8629V88.9652C84.4035 89.1862 84.3022 89.3925 84.1361 89.5388C83.9699 89.6851 83.7525 89.7596 83.5315 89.7458H66.8888C66.6676 89.7596 66.4498 89.6852 66.2833 89.5389C66.1167 89.3927 66.0149 89.1864 66 88.9652V72.1236C66.0143 71.9056 66.1136 71.702 66.2765 71.5565C66.4394 71.411 66.653 71.3352 66.8712 71.3456H83.5315C83.7521 71.3318 83.9691 71.4059 84.1352 71.5517C84.3013 71.6975 84.4029 71.9031 84.4178 72.1236V74.2084C84.4054 74.433 84.3059 74.6439 84.1403 74.7963C83.9748 74.9486 83.7564 75.0304 83.5315 75.0241H73.7951C73.6867 75.0172 73.5799 75.0536 73.4982 75.1254C73.4165 75.1971 73.3667 75.2984 73.3596 75.4068H73.3621Z" fill="black"/>
</svg>
