<svg width="256" height="120" viewBox="0 0 256 120" fill="none" xmlns="http://www.w3.org/2000/svg">
<rect width="256" height="120" fill="white"/>
<g clip-path="url(#clip0_309_12666)">
<path d="M101.2 36.9411C101.2 36.0836 101.541 35.2612 102.147 34.6549C102.754 34.0485 103.576 33.7079 104.434 33.7079C105.291 33.7079 106.114 34.0485 106.72 34.6549C107.326 35.2612 107.667 36.0836 107.667 36.9411V40.9225H101.2V36.9411ZM96.5309 36.9138V49.5954C96.5309 51.6957 97.3652 53.7099 98.8504 55.1951C100.335 56.6802 102.35 57.5145 104.45 57.5145C106.55 57.5145 108.565 56.6802 110.05 55.1951C111.535 53.7099 112.369 51.6957 112.369 49.5954H107.678C107.678 50.4529 107.337 51.2752 106.731 51.8816C106.124 52.4879 105.302 52.8286 104.445 52.8286C103.587 52.8286 102.765 52.4879 102.158 51.8816C101.552 51.2752 101.211 50.4529 101.211 49.5954V45.5921H112.353V36.9138C112.353 34.8178 111.52 32.8077 110.038 31.3257C108.556 29.8436 106.546 29.011 104.45 29.011C102.354 29.011 100.344 29.8436 98.8619 31.3257C97.3799 32.8077 96.5473 34.8178 96.5473 36.9138" fill="black"/>
<path d="M107.683 36.9411V40.9225H101.2V36.9411C101.2 36.0836 101.541 35.2612 102.147 34.6549C102.754 34.0485 103.576 33.7079 104.434 33.7079C105.291 33.7079 106.114 34.0485 106.72 34.6549C107.326 35.2612 107.667 36.0836 107.667 36.9411H107.683ZM107.683 45.5866H112.353V36.9138C112.353 34.8178 111.52 32.8077 110.038 31.3257C108.556 29.8436 106.546 29.011 104.45 29.011C102.354 29.011 100.344 29.8436 98.8619 31.3257C97.3799 32.8077 96.5472 34.8178 96.5472 36.9138V49.5954C96.5472 51.6957 97.3816 53.7099 98.8667 55.1951C100.352 56.6802 102.366 57.5145 104.466 57.5145C106.567 57.5145 108.581 56.6802 110.066 55.1951C111.551 53.7099 112.386 51.6957 112.386 49.5954H107.678C107.678 50.4529 107.337 51.2752 106.731 51.8816C106.124 52.4879 105.302 52.8286 104.445 52.8286C103.587 52.8286 102.765 52.4879 102.158 51.8816C101.552 51.2752 101.211 50.4529 101.211 49.5954V45.5866H107.683Z" fill="black"/>
<path d="M181.867 36.9411C181.849 36.5167 181.915 36.093 182.061 35.6942C182.207 35.2954 182.431 34.9293 182.718 34.6168C183.006 34.3043 183.352 34.0516 183.738 33.873C184.123 33.6944 184.54 33.5935 184.964 33.5761C185.389 33.5586 185.812 33.625 186.211 33.7713C186.61 33.9176 186.976 34.1411 187.288 34.4289C187.6 34.7167 187.853 35.0633 188.031 35.4487C188.21 35.8342 188.31 36.251 188.328 36.6754C188.331 36.7639 188.331 36.8525 188.328 36.9411V49.5954C188.345 50.0197 188.279 50.4434 188.133 50.8422C187.987 51.241 187.764 51.6071 187.476 51.9196C187.188 52.2321 186.842 52.4849 186.457 52.6634C186.071 52.842 185.654 52.9429 185.23 52.9604C184.806 52.9778 184.382 52.9115 183.983 52.7651C183.585 52.6188 183.219 52.3954 182.906 52.1075C182.594 51.8197 182.341 51.4732 182.163 51.0877C181.985 50.7023 181.884 50.2854 181.867 49.8611C181.863 49.7725 181.863 49.684 181.867 49.5954V36.9411ZM177.197 36.9138V49.5954C177.251 51.6561 178.108 53.6142 179.585 55.0525C181.061 56.4909 183.041 57.2958 185.103 57.2958C187.164 57.2958 189.144 56.4909 190.621 55.0525C192.097 53.6142 192.954 51.6561 193.008 49.5954V36.9138C193.008 35.876 192.804 34.8483 192.407 33.8895C192.009 32.9307 191.427 32.0595 190.694 31.3257C189.96 30.5918 189.088 30.0097 188.13 29.6126C187.171 29.2154 186.143 29.011 185.105 29.011C184.068 29.011 183.04 29.2154 182.081 29.6126C181.122 30.0097 180.251 30.5918 179.517 31.3257C178.783 32.0595 178.201 32.9307 177.804 33.8895C177.407 34.8483 177.203 35.876 177.203 36.9138" fill="black"/>
<path d="M161.714 40.906V33.7187H164.953C165.81 33.7187 166.632 34.0593 167.239 34.6657C167.845 35.272 168.186 36.0944 168.186 36.9519V37.6837C168.186 38.5412 167.845 39.3636 167.239 39.9699C166.632 40.5763 165.81 40.9169 164.953 40.9169H161.714V40.906ZM161.714 29.0546H157.044V57.498H161.714V45.581H162.615C163.472 45.581 164.295 45.9217 164.901 46.528C165.508 47.1344 165.848 47.9568 165.848 48.8143V48.8252V49.5952C165.848 51.6912 166.681 53.7013 168.163 55.1834C169.645 56.6654 171.655 57.498 173.751 57.498V52.8285C172.893 52.8285 172.071 52.4878 171.465 51.8815C170.858 51.2751 170.518 50.4527 170.518 49.5952V48.8252C170.52 47.2364 170.04 45.6844 169.141 44.3741C170.256 43.6765 171.178 42.7116 171.825 41.5671C172.471 40.4226 172.822 39.1346 172.844 37.8203V36.728C172.79 34.6701 171.935 32.7145 170.461 31.2773C168.988 29.8402 167.011 29.0349 164.953 29.0327H161.714" fill="black"/>
<path d="M87.1917 29.0327V49.5952C87.1917 51.3812 86.3342 52.8285 84.7231 52.8285C83.112 52.8285 82.26 51.3812 82.26 49.5952V29.0327H77.5958V49.5952C77.5958 51.3812 76.7384 52.8285 75.1273 52.8285C73.5161 52.8285 72.6641 51.3812 72.6641 49.5952V29.0327H68V49.5952C68 53.9644 71.1895 57.498 75.0999 57.498C75.9978 57.4911 76.8852 57.3043 77.7097 56.9488C78.5342 56.5933 79.2792 56.0762 79.9006 55.4281C80.5214 56.0756 81.2655 56.5923 82.089 56.9478C82.9125 57.3032 83.7988 57.4903 84.6958 57.498C88.6335 57.498 91.8285 53.959 91.8285 49.5952V29.0327H87.1917Z" fill="black"/>
<path d="M116.547 36.9411C116.549 38.9661 117.332 40.9124 118.732 42.3753L126.957 47.5255C127.288 47.9236 127.519 48.3955 127.63 48.9015C127.741 49.4075 127.729 49.9327 127.594 50.433C127.46 50.9332 127.207 51.3939 126.857 51.7761C126.508 52.1583 126.071 52.4509 125.585 52.6292C125.099 52.8076 124.577 52.8665 124.063 52.801C123.549 52.7355 123.058 52.5475 122.632 52.2528C122.206 51.9581 121.857 51.5654 121.615 51.1076C121.372 50.6499 121.243 50.1406 121.239 49.6227V47.6347H116.547V49.6227C116.554 50.9106 116.875 52.1774 117.483 53.3128C118.092 54.4482 118.968 55.4177 120.036 56.137C121.105 56.8563 122.333 57.3036 123.614 57.4399C124.894 57.5761 126.189 57.3973 127.385 56.919C128.581 56.4406 129.642 55.6773 130.475 54.6953C131.308 53.7133 131.889 52.5425 132.167 51.2848C132.445 50.0271 132.411 48.7206 132.068 47.479C131.725 46.2375 131.084 45.0985 130.201 44.1612C130.201 44.1612 122.555 39.7264 122.009 39.011C121.677 38.612 121.445 38.1388 121.335 37.6316C121.224 37.1243 121.237 36.5979 121.373 36.0968C121.509 35.5957 121.763 35.1347 122.115 34.7527C122.467 34.3708 122.905 34.0791 123.393 33.9024C123.881 33.7257 124.405 33.6691 124.92 33.7375C125.434 33.8059 125.925 33.9972 126.35 34.2953C126.775 34.5933 127.122 34.9894 127.362 35.4499C127.601 35.9104 127.727 36.4219 127.727 36.9411V38.9291H132.331V36.8919C132.328 35.8541 132.12 34.827 131.72 33.8694C131.32 32.9117 130.735 32.0423 129.999 31.3107C129.263 30.5791 128.39 29.9996 127.43 29.6054C126.47 29.2112 125.441 29.01 124.404 29.0132C123.366 29.0164 122.339 29.2241 121.381 29.6242C120.423 30.0244 119.554 30.6093 118.822 31.3454C118.091 32.0816 117.512 32.9547 117.117 33.9148C116.723 34.8749 116.522 35.9032 116.525 36.9411" fill="black"/>
<path d="M127.683 38.9236H132.331V36.8919C132.32 35.6051 131.995 34.3406 131.384 33.2081C130.772 32.0756 129.894 31.1095 128.825 30.3936C127.756 29.6778 126.528 29.2338 125.248 29.1004C123.968 28.967 122.675 29.1482 121.481 29.6282C120.287 30.1081 119.228 30.8724 118.397 31.8545C117.565 32.8367 116.986 34.007 116.71 35.2638C116.434 36.5206 116.468 37.8258 116.811 39.0661C117.154 40.3064 117.795 41.4442 118.677 42.3807L126.902 47.5309C127.234 47.9292 127.465 48.4014 127.576 48.9076C127.686 49.4139 127.674 49.9394 127.539 50.4398C127.404 50.9402 127.151 51.4009 126.801 51.7831C126.451 52.1652 126.015 52.4576 125.528 52.6357C125.041 52.8137 124.519 52.8721 124.005 52.8061C123.491 52.74 123 52.5513 122.574 52.2559C122.149 51.9606 121.8 51.5672 121.558 51.1089C121.316 50.6506 121.188 50.1409 121.184 49.6227V47.6347H116.547V49.6227C116.554 50.9106 116.875 52.1774 117.484 53.3128C118.092 54.4482 118.968 55.4177 120.036 56.137C121.105 56.8563 122.333 57.3036 123.614 57.4398C124.894 57.5761 126.189 57.3973 127.385 56.919C128.581 56.4406 129.642 55.6772 130.475 54.6953C131.309 53.7133 131.889 52.5425 132.167 51.2848C132.445 50.0271 132.411 48.7206 132.068 47.479C131.725 46.2375 131.084 45.0985 130.201 44.1612C130.201 44.1612 122.555 39.7264 122.009 39.011C121.677 38.6119 121.445 38.1388 121.335 37.6316C121.224 37.1243 121.237 36.5979 121.373 36.0968C121.509 35.5957 121.763 35.1347 122.115 34.7527C122.467 34.3707 122.905 34.0791 123.393 33.9024C123.881 33.7257 124.405 33.6691 124.92 33.7375C125.434 33.8059 125.925 33.9972 126.35 34.2952C126.775 34.5933 127.122 34.9893 127.362 35.4499C127.601 35.9104 127.727 36.4219 127.727 36.9411L127.683 38.9236Z" fill="black"/>
<path d="M136.351 36.9192V49.5953C136.351 50.6331 136.555 51.6608 136.952 52.6196C137.349 53.5784 137.931 54.4496 138.665 55.1834C139.399 55.9173 140.27 56.4994 141.229 56.8965C142.188 57.2937 143.216 57.4981 144.253 57.4981C145.291 57.4981 146.319 57.2937 147.278 56.8965C148.237 56.4994 149.108 55.9173 149.842 55.1834C150.575 54.4496 151.158 53.5784 151.555 52.6196C151.952 51.6608 152.156 50.6331 152.156 49.5953V43.2545H144.658V47.9241H147.492V49.5953C147.493 50.4528 147.153 51.2755 146.547 51.8823C145.941 52.4891 145.119 52.8305 144.262 52.8312C143.404 52.8319 142.581 52.4919 141.975 51.8861C141.368 51.2802 141.026 50.4581 141.026 49.6006V49.5953V36.941C141.025 36.5164 141.109 36.0959 141.271 35.7035C141.433 35.3111 141.671 34.9545 141.971 34.654C142.271 34.3535 142.627 34.1151 143.019 33.9523C143.411 33.7895 143.832 33.7055 144.256 33.7052C144.681 33.7048 145.101 33.7881 145.494 33.9503C145.886 34.1124 146.243 34.3503 146.543 34.6503C146.844 34.9502 147.082 35.3065 147.245 35.6986C147.408 36.0908 147.492 36.5111 147.492 36.9357V36.941V38.9126H152.162V36.9028C152.162 34.8068 151.329 32.7967 149.847 31.3147C148.365 29.8326 146.355 29 144.259 29C142.163 29 140.153 29.8326 138.671 31.3147C137.189 32.7967 136.356 34.8068 136.356 36.9028" fill="black"/>
<path d="M122.626 70.7859C123.232 70.3817 123.866 69.77 123.866 68.9945C123.858 68.614 123.699 68.2523 123.425 67.9886C123.15 67.7249 122.782 67.5809 122.402 67.5882C122.022 67.5954 121.659 67.7533 121.395 68.0272C121.131 68.3011 120.986 68.6686 120.993 69.0491C121.016 69.6595 121.259 70.241 121.676 70.6876C120.813 71.2337 120.201 71.7799 120.201 72.8722C120.179 73.154 120.219 73.4371 120.318 73.702C120.416 73.967 120.571 74.2074 120.772 74.4067C120.972 74.6061 121.213 74.7596 121.479 74.8567C121.744 74.9539 122.027 74.9923 122.309 74.9694C122.637 74.9771 122.962 74.9068 123.257 74.7644C123.552 74.622 123.81 74.4114 124.008 74.1501L124.461 74.811H125.428L124.477 73.4784C124.798 72.8633 124.975 72.1837 124.996 71.4904H124.286C124.256 71.949 124.162 72.4012 124.008 72.8339L122.626 70.7859ZM122.282 70.2397C121.976 69.8692 121.787 69.4173 121.736 68.9399C121.726 68.8436 121.737 68.7463 121.768 68.6545C121.798 68.5628 121.848 68.4786 121.914 68.4076C121.98 68.3366 122.06 68.2804 122.149 68.2428C122.238 68.2051 122.335 68.1868 122.431 68.1892C122.528 68.1915 122.623 68.2144 122.711 68.2563C122.798 68.2983 122.875 68.3583 122.937 68.4324C123 68.5064 123.046 68.5929 123.072 68.6861C123.098 68.7792 123.104 68.8769 123.09 68.9726C123.072 69.2332 122.99 69.4853 122.851 69.7063C122.711 69.9274 122.52 70.1106 122.293 70.2397H122.282ZM123.598 73.5166C123.461 73.7093 123.284 73.8694 123.078 73.9855C122.872 74.1016 122.643 74.1709 122.407 74.1884C122.227 74.2024 122.045 74.178 121.874 74.1167C121.703 74.0553 121.548 73.9585 121.417 73.8326C121.286 73.7067 121.184 73.5545 121.117 73.3861C121.049 73.2178 121.018 73.037 121.026 72.8558C121.03 72.5188 121.125 72.1893 121.3 71.9012C121.474 71.6131 121.723 71.377 122.02 71.2173L123.598 73.5166Z" fill="black"/>
<path d="M191.25 72.5773C191.31 73.3583 191.053 74.2158 190.114 74.2158C188.737 74.2158 188.901 72.4353 188.874 71.485H192.216C192.167 69.8793 192.287 67.7767 190.064 67.7767C188.246 67.7767 187.88 69.9613 187.88 71.3867C187.88 74.1611 188.808 75.0241 190.108 75.0241C191.555 75.0241 192.249 73.899 192.189 72.55L191.25 72.5773ZM188.874 70.7095C188.912 69.8957 188.934 68.6341 190.075 68.6341C191.217 68.6341 191.168 69.9066 191.2 70.7095H188.874ZM182.762 74.1502C182.894 74.422 183.101 74.6504 183.358 74.8082C183.616 74.966 183.913 75.0466 184.215 75.0405C186.067 75.0405 186.4 72.9159 186.4 70.9607C186.4 69.5516 185.892 67.793 184.15 67.793C183.848 67.8045 183.554 67.8993 183.303 68.067C183.051 68.2348 182.851 68.4688 182.724 68.7433V67.9787H181.779V77.1814H182.757L182.762 74.1502ZM185.411 71.3048C185.411 73.1617 185.089 74.2212 184.073 74.2212C182.73 74.2212 182.762 72.3698 182.762 71.414C182.762 70.4583 182.762 68.6341 184.062 68.6341C185.362 68.6341 185.411 70.4036 185.411 71.3048ZM180.316 74.1502C180.176 74.172 180.034 74.172 179.895 74.1502C179.699 74.0465 179.72 73.8007 179.72 73.6041V69.6718C179.72 69.5134 179.895 67.804 177.853 67.804C176.471 67.804 175.766 68.4211 175.815 69.8466H176.689C176.689 69.0383 176.804 68.6341 177.694 68.6341C178.486 68.6341 178.786 68.929 178.786 69.7264C178.786 70.0814 178.786 70.3545 178.601 70.5183C178.481 70.6166 177.093 71.1355 176.536 71.3812C176.226 71.532 175.966 71.7709 175.791 72.0681C175.615 72.3653 175.53 72.7076 175.548 73.0525C175.548 74.3031 175.941 75.0678 177.317 75.0678C177.648 75.0489 177.967 74.9361 178.235 74.7426C178.504 74.5492 178.713 74.283 178.836 73.9755H178.863C178.961 74.9148 179.273 74.9913 180.097 74.9531C180.171 74.9315 180.245 74.915 180.321 74.9039L180.316 74.1502ZM178.71 72.8231C178.748 73.1541 178.653 73.4866 178.446 73.7475C178.239 74.0084 177.936 74.1763 177.605 74.2143C177.577 74.2176 177.548 74.2199 177.519 74.2212C176.727 74.2212 176.558 73.7788 176.558 73.0852C176.533 72.8508 176.577 72.6142 176.684 72.404C176.79 72.1937 176.955 72.0188 177.159 71.9001C177.705 71.6489 178.224 71.4413 178.71 71.1573V72.8231ZM172.326 68.6341C173.254 68.6341 173.451 69.3987 173.462 70.1524H174.384C174.384 68.8799 173.729 67.804 172.342 67.804C170.239 67.804 169.966 69.8302 169.966 71.5123C169.966 73.2982 170.267 75.0514 172.369 75.0514C173.904 75.0514 174.395 73.7898 174.434 72.4681H173.505C173.456 73.3092 173.358 74.2212 172.293 74.2212C171.042 74.2212 170.982 72.6265 170.982 71.7253C170.982 70.8242 170.911 68.6341 172.331 68.6341H172.326ZM162.992 67.9897H162.042V74.8657H163.019V70.2671C162.994 70.0412 163.02 69.8125 163.097 69.5985C163.173 69.3845 163.298 69.191 163.462 69.0328C163.723 68.7868 164.069 68.6501 164.428 68.6505C165.22 68.6505 165.455 69.1311 165.455 69.8466V74.8821H166.433V69.579C166.433 68.3665 165.761 67.8204 164.734 67.8204C164.393 67.8244 164.058 67.9123 163.759 68.0761C163.46 68.2399 163.206 68.4746 163.019 68.7597H162.992V67.9897ZM158.715 67.9897H157.771V74.8657H158.748V70.6986C158.748 69.4479 159.491 68.656 160.753 68.8799V67.9405C160.328 67.866 159.892 67.9464 159.522 68.1669C159.152 68.3875 158.874 68.7335 158.737 69.142L158.715 67.9897ZM154.952 72.5773C155.013 73.3583 154.756 74.2158 153.817 74.2158C152.44 74.2158 152.604 72.4353 152.577 71.485H155.919C155.87 69.8793 155.99 67.7767 153.767 67.7767C151.949 67.7767 151.583 69.9613 151.583 71.3867C151.583 74.1611 152.506 75.0241 153.806 75.0241C155.253 75.0241 155.946 73.899 155.886 72.55L154.952 72.5773ZM152.577 70.7095C152.615 69.8957 152.642 68.6341 153.778 68.6341C154.914 68.6341 154.871 69.9066 154.903 70.7095H152.577ZM149.376 66.1218H148.41V67.9897H147.459V68.8198H148.41V73.7352C148.41 74.7728 148.841 74.8711 149.425 74.8602H150.518V74.0301H149.862C149.316 74.0301 149.404 73.7352 149.404 73.4839V68.8198H150.54V67.9897H149.393L149.376 66.1218ZM146.307 69.8302C146.307 68.4211 145.542 67.804 144.182 67.804C143.918 67.7829 143.653 67.8181 143.403 67.9073C143.153 67.9965 142.926 68.1376 142.735 68.3214C142.544 68.5052 142.394 68.7274 142.295 68.9733C142.196 69.2193 142.151 69.4834 142.162 69.7483C142.162 70.9443 142.784 71.3048 143.844 71.698C144.554 71.9984 145.542 72.0858 145.542 73.0634C145.542 73.9045 144.996 74.2212 144.232 74.2212C143.314 74.2212 143.03 73.6751 143.068 72.8613H142.162C142.101 73.3833 142.237 73.9092 142.544 74.3359C142.754 74.5798 143.017 74.7714 143.314 74.8956C143.611 75.0198 143.932 75.0731 144.253 75.0514C145.662 75.0514 146.575 74.2485 146.575 72.9378C146.575 71.627 145.586 71.4031 144.598 70.9552C143.931 70.6713 143.199 70.562 143.199 69.6718C143.199 68.9563 143.598 68.6341 144.292 68.6341C145.122 68.6341 145.422 69.0164 145.384 69.8302H146.307ZM139.791 72.5609C139.851 73.3419 139.589 74.1994 138.65 74.1994C137.279 74.1994 137.437 72.4189 137.416 71.4686H140.753C140.703 69.863 140.829 67.7603 138.601 67.7603C136.782 67.7603 136.416 69.9449 136.416 71.3703C136.416 74.1448 137.345 75.0077 138.644 75.0077C140.092 75.0077 140.78 73.8826 140.72 72.5336L139.791 72.5609ZM137.416 70.6931C137.454 69.8793 137.476 68.6177 138.612 68.6177C139.748 68.6177 139.704 69.8903 139.742 70.6931H137.416ZM131.998 67.9623H130.982L129.89 74.0082H129.862L128.617 67.9897H127.601L129.371 74.8657H130.381L131.474 68.8198L132.637 74.8657H133.653L135.373 67.9897H134.357L133.156 74.0355L131.998 67.9623ZM113.729 67.9623H112.779V74.8384H113.762V70.2671C113.734 70.0386 113.759 69.8067 113.836 69.5896C113.912 69.3726 114.039 69.1763 114.204 69.0164C114.466 68.7704 114.812 68.6337 115.171 68.6341C115.963 68.6341 116.198 69.1147 116.198 69.8302V74.8657H117.175V69.579C117.175 68.3665 116.509 67.8204 115.482 67.8204C115.142 67.8218 114.807 67.9066 114.507 68.0676C114.207 68.2285 113.951 68.4605 113.762 68.7433L113.729 67.9623ZM108.005 67.9623H106.984L105.892 74.0082L104.619 67.9897H103.609L105.379 74.8657H106.389L107.481 68.8198L108.644 74.8657H109.66L111.375 67.9897H110.387L109.185 74.0355L108.005 67.9623ZM101.479 71.5014C101.479 73.1398 101.195 74.2321 100.032 74.2321C98.8684 74.2321 98.5844 73.1398 98.5844 71.5014C98.5844 69.426 99.0322 68.6341 100.032 68.6341C101.031 68.6341 101.479 69.426 101.479 71.5014ZM102.495 71.2174C102.495 69.1366 101.725 67.8258 100.032 67.8258C98.3386 67.8258 97.574 69.1366 97.574 71.2174C97.574 74.183 98.5462 75.0732 100.032 75.0732C101.517 75.0732 102.495 74.1939 102.495 71.2174ZM95.2857 66.1437H94.319V68.0115H93.3687V68.8416H94.319V73.757C94.319 74.7947 94.7504 74.893 95.3348 74.8821H96.4271V74.0519H95.739C95.1928 74.0519 95.2802 73.757 95.2802 73.5058V68.8198H96.4162V67.9897H95.2693L95.2857 66.1437ZM89.8242 72.5992C89.8842 73.3802 89.6275 74.2376 88.6827 74.2376C87.3119 74.2376 87.4757 72.4572 87.4484 71.5069H90.7854C90.7362 69.9012 90.8618 67.7985 88.6336 67.7985C86.8203 67.7985 86.449 69.9831 86.449 71.4086C86.449 74.183 87.3774 75.0459 88.6772 75.0459C90.1245 75.0459 90.8182 73.9208 90.7526 72.5719L89.8242 72.5992ZM87.4484 70.7313C87.4866 69.9176 87.5085 68.656 88.6499 68.656C89.7914 68.656 89.7422 69.9285 89.775 70.7313H87.4484ZM81.337 74.1721C81.4725 74.4415 81.6824 74.6665 81.9418 74.8204C82.2012 74.9743 82.4992 75.0507 82.8007 75.0405C84.6576 75.0405 84.9853 72.9159 84.9853 70.9607C84.9853 69.5516 84.4774 67.793 82.7297 67.793C82.4285 67.8055 82.1365 67.9008 81.886 68.0684C81.6355 68.2361 81.436 68.4696 81.3097 68.7433V67.9787H80.3648V77.1814H81.3425L81.337 74.1721ZM83.9858 71.3266C83.9858 73.1835 83.6636 74.2431 82.6478 74.2431C81.2988 74.2431 81.337 72.3916 81.337 71.4359C81.337 70.4801 81.337 68.656 82.6368 68.656C83.9367 68.656 83.9858 70.4255 83.9858 71.3266ZM78.8902 74.1721C78.7509 74.1939 78.609 74.1939 78.4697 74.1721C78.2731 74.0683 78.2949 73.8225 78.2949 73.6259V69.6718C78.2949 69.5134 78.4697 67.804 76.4271 67.804C75.0454 67.804 74.3354 68.4211 74.3845 69.8466H75.2638C75.2638 69.0383 75.3785 68.6341 76.2687 68.6341C77.0606 68.6341 77.361 68.929 77.361 69.7264C77.361 70.0814 77.361 70.3545 77.1753 70.5183C77.0497 70.6166 75.668 71.1355 75.1109 71.3812C74.7998 71.5314 74.54 71.7702 74.3641 72.0675C74.1883 72.3648 74.1041 72.7075 74.1224 73.0525C74.1224 74.3031 74.5156 75.0678 75.8919 75.0678C76.2226 75.0489 76.5411 74.9361 76.81 74.7426C77.079 74.5492 77.2871 74.283 77.4102 73.9755H77.4375C77.5358 74.9148 77.8416 74.9913 78.6718 74.9531C78.7452 74.9315 78.82 74.915 78.8957 74.9039L78.8902 74.1721ZM77.2791 72.8449C77.3112 73.1765 77.2103 73.5073 76.9985 73.7645C76.7868 74.0217 76.4815 74.1842 76.1499 74.2163C76.1258 74.2186 76.1017 74.2203 76.0776 74.2212C75.2857 74.2212 75.1109 73.7788 75.1109 73.0852C75.0874 72.8503 75.1321 72.6136 75.2396 72.4035C75.3471 72.1933 75.5129 72.0185 75.7171 71.9001C76.236 71.6489 76.7821 71.4413 77.2627 71.1573L77.2791 72.8449ZM70.9055 68.6341C71.834 68.6341 72.0306 69.3987 72.0415 70.1524H72.9591C72.9591 68.8799 72.3037 67.804 70.9165 67.804C68.8138 67.804 68.5407 69.8302 68.5407 71.5123C68.5407 73.2982 68.8411 75.0514 70.9438 75.0514C72.473 75.0514 72.97 73.7898 73.0082 72.4681H72.0798C72.0306 73.3092 71.9323 74.2212 70.8673 74.2212C69.6166 74.2212 69.5565 72.6265 69.5565 71.7253C69.5565 70.8242 69.4801 68.6341 70.9055 68.6341Z" fill="black"/>
<path d="M191.348 79.5788H190.48V81.25H189.628V81.9873H190.48V86.3565C190.48 87.285 190.873 87.3724 191.392 87.3615H192.358V86.6242H191.768C191.282 86.6242 191.359 86.3565 191.359 86.149V81.96H192.407V81.2227H191.375L191.348 79.5788ZM185.308 81.25H184.456V87.3888H185.308V83.2817C185.285 83.0812 185.31 82.8784 185.379 82.6889C185.448 82.4995 185.56 82.3285 185.706 82.1894C185.938 81.9672 186.248 81.8439 186.569 81.8453C187.285 81.8453 187.492 82.2768 187.492 82.9376V87.4325H188.371V82.6973C188.4 82.4884 188.38 82.2757 188.315 82.0753C188.249 81.8749 188.138 81.6921 187.992 81.5406C187.845 81.3892 187.666 81.273 187.468 81.2009C187.269 81.1288 187.057 81.1027 186.848 81.1244C186.546 81.1229 186.248 81.1946 185.979 81.3335C185.711 81.4724 185.481 81.6743 185.308 81.9218V81.25ZM181.9 85.3462C181.954 86.0398 181.725 86.8153 180.878 86.8153C179.644 86.8153 179.786 85.226 179.786 84.3959H182.784C182.741 82.9595 182.85 81.0807 180.851 81.0807C179.212 81.0807 178.874 83.0141 178.874 84.3085C178.874 86.7825 179.704 87.5526 180.873 87.5526C182.173 87.5526 182.795 86.5477 182.741 85.368L181.9 85.3462ZM179.77 83.6804C179.802 82.9486 179.824 81.8235 180.862 81.8235C181.9 81.8235 181.839 82.9595 181.872 83.6804H179.77ZM171.108 83.2817C171.082 83.0829 171.102 82.8807 171.167 82.6912C171.233 82.5016 171.341 82.3299 171.484 82.1894C171.719 81.9674 172.03 81.8441 172.353 81.8453C173.063 81.8453 173.276 82.2768 173.276 82.9376V87.4325H174.15V83.3254C174.129 83.1245 174.154 82.9215 174.224 82.7321C174.294 82.5427 174.407 82.372 174.554 82.2331C174.775 82.0216 175.067 81.8991 175.373 81.889C176.127 81.889 176.318 82.2768 176.318 82.9813V87.4761H177.197V83.0359C177.266 82.5262 177.131 82.0099 176.82 81.5996C176.508 81.3201 176.103 81.1664 175.684 81.1681C175.349 81.1665 175.019 81.256 174.73 81.4273C174.442 81.5985 174.205 81.845 174.046 82.1403C173.919 81.8551 173.713 81.6122 173.453 81.4399C173.193 81.2677 172.889 81.1734 172.577 81.1681C172.278 81.1741 171.987 81.2566 171.73 81.4077C171.472 81.5588 171.258 81.7734 171.108 82.031V81.25H170.261V87.3888H171.108V83.2817ZM167.787 79.5788H166.919V81.25H166.067V81.9873H166.919V86.3565C166.919 87.285 167.306 87.3724 167.831 87.3615H168.797V86.6242H168.208C167.721 86.6242 167.798 86.3565 167.798 86.149V81.96H168.819V81.2227H167.787V79.5788ZM164.92 82.8939C164.92 81.6378 164.232 81.0807 163.008 81.0807C162.772 81.062 162.535 81.0936 162.312 81.1733C162.089 81.253 161.885 81.379 161.714 81.5431C161.543 81.7072 161.409 81.9056 161.321 82.1252C161.232 82.3449 161.191 82.5808 161.2 82.8175C161.2 83.9098 161.747 84.2102 162.708 84.5597C163.341 84.8273 164.232 84.9038 164.232 85.7776C164.232 86.5258 163.767 86.8153 163.052 86.8153C162.233 86.8153 161.96 86.3511 162.009 85.6028H161.179C161.126 86.0674 161.248 86.5349 161.523 86.9136C161.71 87.1316 161.946 87.3029 162.212 87.4138C162.477 87.5247 162.765 87.5722 163.052 87.5526C164.319 87.5526 165.144 86.8372 165.144 85.6684C165.144 84.4996 164.253 84.2976 163.363 83.8989C162.768 83.6476 162.113 83.5439 162.113 82.7519C162.113 82.113 162.468 81.8235 163.09 81.8235C163.833 81.8235 164.101 82.1676 164.068 82.9158L164.92 82.8939ZM158.956 85.3462C159.01 86.0398 158.776 86.8153 157.934 86.8153C156.7 86.8153 156.842 85.226 156.842 84.3959H159.846C159.797 82.9595 159.912 81.0807 157.913 81.0807C156.274 81.0807 155.936 83.0141 155.936 84.3085C155.936 86.7825 156.766 87.5526 157.934 87.5526C159.234 87.5526 159.857 86.5477 159.797 85.368L158.956 85.3462ZM156.82 83.6804C156.853 82.9486 156.88 81.8235 157.913 81.8235C158.945 81.8235 158.89 82.9595 158.923 83.6804H156.82ZM152.145 87.3888H153.101L154.958 81.25H154.046L152.648 86.6515L151.244 81.25H150.332L152.145 87.3888ZM145.985 81.25H145.127V87.3888H145.985V83.2817C145.963 83.0812 145.987 82.8784 146.056 82.6889C146.125 82.4995 146.237 82.3285 146.383 82.1894C146.618 81.9674 146.929 81.8441 147.252 81.8453C147.962 81.8453 148.175 82.2768 148.175 82.9376V87.4325H149.054V82.6973C149.083 82.4884 149.063 82.2757 148.997 82.0753C148.932 81.8749 148.821 81.6921 148.674 81.5406C148.528 81.3892 148.348 81.273 148.15 81.2009C147.952 81.1288 147.74 81.1027 147.53 81.1244C147.228 81.1229 146.929 81.1947 146.66 81.3335C146.391 81.4723 146.159 81.6742 145.985 81.9218V81.25ZM143.199 79.1091H142.32V80.2014H143.199V79.1091ZM143.199 81.25H142.32V87.3888H143.199V81.25ZM130.201 85.3462C130.256 86.0398 130.021 86.8153 129.18 86.8153C127.945 86.8153 128.087 85.226 128.087 84.3959H131.091C131.042 82.9595 131.157 81.0807 129.158 81.0807C127.519 81.0807 127.181 83.0141 127.181 84.3085C127.181 86.7825 128.011 87.5526 129.18 87.5526C130.48 87.5526 131.102 86.5477 131.042 85.368L130.201 85.3462ZM128.066 83.6804C128.104 82.9486 128.126 81.8235 129.158 81.8235C130.19 81.8235 130.135 82.9595 130.168 83.6804H128.066ZM124.625 81.8781C124.478 81.6321 124.269 81.4291 124.019 81.2891C123.768 81.1492 123.486 81.0774 123.199 81.0807C121.878 81.0807 121.282 82.5062 121.348 84.3085C121.348 84.8546 121.211 87.5526 123.156 87.5526C123.478 87.5798 123.8 87.4998 124.071 87.3249C124.343 87.1501 124.549 86.8902 124.658 86.5859V87.3888H125.504V79.1091H124.625V81.8781ZM124.625 84.9802C124.625 85.6793 124.368 86.8153 123.456 86.8153C122.26 86.8153 122.211 85.6138 122.211 84.2866C122.211 82.397 122.691 81.8235 123.423 81.8235C124.603 81.8235 124.625 83.38 124.625 84.2211V84.9802ZM120.157 86.7498C120.033 86.7716 119.905 86.7716 119.78 86.7498C119.6 86.6624 119.628 86.4385 119.628 86.2855V82.7629C119.628 82.6209 119.78 81.0917 117.945 81.0917C116.706 81.0917 116.072 81.6378 116.116 82.9158H116.902C116.902 82.2003 117.006 81.8235 117.803 81.8235C118.513 81.8235 118.781 82.0856 118.781 82.7847C118.781 83.1069 118.781 83.3309 118.612 83.4892C118.502 83.5766 117.257 84.0354 116.76 84.2648C116.481 84.3973 116.247 84.6098 116.089 84.8752C115.93 85.1406 115.854 85.4471 115.87 85.7558C115.87 86.8481 116.225 87.5526 117.459 87.5526C117.758 87.5359 118.046 87.4332 118.289 87.2569C118.531 87.0806 118.717 86.8381 118.825 86.5586C118.918 87.3997 119.191 87.4652 119.917 87.4325C119.981 87.4127 120.047 87.3981 120.114 87.3888L120.157 86.7498ZM118.677 85.5646C118.694 85.7114 118.681 85.8601 118.64 86.002C118.599 86.144 118.531 86.2765 118.439 86.392C118.347 86.5076 118.233 86.6038 118.103 86.6752C117.974 86.7467 117.832 86.792 117.685 86.8085C117.652 86.8123 117.618 86.8145 117.585 86.8153C116.869 86.8153 116.717 86.4166 116.717 85.7995C116.695 85.5889 116.735 85.3767 116.832 85.1886C116.929 85.0005 117.079 84.8447 117.263 84.7399C117.727 84.516 118.218 84.3303 118.65 84.0736L118.677 85.5646ZM113.216 81.25H112.369V87.3888H113.249V83.6695C113.249 82.5772 113.915 81.8453 115.051 82.031V81.1736C114.668 81.1118 114.276 81.1876 113.944 81.3876C113.612 81.5876 113.362 81.8988 113.238 82.2659L113.216 81.25ZM109.873 79.5788H108.999V81.25H108.147V81.9873H108.999V86.3565C108.999 87.285 109.387 87.3724 109.912 87.3615H110.878V86.6242H110.288C109.802 86.6242 109.879 86.3565 109.879 86.149V81.96H110.9V81.2227H109.868L109.873 79.5788ZM105.706 87.3888C105.738 87.7379 105.634 88.0858 105.417 88.3609C105.349 88.4354 105.259 88.4853 105.16 88.5029V88.9999C105.317 88.9516 105.464 88.8778 105.597 88.7814C105.77 88.6394 105.907 88.4585 105.997 88.2536C106.087 88.0486 106.128 87.8253 106.116 87.6018C106.16 87.1812 106.149 86.4712 106.149 86.2965H105.155V87.3888H105.706ZM97.017 83.2817C96.9907 83.0824 97.0116 82.8798 97.078 82.69C97.1444 82.5003 97.2544 82.3288 97.3993 82.1894C97.6311 81.9667 97.9407 81.8433 98.2622 81.8453C98.9722 81.8453 99.1852 82.2768 99.1852 82.9376V87.4325H100.064V83.3254C100.042 83.1249 100.067 82.9221 100.136 82.7326C100.205 82.5432 100.317 82.3722 100.463 82.2331C100.686 82.0237 100.977 81.9016 101.282 81.889C102.042 81.889 102.227 82.2768 102.227 82.9813V87.4761H103.107V83.0359C103.175 82.5262 103.04 82.0099 102.73 81.5996C102.418 81.3192 102.013 81.1654 101.594 81.1681C101.258 81.1671 100.929 81.2569 100.64 81.4281C100.352 81.5992 100.115 81.8453 99.9552 82.1403C99.8406 81.8363 99.6381 81.5732 99.3736 81.3846C99.1091 81.1959 98.7945 81.0902 98.4697 81.0807C98.1628 81.0955 97.8652 81.1912 97.6072 81.3581C97.3492 81.525 97.1399 81.7571 97.0006 82.031V81.25H96.1377V87.3888H97.0115L97.017 83.2817ZM94.2534 82.8939C94.2534 81.6378 93.5653 81.0807 92.3419 81.0807C92.1058 81.062 91.8684 81.0936 91.6454 81.1733C91.4224 81.253 91.2187 81.379 91.048 81.5431C90.8772 81.7072 90.7431 81.9056 90.6545 82.1252C90.5659 82.3449 90.5249 82.5808 90.5342 82.8175C90.5342 83.9098 91.0803 84.2102 92.0415 84.5597C92.6751 84.8273 93.5653 84.9038 93.5653 85.7776C93.5653 86.5258 93.0956 86.8153 92.3856 86.8153C91.5664 86.8153 91.2933 86.3511 91.3425 85.6028H90.5068C90.4675 85.8613 90.4882 86.1253 90.5673 86.3744C90.6463 86.6236 90.7816 86.8512 90.9627 87.0397C91.1438 87.2282 91.3658 87.3724 91.6116 87.4614C91.8574 87.5503 92.1204 87.5815 92.3801 87.5526C93.6472 87.5526 94.4719 86.8372 94.4719 85.6684C94.4719 84.4996 93.5817 84.2976 92.6914 83.8989C92.0907 83.6476 91.4353 83.5439 91.4353 82.7519C91.4353 82.113 91.7903 81.8235 92.4129 81.8235C93.1611 81.8235 93.4233 82.1676 93.3905 82.9158L94.2534 82.8939ZM88.9121 79.1091H88.0273V80.2014H88.9066L88.9121 79.1091ZM88.9121 81.25H88.0273V87.3888H88.9066L88.9121 81.25ZM84.9416 81.25H84.0951V87.3888H84.9744V83.6695C84.9744 82.5772 85.6407 81.8453 86.7712 82.031V81.1736C86.3887 81.1063 85.9948 81.1798 85.6624 81.3807C85.33 81.5815 85.0817 81.896 84.9634 82.2659H84.9361L84.9416 81.25ZM81.1458 87.3888H82.0251V81.25H81.1404V85.1932C81.1585 85.5742 81.0695 85.9525 80.8837 86.2855C80.7666 86.4564 80.6092 86.5957 80.4252 86.691C80.2413 86.7863 80.0367 86.8346 79.8296 86.8317C79.207 86.8317 79.0377 86.5532 79.0377 86.0343V81.2664H78.1639V85.9633C78.1639 87.0556 78.71 87.5308 79.6494 87.5308C79.9608 87.5259 80.2645 87.4324 80.5247 87.2612C80.7849 87.09 80.9909 86.8482 81.1185 86.5641L81.1458 87.3888ZM75.5041 84.3849C75.5041 85.8322 75.2474 86.8153 74.2043 86.8153C73.1611 86.8153 72.9044 85.8322 72.9044 84.3849C72.9044 82.528 73.3031 81.8235 74.2043 81.8235C75.1054 81.8235 75.5041 82.528 75.5041 84.3849ZM76.4107 84.1119C76.4107 82.255 75.7226 81.0807 74.2261 81.0807C72.7297 81.0807 72.0142 82.255 72.0142 84.1119C72.0142 86.7607 72.8881 87.5526 74.2261 87.5526C75.5642 87.5526 76.4107 86.7716 76.4107 84.1119ZM69.8242 79.5788H68.9776V81.25H68.0983V81.9873H68.9776V86.3565C68.9776 87.285 69.3709 87.3724 69.8897 87.3615H70.8564V86.6242H70.2392C69.7532 86.6242 69.8296 86.3565 69.8296 86.149V81.96H70.8509V81.2227H69.8187L69.8242 79.5788Z" fill="black"/>
<path d="M136.427 83.6368C136.734 83.4741 136.997 83.2406 137.196 82.9556C137.394 82.6707 137.522 82.3425 137.569 81.9983C137.561 81.6468 137.415 81.3123 137.162 81.0685C136.908 80.8247 136.568 80.6915 136.217 80.698C135.865 80.7045 135.531 80.8503 135.286 81.1033C135.042 81.3563 134.908 81.6959 134.914 82.0475C134.943 82.6004 135.168 83.1251 135.548 83.5276C134.75 84.03 134.182 84.527 134.182 85.5319C134.164 85.7914 134.202 86.0518 134.294 86.2952C134.386 86.5386 134.53 86.7592 134.715 86.9419C134.9 87.1245 135.123 87.2649 135.367 87.3534C135.612 87.4418 135.873 87.4763 136.132 87.4544C136.434 87.4612 136.734 87.3965 137.006 87.2655C137.279 87.1345 137.516 86.941 137.7 86.7007L138.12 87.3124H139.016L138.137 86.089C138.428 85.5215 138.592 84.897 138.617 84.2594H137.956C137.928 84.6807 137.842 85.0961 137.7 85.4937L136.427 83.6368ZM136.105 83.1562C135.82 82.8185 135.642 82.4043 135.591 81.9656C135.584 81.8813 135.594 81.7963 135.619 81.7157C135.645 81.635 135.686 81.5601 135.741 81.4954C135.795 81.4307 135.862 81.3773 135.937 81.3383C136.012 81.2994 136.094 81.2756 136.178 81.2684C136.189 81.2675 136.199 81.2669 136.209 81.2665C136.381 81.2696 136.545 81.3411 136.665 81.4652C136.784 81.5893 136.85 81.7558 136.847 81.9282C136.846 81.9498 136.845 81.9714 136.842 81.9929C136.825 82.2326 136.749 82.4644 136.62 82.6675C136.491 82.8705 136.314 83.0384 136.105 83.1562L136.105 83.1562ZM137.312 86.1709C137.186 86.3475 137.023 86.4943 136.834 86.601C136.646 86.7076 136.436 86.7715 136.22 86.7881C136.051 86.8001 135.882 86.7759 135.723 86.7172C135.565 86.6585 135.421 86.5665 135.301 86.4476C135.181 86.3286 135.088 86.1854 135.028 86.0274C134.968 85.8695 134.942 85.7006 134.953 85.5319C134.959 85.2214 135.048 84.9183 135.21 84.6534C135.372 84.3886 135.602 84.1715 135.875 84.0246L137.312 86.1709Z" fill="black"/>
<path d="M91.8558 49.5952V29.0327H87.1862V49.5952C87.1862 51.3812 86.3288 52.8285 84.7176 52.8285C83.1065 52.8285 82.2545 51.3812 82.2545 49.5952V29.0327H77.5958V49.5952C77.5958 51.3812 76.7384 52.8285 75.1273 52.8285C73.5161 52.8285 72.6641 51.3812 72.6641 49.5952V29.0327H68V49.5952C68 53.9644 71.1895 57.498 75.0999 57.498C75.9978 57.4911 76.8852 57.3043 77.7097 56.9488C78.5342 56.5933 79.2792 56.0762 79.9006 55.4281C80.5214 56.0756 81.2655 56.5923 82.089 56.9478C82.9125 57.3032 83.7988 57.4903 84.6958 57.498C88.639 57.498 91.8285 53.959 91.8285 49.5952" fill="black"/>
<path d="M152.156 49.5953V43.2545H144.658V47.9241H147.492V49.5953C147.493 50.4528 147.153 51.2755 146.547 51.8823C145.941 52.4891 145.119 52.8305 144.262 52.8312C143.404 52.8319 142.581 52.4919 141.975 51.8861C141.368 51.2802 141.026 50.4581 141.026 49.6006V49.5953V36.941C141.025 36.5164 141.109 36.0959 141.271 35.7035C141.433 35.3111 141.671 34.9545 141.971 34.654C142.271 34.3535 142.627 34.1151 143.019 33.9523C143.411 33.7895 143.832 33.7055 144.256 33.7052C144.681 33.7048 145.101 33.7881 145.494 33.9503C145.886 34.1124 146.243 34.3503 146.543 34.6503C146.844 34.9502 147.082 35.3065 147.245 35.6986C147.408 36.0908 147.492 36.5111 147.492 36.9357V36.941V38.9126H152.162V36.9028C152.162 34.8068 151.329 32.7967 149.847 31.3147C148.365 29.8326 146.355 29 144.259 29C142.163 29 140.153 29.8326 138.671 31.3147C137.189 32.7967 136.356 34.8068 136.356 36.9028V49.5953C136.356 51.6912 137.189 53.7014 138.671 55.1834C140.153 56.6655 142.163 57.4981 144.259 57.4981C146.355 57.4981 148.365 56.6655 149.847 55.1834C151.329 53.7014 152.162 51.6912 152.162 49.5953" fill="black"/>
<path d="M168.186 36.941V37.6838C168.186 38.5413 167.845 39.3637 167.239 39.97C166.632 40.5764 165.81 40.917 164.952 40.917H161.714V33.7187H164.952C165.81 33.7187 166.632 34.0594 167.239 34.6657C167.845 35.2721 168.186 36.0944 168.186 36.9519V36.941ZM170.523 49.6062V48.8362C170.525 47.2474 170.045 45.6954 169.147 44.385C170.261 43.6875 171.183 42.7226 171.83 41.5781C172.477 40.4336 172.827 39.1456 172.85 37.8312V36.739C172.796 34.6811 171.941 32.7255 170.467 31.2883C168.993 29.8512 167.017 29.0458 164.958 29.0437H157.05V57.4981H161.719V45.5811H162.62C163.045 45.5818 163.465 45.6662 163.857 45.8293C164.249 45.9925 164.605 46.2312 164.905 46.532C165.205 46.8327 165.442 47.1895 165.604 47.5821C165.766 47.9746 165.849 48.3952 165.848 48.8198V48.8252V49.5953C165.848 51.6913 166.681 53.7014 168.163 55.1834C169.645 56.6655 171.655 57.4981 173.751 57.4981V52.8285C172.893 52.8285 172.071 52.4879 171.465 51.8815C170.858 51.2752 170.518 50.4528 170.518 49.5953" fill="black"/>
<path d="M188.339 36.9411V49.5954C188.339 50.4529 187.999 51.2755 187.394 51.8824C186.788 52.4892 185.966 52.8305 185.108 52.8312C184.251 52.8319 183.428 52.492 182.821 51.8861C182.214 51.2803 181.873 50.4582 181.872 49.6007V49.5954V36.9411C181.872 36.0836 182.211 35.2609 182.817 34.6541C183.423 34.0472 184.245 33.7059 185.103 33.7052C185.96 33.7045 186.783 34.0445 187.39 34.6503C187.997 35.2562 188.338 36.0783 188.339 36.9358V36.9411ZM193.008 49.5954V36.9138C193.008 34.8178 192.176 32.8077 190.694 31.3257C189.211 29.8436 187.201 29.011 185.105 29.011C183.009 29.011 180.999 29.8436 179.517 31.3257C178.035 32.8077 177.203 34.8178 177.203 36.9138V49.5954C177.257 51.6561 178.113 53.6142 179.59 55.0525C181.067 56.4909 183.047 57.2958 185.108 57.2958C187.17 57.2958 189.15 56.4909 190.626 55.0525C192.103 53.6142 192.96 51.6561 193.014 49.5954" fill="black"/>
</g>
<defs>
<clipPath id="clip0_309_12666">
<rect width="125.014" height="60" fill="white" transform="translate(68 29)"/>
</clipPath>
</defs>
</svg>
