<svg width="256" height="120" viewBox="0 0 256 120" fill="none" xmlns="http://www.w3.org/2000/svg">
<rect width="256" height="120" fill="white"/>
<g clip-path="url(#clip0_309_12665)">
<path d="M90.519 80C87.4945 79.9692 84.5599 78.9676 82.1476 77.1429C81.5319 76.6079 80.9498 76.0354 80.4048 75.4286C79.5806 74.4365 78.9419 73.3042 78.5191 72.0857C77.4283 67.5227 78.0698 62.7172 80.3191 58.6C83.1419 53.0595 86.7935 47.9821 91.1476 43.5429C91.9762 42.6571 94.4048 40 94.4333 40C94.3581 40.1818 94.2622 40.3544 94.1476 40.5143C92.6895 42.8857 91.5556 45.4418 90.7762 48.1143C89.6667 51.3217 89.7992 54.8284 91.1476 57.9429C92.1035 59.7483 93.6028 61.2075 95.4333 62.1143C99.6844 63.677 104.33 63.8075 108.662 62.4857L150.805 51.4286L192.262 40.6857L111.805 74.4857C107.433 76.3143 106.29 76.7714 104.233 77.3429C99.8607 79.0522 95.2137 79.9526 90.519 80Z" fill="black"/>
</g>
<defs>
<clipPath id="clip0_309_12665">
<rect width="114.262" height="40" fill="white" transform="translate(78 40)"/>
</clipPath>
</defs>
</svg>
