<svg width="256" height="120" viewBox="0 0 256 120" fill="none" xmlns="http://www.w3.org/2000/svg">
<rect width="256" height="120" fill="white"/>
<g clip-path="url(#clip0_309_12667)">
<path fill-rule="evenodd" clip-rule="evenodd" d="M76.4425 40.6582L61 42.0629L62.202 50.2852L123.577 66.5323L76.4425 40.6582Z" fill="black"/>
<path fill-rule="evenodd" clip-rule="evenodd" d="M94.4941 31.4312L81.6583 30.2292L79.0516 38.8538L125.584 66.1326L94.4941 31.4312Z" fill="black"/>
<path fill-rule="evenodd" clip-rule="evenodd" d="M114.353 27.0204L104.323 23.209L98.3055 30.6291L126.586 65.9302L114.353 27.0204Z" fill="black"/>
<path fill-rule="evenodd" clip-rule="evenodd" d="M127.588 20L117.962 27.0203L127.791 65.9301L137.618 26.618L127.588 20Z" fill="black"/>
<path fill-rule="evenodd" clip-rule="evenodd" d="M151.256 22.8066L141.229 27.4202L128.593 65.7303L157.877 30.6291L151.256 22.8066Z" fill="black"/>
<path fill-rule="evenodd" clip-rule="evenodd" d="M173.921 30.2292L160.886 31.8338L129.795 66.1326L177.13 39.0537L173.921 30.2292Z" fill="black"/>
<path fill-rule="evenodd" clip-rule="evenodd" d="M179.337 40.8582L131.4 66.5323L193.577 50.8874L194.38 42.0629L179.337 40.8582Z" fill="black"/>
<path fill-rule="evenodd" clip-rule="evenodd" d="M72.5032 93.6008V99.9147H73.34V96.6577H73.3589L74.5394 99.9147H75.5015L74.161 96.6577L75.4005 93.6008H74.5394L73.3746 96.6577H73.3482L73.34 93.6008H72.5032Z" fill="black"/>
<path fill-rule="evenodd" clip-rule="evenodd" d="M83.5666 93.6008L82.194 99.9148H83.0149L83.2495 98.6835H84.5048L84.7393 99.9148H85.5842L84.2276 93.6008H83.5666ZM84.3769 98.0305H83.3721L83.8731 94.8242H83.8891L84.2063 97.119L84.3769 98.0305Z" fill="black"/>
<path fill-rule="evenodd" clip-rule="evenodd" d="M92.751 93.6008V99.9147H94.9953V99.1872H93.5881V93.6008H92.751Z" fill="black"/>
<path fill-rule="evenodd" clip-rule="evenodd" d="M102.138 93.6008V99.9147H104.39V99.1872H102.975V97.0414H104.241V96.3139H102.975V94.3284H104.39V93.6008H102.138Z" fill="black"/>
<path d="M112.495 93.6008H111.658V99.9148H112.495V93.6008Z" fill="black"/>
<path fill-rule="evenodd" clip-rule="evenodd" d="M120.131 93.6008V99.9148H120.71C122.207 99.9148 123.18 99.7815 123.18 96.8658C123.18 93.6675 122.058 93.6008 121.069 93.6008L120.131 93.6008ZM122.293 96.8657C122.293 97.9372 122.351 99.2431 120.971 99.2032V94.3124C122.383 94.2298 122.293 95.8956 122.293 96.8658L122.293 96.8657Z" fill="black"/>
<path fill-rule="evenodd" clip-rule="evenodd" d="M132.133 93.5181C130.507 93.5181 130.491 95.6209 130.491 96.759C130.491 97.8971 130.507 99.9999 132.133 99.9999C133.756 99.9999 133.775 97.8971 133.775 96.759C133.772 95.6183 133.756 93.5181 132.133 93.5181ZM132.133 94.3043C132.794 94.3043 132.887 95.4184 132.887 96.759C132.887 98.0996 132.794 99.2137 132.133 99.2137C131.472 99.2137 131.379 98.0996 131.379 96.759C131.379 95.4184 131.469 94.3043 132.133 94.3043Z" fill="black"/>
<path fill-rule="evenodd" clip-rule="evenodd" d="M143.199 93.7261C142.928 93.5758 142.621 93.503 142.311 93.5155C141.365 93.5155 140.896 94.2432 140.896 95.1307C140.896 96.7885 142.663 97.039 142.663 98.297C142.663 98.7661 142.445 99.1765 141.925 99.1765C141.62 99.1638 141.327 99.0483 141.096 98.8487V99.6936C141.36 99.8964 141.685 100.003 142.018 99.9948C142.948 99.9948 143.5 99.2325 143.5 98.345C143.5 97.4921 143.172 97.071 142.605 96.4953L141.968 95.7997C141.808 95.6069 141.724 95.3622 141.733 95.112C141.726 95.009 141.74 94.9056 141.774 94.8081C141.808 94.7106 141.861 94.621 141.931 94.5449C142.001 94.4688 142.086 94.4078 142.18 94.3655C142.274 94.3233 142.376 94.3007 142.479 94.2991C142.74 94.3056 142.99 94.3994 143.191 94.5657L143.199 93.7261Z" fill="black"/>
<path fill-rule="evenodd" clip-rule="evenodd" d="M153.271 93.702C153.051 93.5709 152.799 93.5069 152.543 93.5181C150.827 93.5181 150.667 95.5943 150.667 96.8603C150.667 98.1823 150.893 100 152.602 100C152.837 100.009 153.07 99.948 153.271 99.8241V99.0884C153.117 99.1713 152.945 99.2143 152.77 99.2137C151.624 99.2137 151.554 97.6386 151.554 96.8017C151.554 96.0154 151.562 94.307 152.735 94.307C152.924 94.3171 153.107 94.3719 153.271 94.4669L153.271 93.702Z" fill="black"/>
<path fill-rule="evenodd" clip-rule="evenodd" d="M162.016 93.5181C160.39 93.5181 160.374 95.6209 160.374 96.759C160.374 97.8971 160.39 99.9999 162.016 99.9999C163.639 99.9999 163.657 97.8971 163.657 96.759C163.655 95.6183 163.639 93.5181 162.016 93.5181ZM162.016 94.3043C162.676 94.3043 162.77 95.4184 162.77 96.759C162.77 98.0996 162.676 99.2137 162.016 99.2137C161.355 99.2137 161.261 98.0996 161.261 96.759C161.261 95.4184 161.352 94.3043 162.016 94.3043Z" fill="black"/>
<path fill-rule="evenodd" clip-rule="evenodd" d="M171.97 99.9148V97.119C173.276 97.1696 173.78 96.5752 173.78 95.2933C173.78 93.6701 172.858 93.6008 172.138 93.6008H171.133V99.9148H171.97ZM172.085 94.3125C172.722 94.3125 172.89 94.7895 172.89 95.3599C172.89 96.0635 172.69 96.458 171.968 96.4073V94.3151H172.085V94.3125Z" fill="black"/>
<path fill-rule="evenodd" clip-rule="evenodd" d="M180.995 93.6008V99.9147H183.247V99.1872H181.832V97.0414H183.098V96.3139H181.832V94.3284H183.247V93.6008H180.995Z" fill="black"/>
<path fill-rule="evenodd" clip-rule="evenodd" d="M66.0853 72.2521L70.1791 69.5203H72.887V72.1056L76.088 69.5203L79.1157 69.5256V85.2852H75.9361L75.8454 71.3673L72.8897 73.7074C72.8897 73.7074 72.5912 82.2681 72.8044 85.2346L69.5714 85.2852V71.4926L66.2372 73.766L66.3625 85.2799L63.0549 85.2852V69.5256H66.0853L66.0853 72.2521Z" fill="black"/>
<path fill-rule="evenodd" clip-rule="evenodd" d="M134.281 72.4041H133.22V70.8876L129.715 70.8742L129.787 84.2244C131 84.5656 132.311 84.4137 132.916 83.1637V81.7991H134.129C134.47 83.3156 133.521 84.5256 132.311 85.1333L126.552 85.2852L126.666 71.2127C128.22 68.7127 131.837 69.8588 134.281 69.6749V72.4041L134.281 72.4041Z" fill="black"/>
<path fill-rule="evenodd" clip-rule="evenodd" d="M86.9994 83.7688L90.6348 81.3435V72.4041H93.516V85.2852H90.6348V82.7079L86.6795 85.2799L84.1182 85.2852V72.4041H86.9994V83.7688Z" fill="black"/>
<path fill-rule="evenodd" clip-rule="evenodd" d="M101.85 84.3738L105.336 84.3845V85.2852H98.8199V72.4041H101.85V84.3738Z" fill="black"/>
<path fill-rule="evenodd" clip-rule="evenodd" d="M115.339 73.3129H112.005L111.994 85.2852H108.975V73.3368L105.336 73.3129V72.4041H115.339V73.3129Z" fill="black"/>
<path d="M121.4 72.4041H118.369V85.2852H121.4V72.4041Z" fill="black"/>
<path fill-rule="evenodd" clip-rule="evenodd" d="M140.798 78.0093L144.284 75.5865V72.4041H147.317V85.2852H144.284V77.1004L140.798 79.5257V85.2852H137.767V72.4041H140.798V78.0093Z" fill="black"/>
<path d="M170.198 72.4041H167.167V85.2852H170.198V72.4041Z" fill="black"/>
<path fill-rule="evenodd" clip-rule="evenodd" d="M182.021 74.8267H180.96V73.4621C180.24 73.1956 179.332 73.3475 178.535 73.3102L178.383 84.2217C178.913 84.4883 179.595 84.3363 180.2 84.3737C181.035 83.9179 180.995 83.0863 180.957 82.2521H181.866C182.055 83.4648 181.752 84.7521 180.502 85.1306H175.35C175.464 81.1913 175.083 77.0602 175.654 73.3102C177.093 71.6444 180.137 72.2255 182.018 72.4013V74.8267L182.021 74.8267Z" fill="black"/>
<path fill-rule="evenodd" clip-rule="evenodd" d="M192.325 73.1612H188.99L188.839 77.4042L191.568 77.3935V78.3131H188.99L188.839 84.3738L192.325 84.4192V85.2852H185.808V72.4041H192.325V73.1612Z" fill="black"/>
<path fill-rule="evenodd" clip-rule="evenodd" d="M160.8 72.5532C158.111 72.6678 154.361 71.455 152.466 73.6139V84.2217C152.655 84.8267 153.3 85.0159 153.831 85.1306C156.408 85.0159 160.083 86.2285 161.864 84.0697V73.6139C161.632 73.1554 161.259 72.7835 160.8 72.5532ZM158.833 84.3763H155.651V73.4646H158.833V84.3763Z" fill="black"/>
</g>
<defs>
<clipPath id="clip0_309_12667">
<rect width="133.38" height="80" fill="white" transform="translate(61 20)"/>
</clipPath>
</defs>
</svg>
