<svg width="148" height="36" viewBox="0 0 148 36" fill="none" xmlns="http://www.w3.org/2000/svg">
<path d="M55.8952 18.3973L51.9006 22.4294L62.6742 36.0001L66.6688 31.968L55.8952 18.3973Z" fill="#0A0A0A"/>
<path d="M43.4922 2.17701C41.1792 3.55979 39.2518 5.63897 37.9242 8.18328C36.57 10.7862 35.8725 13.7572 35.9074 16.7747C35.8725 19.7923 36.57 22.7633 37.9242 25.3662C39.2518 27.9105 41.1792 29.9897 43.4922 31.3725C45.9437 32.8357 48.6829 33.5778 51.4563 33.5301C53.4282 33.5452 55.3875 33.1769 57.2484 32.4415L53.6973 27.9709C52.9592 28.1358 52.2088 28.2204 51.4563 28.2236C49.6384 28.2538 47.8446 27.7515 46.2504 26.7657C44.7214 25.8095 43.4611 24.3884 42.6131 22.6644C41.7199 20.8665 41.2621 18.8353 41.2857 16.7747C41.2621 14.7142 41.7199 12.683 42.6131 10.8851C43.4661 9.16523 44.7251 7.74556 46.2504 6.78375C47.8543 5.82641 49.6416 5.32593 51.4563 5.32593C53.2711 5.32593 55.0584 5.82641 56.6623 6.78375C58.1913 7.74001 59.4515 9.16104 60.2996 10.8851C61.1928 12.683 61.6505 14.7142 61.627 16.7747C61.6439 18.3678 61.3742 19.9482 60.834 21.4204L64.5747 26.1243C64.7299 25.8716 64.8678 25.6383 65.0057 25.3662C66.3663 22.7592 67.0641 19.78 67.0226 16.7553C67.0619 13.731 66.3643 10.7525 65.0057 8.14441C63.6676 5.61454 61.7424 3.54453 59.4377 2.15759C56.9686 0.73614 54.2352 -0.00336516 51.4629 1.15119e-05C48.6906 0.00338818 45.9586 0.74955 43.4922 2.17701Z" fill="#0A0A0A"/>
<path d="M30.1497 0.0195312H24.7713V32.6749H30.1497V0.0195312Z" fill="#0A0A0A"/>
<path d="M75.9175 29.3316C73.6765 26.8047 72.5732 23.1698 72.5732 18.4465V0.0195386H77.9516V18.2132C77.9516 24.6277 80.3994 27.8155 85.3124 27.8155C90.1908 27.8155 92.6329 24.6147 92.6387 18.2132V0.0195312H97.9308V18.4465C97.9308 23.1698 96.8218 26.7982 94.6038 29.3316C92.3801 31.8585 89.2772 33.1414 85.2779 33.1414C81.2614 33.1414 78.1412 31.8715 75.9175 29.3316" fill="#0A0A0A"/>
<path d="M110.825 0.0195312H105.447V32.6749H110.825V0.0195312Z" fill="#0A0A0A"/>
<path d="M124.03 5.15109H131.063C133.001 5.10699 134.92 5.57987 136.665 6.53118C138.231 7.38372 139.53 8.75313 140.389 10.4576C141.283 12.2613 141.735 14.3008 141.699 16.3667C141.739 18.4331 141.287 20.4738 140.389 22.2757C139.52 23.9713 138.224 25.3378 136.665 26.2022C134.92 27.1514 133.001 27.6242 131.063 27.5822H124.03L124.03 5.15109ZM118.651 0.0195312V32.6749H131.304C134.153 32.7301 136.974 32.0381 139.544 30.6534C141.861 29.3958 143.802 27.4029 145.129 24.9192C146.481 22.3312 147.168 19.3697 147.112 16.3666C147.168 13.3635 146.481 10.4021 145.129 7.81404C143.798 5.33454 141.858 3.34293 139.544 2.07992C137.148 0.719278 134.407 0.0583961 131.304 0.0583961H118.651V0.0195312Z" fill="#0A0A0A"/>
<path d="M0 0.0195312V32.6751H20.5134V27.5435H5.37831V0.0195312H0Z" fill="#0A0A0A"/>
</svg>
