<svg width="188" height="40" viewBox="0 0 188 40" fill="none" xmlns="http://www.w3.org/2000/svg">
<g clip-path="url(#clip0_309_12422)">
<path d="M0 0H19.0264V19.0264H0V0Z" fill="black"/>
<path d="M20.969 0H39.9954V19.0264H20.9713V0H20.969Z" fill="black"/>
<path d="M171.575 7.24957C173.329 6.10684 175.595 6.00171 177.572 6.54565C177.589 7.72037 177.572 8.89624 177.58 10.0721C176.64 9.65843 175.535 9.38647 174.547 9.79442C174.172 9.96927 173.849 10.2379 173.609 10.5742C173.369 10.9105 173.22 11.3032 173.176 11.7142C173.089 12.7402 173.063 13.7705 173.099 14.7996H179.119C179.134 13.4969 179.103 12.193 179.136 10.8903C180.501 10.5018 181.85 10.0664 183.208 9.65729C183.219 11.3714 183.192 13.0912 183.223 14.8087C184.579 14.7893 185.936 14.8087 187.294 14.7996V18.1409C185.932 18.0849 184.569 18.126 183.207 18.1215V23.8854C183.228 24.9493 183.149 26.0189 183.274 27.0793C183.349 27.7044 183.577 28.3969 184.163 28.7203C185.145 29.2699 186.39 29.0299 187.292 28.4266V31.801C186.102 32.2918 184.812 32.4879 183.53 32.3724C182.323 32.2833 181.073 31.8445 180.286 30.8869C179.372 29.8024 179.143 28.334 179.124 26.9605C179.113 24.0122 179.124 21.064 179.124 18.1146H173.101V31.9953H168.988V18.1192C168.033 18.1009 167.078 18.1192 166.124 18.1043C166.124 17.0062 166.132 15.9069 166.124 14.8076C167.073 14.7859 168.024 14.795 168.981 14.8076C169.05 13.3472 168.828 11.8445 169.264 10.4218C169.627 9.12075 170.448 7.99443 171.575 7.24957Z" fill="black"/>
<path d="M51.9369 7.99913H57.9214C59.784 12.7285 61.6505 17.4567 63.5208 22.1838C63.9973 23.3665 64.4429 24.563 64.9423 25.7365C67.342 19.8264 69.7692 13.931 72.1472 8.01284C74.0658 7.98199 75.9856 8.00599 77.9054 8.00142C77.9008 16.0005 77.9008 23.9996 77.9054 31.9987C76.5204 31.9987 75.1366 32.0101 73.7527 31.9907C73.7676 26.0885 73.7527 20.1863 73.7596 14.2784C73.7596 14.0133 73.7527 13.7482 73.7344 13.4785C73.6536 13.6013 73.5815 13.7296 73.5185 13.8625C71.1404 19.9041 68.719 25.9285 66.3524 31.9758C65.3674 32.0113 64.3812 31.9758 63.395 31.9941C60.9416 25.9525 58.519 19.8972 56.0816 13.851C56.0176 13.7253 55.949 13.6031 55.8748 13.4854C55.8245 16.0714 55.8668 18.6596 55.8531 21.2456V31.9872H51.9358V7.98999L51.9369 7.99913Z" fill="black"/>
<path d="M94.7972 14.7811C96.7974 14.2237 98.9128 14.2301 100.91 14.7994C101.32 14.9111 101.715 15.0755 102.083 15.2885C102.06 16.5992 102.083 17.9167 102.071 19.2229C100.744 18.2093 99.0607 17.5671 97.374 17.7796C96.7035 17.8405 96.0531 18.0407 95.4646 18.3676C94.876 18.6944 94.3622 19.1407 93.9561 19.6777C92.9277 21.0193 92.6888 22.8008 92.866 24.4417C92.8995 25.1139 93.0726 25.7717 93.3742 26.3734C93.6758 26.975 94.0993 27.5073 94.6178 27.9364C95.1363 28.3654 95.7384 28.6819 96.3859 28.8656C97.0333 29.0493 97.7119 29.0963 98.3785 29.0035C99.7213 28.8322 100.995 28.309 102.071 27.4871C102.082 28.7292 102.065 29.9714 102.08 31.2135C100.398 32.2145 98.3808 32.4705 96.4553 32.378C94.4583 32.2992 92.5561 31.506 91.0947 30.1428C89.5672 28.6073 88.6775 26.5504 88.6047 24.3857C88.5042 22.1677 88.9555 19.8536 90.232 18.0013C91.3338 16.4296 92.9476 15.2897 94.7972 14.7765V14.7811Z" fill="black"/>
<path d="M139.746 14.5194C141.664 14.2053 143.63 14.4101 145.442 15.1125V18.8949C144.175 18.0227 142.664 17.5757 141.127 17.6185C140.358 17.6482 139.512 17.9739 139.161 18.7053C139.012 19.0724 138.989 19.479 139.097 19.8603C139.205 20.2417 139.438 20.576 139.758 20.8102C140.924 21.5906 142.316 21.922 143.529 22.6214C144.481 23.1562 145.404 23.8555 145.886 24.8634C146.792 26.7512 146.408 29.2458 144.815 30.6536C143.294 32.0752 141.104 32.4683 139.089 32.3928C137.649 32.3219 136.233 31.9969 134.906 31.4329C134.906 30.1062 134.898 28.7807 134.913 27.4551C136.018 28.27 137.295 28.8211 138.646 29.0664C139.597 29.2689 140.587 29.178 141.486 28.8058C142.324 28.3887 142.475 27.1969 141.977 26.4678C141.471 25.9491 140.858 25.5477 140.181 25.2919C138.956 24.7446 137.685 24.2875 136.62 23.4739C135.859 22.8908 135.318 22.0682 135.083 21.1393C134.754 19.768 134.854 18.2299 135.654 17.0346C136.132 16.3616 136.741 15.792 137.445 15.3601C138.149 14.9281 138.932 14.6426 139.749 14.5206L139.746 14.5194Z" fill="black"/>
<path d="M111.284 15.0611C111.861 14.7378 112.5 14.5417 113.159 14.4861C113.818 14.4305 114.481 14.5167 115.103 14.7389V18.8527C114.276 18.3295 113.296 18.0994 112.322 18.199C111.154 18.3316 110.229 19.2275 109.749 20.256C109.278 21.3636 109.077 22.5671 109.162 23.7675V31.9952H105.106V14.8051C106.46 14.788 107.814 14.7949 109.168 14.8051C109.162 15.789 109.168 16.7729 109.168 17.7579C109.608 16.6872 110.263 15.6473 111.295 15.0634L111.284 15.0611Z" fill="black"/>
<path d="M81.7598 14.8028C83.1242 14.8028 84.4897 14.7834 85.8542 14.8097C85.8382 20.5382 85.8541 26.2678 85.8473 31.9963H81.762V14.8028L81.7598 14.8028Z" fill="black"/>
<path d="M132.161 18.8127C131.441 17.2071 130.165 15.9166 128.567 15.1799C126.734 14.3458 124.651 14.2338 122.676 14.4851V14.4886C120.567 14.7178 118.629 15.7538 117.267 17.3797C116.103 18.8922 115.439 20.7294 115.367 22.6362C115.202 24.8543 115.572 27.2083 116.875 29.0595C118.013 30.6538 119.71 31.7607 121.628 32.1598C123.217 32.4905 124.857 32.4905 126.446 32.1598C128.32 31.7869 129.997 30.7521 131.17 29.2446C132.259 27.7933 132.889 26.0494 132.979 24.2372C133.157 22.3893 132.876 20.526 132.161 18.8127ZM128.186 26.7066C127.798 27.607 127.072 28.3197 126.165 28.6927C125.089 29.087 123.917 29.1385 122.811 28.8401C122.256 28.6861 121.74 28.4171 121.295 28.0505C120.851 27.684 120.489 27.228 120.232 26.7123C119.569 25.3891 119.47 23.8555 119.607 22.4077C119.731 21.0878 120.191 19.7303 121.196 18.8195C121.946 18.1579 122.904 17.7799 123.904 17.7511C124.527 17.6912 125.156 17.7643 125.75 17.9656C126.343 18.167 126.887 18.4919 127.345 18.919C128.296 19.8537 128.664 21.2044 128.766 22.5037C128.839 23.9195 128.781 25.3948 128.186 26.7066Z" fill="black"/>
<path d="M165.116 19.3087C164.481 17.5793 163.22 16.1517 161.581 15.3092C159.707 14.3653 157.53 14.2247 155.474 14.4795V14.4784C153.798 14.6645 152.216 15.3433 150.927 16.429C149.406 17.7984 148.441 19.6775 148.213 21.7107C147.959 23.7093 148.045 25.8142 148.859 27.6849C149.661 29.5366 151.165 30.9949 153.04 31.7404C154.894 32.4167 156.894 32.5859 158.836 32.2306C160.834 31.9177 162.641 30.8614 163.894 29.2733C165.152 27.5834 165.807 25.5213 165.756 23.4157C165.806 22.0184 165.589 20.6244 165.116 19.3087ZM161.401 25.1446C161.271 26.0639 160.904 26.9338 160.337 27.6688C159.721 28.378 158.868 28.8381 157.937 28.9624C156.945 29.1301 155.926 29.0193 154.994 28.6425C154.002 28.197 153.223 27.3825 152.822 26.3719C152.369 25.1782 152.202 23.8949 152.334 22.6249C152.382 21.38 152.818 20.1812 153.581 19.1967C153.958 18.7659 154.419 18.416 154.935 18.1683C155.451 17.9206 156.012 17.7803 156.584 17.7557V17.7546C157.768 17.6317 158.953 17.9811 159.881 18.727C160.674 19.4454 161.198 20.4129 161.367 21.4696C161.595 22.6829 161.607 23.9272 161.401 25.1446L161.401 25.1446Z" fill="black"/>
<path d="M0 20.9736H19.0264V39.9989H0V20.9736Z" fill="black"/>
<path d="M20.9701 20.9736H39.9954V40H20.969V20.9748L20.9701 20.9736Z" fill="black"/>
</g>
<defs>
<clipPath id="clip0_309_12422">
<rect width="187.294" height="40" fill="white"/>
</clipPath>
</defs>
</svg>
