<svg width="180" height="35" viewBox="0 0 180 35" fill="none" xmlns="http://www.w3.org/2000/svg">
<g clip-path="url(#clip0_309_12485)">
<path d="M76.3709 27.3783H72.1681C71.8784 27.3627 71.5966 27.2784 71.346 27.1322C71.0954 26.986 70.8832 26.7822 70.7271 26.5377L65.924 20.0534V26.1775C65.924 26.4959 65.7974 26.8014 65.5722 27.0265C65.347 27.2517 65.0416 27.3783 64.7232 27.3783H61.481C61.1823 27.3798 60.8937 27.2699 60.6717 27.07C60.4496 26.8702 60.3101 26.5948 60.2802 26.2975V2.88192C60.2802 2.5953 60.394 2.32041 60.5967 2.11774C60.7994 1.91506 61.0743 1.8012 61.3609 1.8012H64.8432C64.9942 1.788 65.1462 1.80599 65.2899 1.85406C65.4336 1.90212 65.5659 1.97923 65.6785 2.08059C65.7911 2.18195 65.8817 2.3054 65.9446 2.44325C66.0075 2.58111 66.0413 2.73043 66.044 2.88192V15.3702L71.3276 8.88593C71.466 8.6981 71.6471 8.54577 71.8558 8.44141C72.0645 8.33704 72.295 8.28362 72.5284 8.28552H76.2508C77.0914 8.28552 77.5717 8.76585 76.9713 9.72649L70.3669 17.5317L77.0914 26.4176C77.5717 26.8979 77.0914 27.3783 76.3709 27.3783ZM52.1147 12.4883C53.5557 12.4883 54.9967 12.6084 56.3175 12.7285C57.1581 12.8486 57.3983 12.4883 57.3983 11.7678V9.60641C57.411 9.29212 57.3081 8.98406 57.1089 8.74061C56.9097 8.49716 56.6281 8.33524 56.3175 8.28552C54.8622 7.94161 53.3698 7.78026 51.8746 7.8052C44.3095 7.8052 43.9493 14.7698 43.7091 15.9706C43.5891 17.048 43.5891 18.1354 43.7091 19.2128C43.8292 20.5337 44.3095 27.3783 51.8746 27.3783C53.3695 27.3968 54.8612 27.2356 56.3175 26.8979C56.6259 26.8434 56.9045 26.6802 57.1028 26.4379C57.3011 26.1955 57.4059 25.8901 57.3983 25.5771V23.4156C57.3983 22.6951 57.038 22.3349 56.1975 22.455C54.8766 22.5751 53.4356 22.6951 51.9947 22.6951C50.3135 22.5751 49.3529 21.6144 49.2328 18.8526C49.1127 17.8555 49.1127 16.8476 49.2328 15.8506C49.5931 13.569 50.4336 12.4883 52.1147 12.4883ZM40.9473 9.36625C40.9605 9.2153 40.9425 9.06326 40.8944 8.91956C40.8464 8.77587 40.7693 8.6436 40.6679 8.53097C40.5665 8.41835 40.4431 8.32778 40.3052 8.2649C40.1674 8.20201 40.0181 8.16816 39.8666 8.16544H36.5043C36.2177 8.16544 35.9428 8.27931 35.7402 8.48198C35.5375 8.68465 35.4236 8.95954 35.4236 9.24617V26.2975C35.4236 26.5842 35.5375 26.859 35.7402 27.0617C35.9428 27.2644 36.2177 27.3783 36.5043 27.3783H39.7465C40.0331 27.3783 40.308 27.2644 40.5107 27.0617C40.7134 26.859 40.8272 26.5842 40.8272 26.2975L40.9473 9.36625ZM31.9413 2.88192V29.1795C31.9117 29.9343 31.5985 30.6502 31.0643 31.1844C30.5302 31.7186 29.8142 32.0317 29.0594 32.0614H2.88192C2.12706 32.0317 1.41113 31.7186 0.876955 31.1844C0.342779 30.6502 0.029636 29.9343 0 29.1795L0 2.88192C0.029636 2.12706 0.342779 1.41113 0.876955 0.876955C1.41113 0.342779 2.12706 0.029636 2.88192 0L29.1795 0C29.5501 0.00780119 29.9155 0.0885422 30.2549 0.237611C30.5943 0.386679 30.901 0.601153 31.1574 0.868782C31.4139 1.13641 31.6151 1.45195 31.7496 1.79737C31.8841 2.14279 31.9493 2.51133 31.9413 2.88192ZM27.018 12.7285C27.018 8.52569 25.6971 6.12408 23.4156 5.16344C22.1222 4.8265 20.7894 4.66494 19.453 4.68312H7.56504C7.27842 4.68312 7.00353 4.79698 6.80086 4.99966C6.59818 5.20233 6.48432 5.47722 6.48432 5.76384V26.1775C6.48432 26.4641 6.59818 26.739 6.80086 26.9416C7.00353 27.1443 7.27842 27.2582 7.56504 27.2582H10.8072C11.0938 27.2582 11.3687 27.1443 11.5714 26.9416C11.7741 26.739 11.8879 26.4641 11.8879 26.1775V20.7739H19.453C20.7931 20.9118 22.1472 20.7476 23.4156 20.2935C25.6971 19.3329 27.018 16.9313 27.018 12.7285ZM21.3742 12.7285C21.3742 15.4903 20.5337 16.2108 18.7325 16.2108H11.8879V9.24617H18.7325C20.5337 9.24617 21.3742 9.96665 21.3742 12.7285ZM151.541 7.8052C149.597 7.80804 147.662 8.05001 145.777 8.52568C145.5 8.5523 145.24 8.67471 145.043 8.87191C144.845 9.06911 144.723 9.3288 144.696 9.60641V11.5277C144.696 12.2482 145.177 12.6084 146.017 12.6084C147.698 12.3682 149.26 12.2482 150.941 12.1281C153.462 12.1281 153.823 12.8486 153.823 14.1694V14.8899C151.898 14.79 149.968 14.8704 148.059 15.1301C144.937 15.7305 143.015 17.5317 143.015 21.2542C143.015 24.9767 145.537 27.3783 151.181 27.3783C153.596 27.4171 156.01 27.216 158.386 26.7779C158.685 26.6813 158.943 26.4864 159.117 26.2248C159.291 25.9632 159.372 25.6502 159.346 25.3369V14.4096C159.466 10.9273 158.866 7.8052 151.541 7.8052ZM154.063 23.2955L151.421 23.4156C149.26 23.4156 148.539 22.6951 148.539 21.014C148.539 19.3329 149.62 18.9727 150.821 18.7325C151.898 18.6124 152.985 18.6124 154.063 18.7325V23.2955ZM126.805 9.24617H120.08V16.2108H126.925C128.606 16.2108 129.566 15.4903 129.566 12.7285C129.566 9.96665 128.606 9.24617 126.805 9.24617ZM137.252 0H110.954C110.199 0.029636 109.483 0.342779 108.949 0.876955C108.415 1.41113 108.102 2.12706 108.072 2.88192V29.1795C108.102 29.9343 108.415 30.6502 108.949 31.1844C109.483 31.7186 110.199 32.0317 110.954 32.0614H137.131C137.886 32.0317 138.602 31.7186 139.136 31.1844C139.671 30.6502 139.984 29.9343 140.013 29.1795V2.88192C140.011 2.13883 139.723 1.4251 139.209 0.888589C138.695 0.352081 137.994 0.0339137 137.252 0V0ZM131.488 20.2935C130.194 20.6305 128.861 20.792 127.525 20.7739H119.96V26.1775C119.96 26.4641 119.846 26.739 119.643 26.9416C119.441 27.1443 119.166 27.2582 118.879 27.2582H115.637C115.35 27.2582 115.076 27.1443 114.873 26.9416C114.67 26.739 114.556 26.4641 114.556 26.1775V5.76384C114.556 5.47722 114.67 5.20233 114.873 4.99966C115.076 4.79698 115.35 4.68312 115.637 4.68312H127.525C128.865 4.54522 130.219 4.70935 131.488 5.16344C133.769 6.12408 135.09 8.52569 135.09 12.7285C135.09 16.9313 133.769 19.3329 131.488 20.2935ZM180 25.8172C180 31.8212 177.478 34.5831 171.234 34.5831C169.211 34.5877 167.195 34.3457 165.23 33.8626C164.939 33.8184 164.672 33.6746 164.475 33.4556C164.278 33.2366 164.163 32.9561 164.149 32.6618V30.7405C164.121 30.6288 164.117 30.5121 164.14 30.399C164.162 30.2858 164.209 30.1792 164.279 30.0869C164.348 29.9946 164.437 29.9191 164.539 29.866C164.642 29.8128 164.755 29.7834 164.87 29.7799H165.23C167.091 30.1235 168.982 30.2844 170.874 30.2602C173.996 30.2602 174.476 29.5397 174.476 27.018C173.29 27.2567 172.084 27.3774 170.874 27.3783C165.23 27.3783 162.949 25.5771 162.949 20.4136V9.12609C162.949 8.83946 163.062 8.56457 163.265 8.3619C163.468 8.15923 163.743 8.04536 164.029 8.04536H167.272C167.558 8.04536 167.833 8.15923 168.036 8.3619C168.238 8.56457 168.352 8.83946 168.352 9.12609V20.4136C168.352 22.2148 169.313 22.9353 171.594 22.9353C172.493 22.9029 173.383 22.7411 174.236 22.455V9.00601C174.236 8.71938 174.35 8.44449 174.553 8.24182C174.755 8.03915 175.03 7.92528 175.317 7.92528H178.799C179.086 7.92528 179.361 8.03915 179.563 8.24182C179.766 8.44449 179.88 8.71938 179.88 9.00601L180 25.8172ZM100.627 14.7698V26.1775C100.627 26.4641 100.513 26.739 100.311 26.9416C100.108 27.1443 99.833 27.2582 99.5464 27.2582H96.3042C96.0176 27.2582 95.7427 27.1443 95.54 26.9416C95.3373 26.739 95.2235 26.4641 95.2235 26.1775V14.8899C95.2235 13.449 95.1034 12.6084 92.3416 12.6084C91.2509 12.6095 90.1637 12.7303 89.0994 12.9686V26.2975C89.0994 26.5842 88.9855 26.859 88.7829 27.0617C88.5802 27.2644 88.3053 27.3783 88.0187 27.3783H84.5364C84.2497 27.3783 83.9748 27.2644 83.7722 27.0617C83.5695 26.859 83.4556 26.5842 83.4556 26.2975V10.0867C83.3937 9.83204 83.4346 9.56322 83.5695 9.33847C83.7043 9.11372 83.9223 8.95114 84.1761 8.88593C86.635 8.17442 89.1814 7.81065 91.7412 7.8052C98.3456 7.8052 100.627 10.3269 100.627 14.7698Z" fill="black"/>
</g>
<defs>
<clipPath id="clip0_309_12485">
<rect width="180" height="34.5831" fill="white"/>
</clipPath>
</defs>
</svg>
