<svg width="198" height="42" viewBox="0 0 198 42" fill="none" xmlns="http://www.w3.org/2000/svg">
<g clip-path="url(#clip0_309_12597)">
<path d="M158.327 35.8472C158.198 34.8062 158.134 33.7581 158.136 32.709V20.5612C158.138 20.1504 158.104 19.7401 158.034 19.3352C157.818 18.2277 157.339 17.1882 156.639 16.3037C155.938 15.4191 155.036 14.7153 154.008 14.2511C153.107 13.8957 152.167 13.6538 151.207 13.5312C149.98 13.364 148.744 13.2813 147.506 13.2838C146.158 13.2825 144.813 13.4144 143.491 13.6774C142.228 13.919 141.015 14.3715 139.903 15.016C139.606 15.1889 139.32 15.3805 139.048 15.5896C138.208 16.328 137.532 17.2338 137.064 18.2488C136.595 19.2638 136.344 20.3657 136.326 21.4836V21.596H142.973C143.02 20.9294 143.152 20.2716 143.367 19.6389C143.544 19.1745 143.826 18.7573 144.191 18.4198C144.556 18.0822 144.994 17.8335 145.47 17.693C146.128 17.504 146.81 17.413 147.495 17.423C148.325 17.4 149.152 17.5454 149.924 17.8505C150.433 18.0697 150.864 18.4366 151.162 18.9037C151.46 19.3707 151.611 19.9165 151.595 20.4702C151.58 21.024 151.398 21.5603 151.074 22.0096C150.75 22.459 150.299 22.8008 149.778 22.9908L149.25 23.1483C148.403 23.354 147.542 23.4968 146.674 23.5757C145.692 23.6732 144.709 23.8006 143.727 23.9581C142.734 24.1147 141.75 24.325 140.78 24.588C140.465 24.678 139.925 24.8804 139.925 24.8804C138.798 25.3282 137.808 26.0614 137.051 27.0081C136.293 27.9547 135.795 29.0821 135.606 30.2795V31.3143C135.604 31.8077 135.642 32.3004 135.718 32.7878C135.954 34.0762 136.541 35.2745 137.414 36.2509C138.288 37.2273 139.413 37.9439 140.667 38.3218C141.632 38.5547 142.622 38.6717 143.614 38.6705C145.111 38.656 146.598 38.4365 148.035 38.0181C149.459 37.6019 150.752 36.8274 151.792 35.7685C151.819 36.1688 151.872 36.567 151.949 36.9608C152.03 37.342 152.135 37.7177 152.264 38.0856H159.013C158.64 37.3898 158.418 36.6233 158.36 35.836L158.327 35.8472ZM151.533 28.7273C151.524 29.2202 151.487 29.7122 151.42 30.2007C151.333 30.8544 151.119 31.4848 150.791 32.0567C150.401 32.706 149.851 33.2444 149.193 33.6201C148.259 34.1091 147.21 34.3383 146.156 34.2838C145.662 34.2775 145.17 34.2323 144.683 34.1488L144.244 34.0363C143.535 33.7784 142.941 33.2759 142.568 32.6191C142.37 32.2721 142.24 31.8903 142.186 31.4943C142.181 31.4156 142.181 31.3367 142.186 31.2581V30.6507C142.186 30.5607 142.276 30.1895 142.276 30.1782C142.41 29.6873 142.661 29.2363 143.008 28.864C143.354 28.4916 143.787 28.2093 144.267 28.0411H144.458C145.526 27.7677 146.607 27.55 147.697 27.3887C148.226 27.31 148.732 27.2425 149.171 27.1525C149.632 27.0657 150.086 26.9492 150.532 26.8039C150.921 26.684 151.281 26.4849 151.589 26.219L151.533 28.7273ZM99.0611 35.8472C98.9321 34.8062 98.8682 33.7581 98.8699 32.709V20.5612C98.8723 20.1504 98.8384 19.7401 98.7686 19.3352C98.5523 18.2277 98.0738 17.1882 97.3732 16.3037C96.6726 15.4191 95.7703 14.7153 94.7419 14.2511C93.8434 13.884 92.9025 13.6308 91.9411 13.4975C90.7147 13.3303 89.4783 13.2476 88.2405 13.25C86.8923 13.2486 85.5473 13.3805 84.225 13.6437C82.9625 13.8859 81.7496 14.3384 80.6369 14.9822C80.3403 15.1555 80.0548 15.3471 79.782 15.5559H79.7033C78.8638 16.2943 78.188 17.2001 77.7192 18.2151C77.2505 19.2301 76.9991 20.3319 76.9813 21.4498V21.5623H83.6288C83.6745 20.8956 83.8068 20.2377 84.0225 19.6051C84.1997 19.1408 84.4816 18.7235 84.8465 18.386C85.2113 18.0485 85.6492 17.7998 86.1259 17.6592C86.7838 17.4702 87.4661 17.3792 88.1505 17.3893C88.9772 17.3672 89.7998 17.5126 90.5688 17.8167C91.0776 18.0359 91.5088 18.4028 91.8067 18.8699C92.1046 19.337 92.2554 19.8827 92.2397 20.4365C92.2239 20.9902 92.0423 21.5265 91.7184 21.9759C91.3944 22.4253 90.943 22.7671 90.4226 22.957L89.894 23.1145C89.0471 23.3202 88.1861 23.4631 87.3182 23.5419C86.3359 23.6394 85.3535 23.7669 84.3712 23.9244C83.3783 24.0813 82.3945 24.2916 81.4242 24.5543C81.1093 24.6442 80.5694 24.8467 80.5694 24.8467C79.4422 25.2935 78.451 26.0265 77.6936 26.9733C76.9361 27.9201 76.4386 29.048 76.2502 30.2457V31.2806C76.245 31.7736 76.2788 32.2663 76.3514 32.754C76.5966 34.0561 77.2003 35.2638 78.0945 36.2415C78.9887 37.2191 80.1379 37.9279 81.413 38.288C82.3757 38.5399 83.365 38.6758 84.36 38.693C85.8563 38.6785 87.3437 38.459 88.7804 38.0406C90.2005 37.6227 91.4899 36.8482 92.526 35.791C92.5542 36.1913 92.6068 36.5894 92.6835 36.9833C92.7652 37.3643 92.8704 37.74 92.9984 38.1081H99.7472C99.3743 37.4123 99.152 36.6458 99.0948 35.8585L99.0611 35.8472ZM92.2336 28.7498C92.2247 29.2427 92.1871 29.7347 92.1211 30.2232C92.0352 30.8773 91.8211 31.5079 91.4912 32.0792C91.0968 32.7355 90.5387 33.2781 89.8715 33.6539C88.9335 34.1449 87.8805 34.3741 86.8233 34.3175C86.3293 34.3113 85.8366 34.2662 85.3498 34.1825C85.1936 34.1559 85.0395 34.1183 84.8886 34.0701C84.1919 33.8178 83.6064 33.3279 83.2352 32.6866C83.0359 32.34 82.9061 31.9579 82.8527 31.5618C82.8483 31.4831 82.8483 31.4042 82.8527 31.3255V30.7182C82.8527 30.6282 82.9427 30.257 82.9427 30.2457C83.0769 29.7581 83.3271 29.3101 83.6718 28.94C84.0164 28.5698 84.4455 28.2885 84.9224 28.1199H85.1136C86.1814 27.8465 87.2626 27.6287 88.353 27.4675C88.8817 27.3887 89.3991 27.3213 89.8265 27.2313C90.2872 27.1444 90.7418 27.0279 91.1875 26.8826C91.5726 26.7613 91.9286 26.5622 92.2336 26.2977V28.7498ZM197.02 17.8954C196.633 16.8623 196.004 15.9367 195.186 15.1959C194.37 14.5023 193.409 13.9989 192.374 13.7224C191.201 13.4084 189.989 13.2607 188.775 13.2838C187.212 13.2391 185.671 13.6663 184.355 14.5098C183.195 15.2422 182.193 16.1981 181.408 17.3218C180.856 15.9416 179.804 14.8207 178.461 14.1836C177.149 13.5807 175.72 13.2771 174.276 13.295C172.797 13.2682 171.336 13.6247 170.036 14.3298C168.894 14.9633 167.898 15.8293 167.111 16.8719V13.9024H160.655V38.0968H167.303V24.0368C167.256 23.0284 167.433 22.0221 167.82 21.0899C168.101 20.445 168.524 19.872 169.057 19.4139C169.489 19.0495 169.99 18.7777 170.531 18.6153L170.992 18.5028C171.209 18.4868 171.427 18.4868 171.644 18.5028C172.658 18.4949 173.64 18.8593 174.403 19.5269C175.166 20.1945 175.657 21.1188 175.784 22.1247V38.0743H182.431V24.5767C182.428 23.824 182.48 23.072 182.589 22.3272C182.653 21.8727 182.77 21.4272 182.937 20.9999C183.285 20.1838 183.886 19.501 184.651 19.052C185.416 18.6031 186.305 18.4118 187.187 18.5063C188.068 18.6008 188.897 18.9761 189.549 19.5769C190.202 20.1777 190.644 20.9723 190.811 21.8435V22.0797C190.871 22.8296 190.901 23.5794 190.901 24.3293V38.0518H197.549V21.9335C197.58 20.5652 197.355 19.2032 196.885 17.9179L197.02 17.8954ZM123.773 19.1665C123.548 18.0315 123.076 16.96 122.389 16.0283C121.684 15.1272 120.753 14.4287 119.69 14.0036C118.28 13.4698 116.776 13.225 115.269 13.2838C114.303 13.2868 113.342 13.4425 112.424 13.7449C110.832 14.2856 109.427 15.2688 108.374 16.5794L108.059 17.0181V13.8687H101.491V38.1081H108.138V25.4091C107.986 23.5515 108.414 21.6925 109.364 20.0888C109.462 19.966 109.567 19.8495 109.679 19.7401C110.219 19.1169 110.919 18.6539 111.704 18.4016C112.809 18.0604 114.004 18.1661 115.033 18.696C116.061 19.226 116.841 20.1379 117.204 21.2361C117.481 22.2777 117.609 23.3531 117.587 24.4305V38.1081H124.234V23.2045C124.231 21.8511 124.088 20.5015 123.807 19.1777L123.773 19.1665ZM73.8881 25.7128C73.3539 24.7456 72.6126 23.9083 71.7172 23.2607C70.7813 22.6186 69.7536 22.1218 68.669 21.7872C67.5428 21.403 66.3978 21.0764 65.2384 20.8087L61.6953 20.0663C60.6417 19.8304 59.6076 19.5145 58.6021 19.1215L58.1859 18.964L57.8484 18.8178L57.2186 18.4803C56.7937 18.1921 56.4548 17.7943 56.2377 17.3291C56.0206 16.8639 55.9333 16.3487 55.9852 15.8379C56.0371 15.3272 56.2262 14.84 56.5324 14.428C56.8386 14.0159 57.2506 13.6944 57.7247 13.4975C58.2495 13.3152 58.7926 13.1907 59.3444 13.1263C59.8817 13.0572 60.4225 13.0196 60.9641 13.0138C62.2863 12.9898 63.597 13.2627 64.7997 13.8124C65.3844 14.1192 65.885 14.5646 66.2576 15.1098C66.6302 15.6549 66.8634 16.2831 66.9368 16.9394H73.6856C73.5485 15.4611 73.0753 14.0338 72.3021 12.7664C71.5875 11.6376 70.6356 10.6781 69.5126 9.95436C68.3638 9.22076 67.0965 8.69178 65.767 8.39089C64.315 8.04607 62.8277 7.87242 61.3353 7.87348C59.9353 7.87928 58.5387 8.01104 57.1623 8.26716C55.7666 8.51296 54.4211 8.98805 53.1805 9.67316C52.0146 10.3105 51.0073 11.2024 50.2336 12.2827C49.4441 13.4689 49.0504 14.8745 49.1088 16.2982C49.0682 17.5821 49.3424 18.8565 49.9074 20.0101C50.3992 20.9886 51.1116 21.8395 51.9882 22.4959C52.8929 23.129 53.8859 23.6255 54.9352 23.9694C56.0822 24.3603 57.25 24.687 58.4333 24.9479C59.6106 25.2104 60.7654 25.4578 61.8977 25.6903C62.9291 25.8878 63.9443 26.1622 64.9347 26.5114C65.7161 26.7783 66.4381 27.1948 67.0606 27.7374C67.6459 28.3062 67.9817 29.0839 67.9944 29.9C68.007 30.716 67.6954 31.5038 67.128 32.0904L67.0606 32.1579C66.6737 32.5013 66.2278 32.7719 65.7445 32.9565C65.0426 33.227 64.3095 33.4084 63.5624 33.4964C62.8723 33.5866 62.1775 33.6354 61.4815 33.6426C59.9331 33.6778 58.4044 33.2889 57.0611 32.5178C56.4082 32.0768 55.8719 31.4842 55.4978 30.7909C55.1236 30.0975 54.9229 29.3238 54.9127 28.536H48.5239C48.5212 30.0963 48.8792 31.6362 49.5699 33.0352C50.2205 34.2915 51.152 35.3807 52.2919 36.2184C53.5247 37.1044 54.9139 37.7493 56.3862 38.1193C58.0733 38.5473 59.8086 38.7553 61.549 38.738C63.0968 38.766 64.643 38.6264 66.1607 38.3218C67.6541 38.0027 69.086 37.4443 70.4012 36.6683C71.6447 35.9419 72.7063 34.9418 73.5056 33.7439C74.3322 32.421 74.7472 30.8825 74.6979 29.3234C74.7419 28.0582 74.4591 26.8031 73.8768 25.6791L73.8881 25.7128ZM133.412 38.0518H126.754V4.65656H133.401L133.412 38.0518ZM18.8854 30.6957C18.7362 31.9043 18.6836 33.123 18.7279 34.34V42.0111H26.3991C26.7202 41.9801 27.0309 41.8804 27.3101 41.7187C27.6856 41.4993 27.9972 41.1857 28.2142 40.8089C28.4312 40.4321 28.5461 40.0051 28.5474 39.5703V36.4996C28.4988 35.065 28.7359 33.6351 29.2448 32.2929L34.7901 23.2945C35.085 22.861 35.2347 22.345 35.2175 21.821C35.2261 21.4216 35.1123 21.029 34.8913 20.6962C24.7456 6.92865 19.9652 0.359823 19.8415 0.191103V0.0898712C19.8258 0.0645122 19.8044 0.0431686 19.779 0.0275448C19.7536 0.011921 19.725 0.00244973 19.6953 -0.000112741C19.659 -0.0139598 19.619 -0.0139598 19.5828 -0.000112741L19.4253 0.191103L19.3241 0.348575C17.9406 2.76689 19.3241 4.84777 20.3589 6.66995C20.8023 7.54186 21.2903 8.39034 21.8211 9.21199C22.7547 10.8654 23.947 12.6876 25.0156 14.521C25.9787 15.7928 26.4965 17.3462 26.489 18.9415C26.4496 20.7761 25.8403 22.5529 24.7456 24.0256C23.4388 25.7458 21.9023 27.2785 20.1789 28.581C19.5272 29.1181 19.0755 29.8591 18.8966 30.6844L18.8854 30.6957ZM15.0498 28.581C13.3265 27.2785 11.7899 25.7458 10.4831 24.0256C9.38445 22.5543 8.77117 20.7773 8.72846 18.9415C8.72105 17.3462 9.23884 15.7928 10.2019 14.521C11.3267 12.6876 12.4515 10.8654 13.4639 9.25698C13.9363 8.48087 14.4087 7.64852 14.9374 6.73743C15.9272 4.93776 17.3557 2.83438 15.9722 0.416063L15.7472 0.202351V-0.000112741C15.711 -0.0139598 15.6709 -0.0139598 15.6347 -0.000112741C15.606 0.00117284 15.5779 0.00891988 15.5526 0.0225519C15.5273 0.0361838 15.5054 0.0553497 15.4885 0.0786232L15.4098 0.179855C15.2748 0.359823 10.5056 6.92865 0.359956 20.5725C0.138966 20.9053 0.025138 21.2978 0.0337641 21.6973H2.01657e-05C-0.0156629 22.2211 0.133872 22.7366 0.427444 23.1707L5.84898 32.1691C6.35701 33.5116 6.59403 34.9413 6.54635 36.3759V39.4803C6.54963 39.9132 6.6654 40.3379 6.88232 40.7125C7.09923 41.0872 7.40983 41.3991 7.78363 41.6175C8.06284 41.7791 8.37356 41.8789 8.69472 41.9099H16.3659V34.2613C16.4109 33.0442 16.3583 31.8255 16.2084 30.6169C16.0295 29.7916 15.5778 29.0506 14.9261 28.5135L15.0498 28.581ZM17.6481 11.8103C16.2755 11.8103 14.9337 12.2173 13.7925 12.9799C12.6512 13.7425 11.7617 14.8263 11.2364 16.0945C10.7111 17.3626 10.5737 18.758 10.8415 20.1042C11.1092 21.4504 11.7702 22.687 12.7408 23.6576C13.7114 24.6282 14.948 25.2892 16.2942 25.5569C17.6404 25.8247 19.0358 25.6873 20.3039 25.162C21.5721 24.6367 22.656 23.7472 23.4185 22.606C24.1811 21.4647 24.5881 20.1229 24.5881 18.7503C24.5881 16.9097 23.857 15.1445 22.5554 13.843C21.2539 12.5415 19.4887 11.8103 17.6481 11.8103Z" fill="black"/>
</g>
<defs>
<clipPath id="clip0_309_12597">
<rect width="197.582" height="42" fill="white"/>
</clipPath>
</defs>
</svg>
