<svg width="135" height="50" viewBox="0 0 135 50" fill="none" xmlns="http://www.w3.org/2000/svg">
<g clip-path="url(#clip0_309_12602)">
<path d="M16.048 46.7502C16.7887 45.6673 17.1718 44.3797 17.1437 43.068C17.1853 41.9499 16.8808 40.8462 16.2716 39.9076C15.5967 38.975 14.7396 38.1889 13.7522 37.597C12.3075 36.7229 10.8143 35.9316 9.27995 35.2266C8.42373 34.8648 7.61516 34.3991 6.87238 33.8402C6.61517 33.6378 6.40713 33.3797 6.26384 33.0854C6.12055 32.7911 6.04574 32.4681 6.04501 32.1408C6.04276 31.8055 6.11595 31.4739 6.25916 31.1707C6.40238 30.8675 6.61196 30.6004 6.87238 30.3891C7.56159 29.8874 8.40787 29.6494 9.25759 29.7183C10.7156 29.7114 12.1577 30.0217 13.4839 30.6277C14.3711 31.0318 15.2302 31.495 16.0554 32.0141V27.5791C15.8169 27.4523 15.4368 27.2585 14.8256 26.9902C13.9219 26.618 12.9864 26.3286 12.0304 26.1256C10.8065 25.8573 9.55639 25.7273 8.30351 25.738C6.70226 25.7065 5.11389 26.0297 3.65234 26.6846C2.51976 27.1901 1.56256 28.0202 0.901897 29.0698C0.305459 30.0593 -0.00661185 31.1941 -1.09265e-05 32.3495C-0.0308609 33.5048 0.274712 34.6443 0.879536 35.6292C1.48108 36.5817 2.27902 37.3949 3.22002 38.0144C4.32689 38.7119 5.49441 39.3081 6.7084 39.7958C7.73165 40.1789 8.70713 40.6792 9.61537 41.2866C9.97927 41.5152 10.2799 41.8316 10.4896 42.2067C10.6993 42.5818 10.8113 43.0035 10.8154 43.4333C10.7813 44.0247 10.529 44.5825 10.1073 44.9986C9.61537 45.5501 8.66874 45.8259 7.2078 45.8259C5.80047 45.8343 4.40598 45.558 3.10822 45.0135C2.11553 44.5854 1.14973 44.0976 0.216149 43.5525V48.226C1.31897 48.6975 2.45815 49.0789 3.62253 49.3665C4.56793 49.6104 5.52938 49.7872 6.49969 49.8957C7.24507 49.9628 7.83392 49.9926 8.33332 49.9926C9.92549 50.0214 11.5072 49.7299 12.9845 49.1354C14.2119 48.6445 15.2744 47.8147 16.048 46.7427V46.7502ZM33.3482 43.1351L33.0799 43.3289C32.3824 43.8684 31.6334 44.3377 30.8438 44.7302C30.2986 44.9822 29.7074 45.1192 29.107 45.1327C28.5847 45.144 28.0665 45.038 27.5905 44.8226C27.1145 44.6071 26.6929 44.2878 26.3566 43.8879C25.6765 43.0919 25.2415 42.1159 25.1043 41.0779C24.8737 39.6483 24.9861 38.1844 25.4323 36.8069C25.8337 35.5315 26.6136 34.4084 27.6684 33.5868C28.7393 32.7761 30.0525 32.3506 31.3953 32.3793H33.3557L33.3482 43.1351ZM33.2215 49.0981H38.9907V29.0698C37.6342 28.8611 36.6055 28.7195 35.8527 28.63C34.7879 28.5206 33.7179 28.4708 32.6476 28.481C30.1105 28.4033 27.5816 28.8054 25.1938 29.6661C23.5413 30.2555 22.0821 31.2867 20.9749 32.6476C20.1026 33.7957 19.5151 35.1342 19.2606 36.5534C19.0307 37.9015 19.0131 39.2772 19.2084 40.6306C19.4323 42.1863 19.959 43.6829 20.7588 45.0358C21.496 46.3149 22.5158 47.4087 23.7403 48.2335C24.8704 49.0124 26.2066 49.4379 27.579 49.4559C28.4537 49.5003 29.3247 49.3153 30.1058 48.9193C30.8344 48.4744 31.5032 47.9384 32.096 47.3241L33.229 46.2135L33.2215 49.0981ZM56.3282 49.0981H62.1049V36.777C62.1049 35.6739 62.0304 34.8763 61.9708 34.4813C61.7342 32.9469 61.0878 31.5048 60.0999 30.3071C59.1234 29.0996 57.6774 28.5108 55.6649 28.5108C54.5525 28.4637 53.4459 28.6943 52.4448 29.1816C51.3956 29.7918 50.3984 30.4873 49.4633 31.2612L48.3974 32.0513V28.8462H42.6655V49.046H48.3601V36.464L48.5316 36.2776C49.3278 35.3653 50.1978 34.5201 51.133 33.7508C51.8248 33.2032 52.6806 32.9039 53.5629 32.9011C54.435 32.9011 55.9407 33.2365 56.2761 35.4801C56.3241 35.7608 56.349 36.045 56.3506 36.3298L56.3282 49.0981ZM73.0471 49.4559C74.8326 49.4738 76.5878 48.9937 78.1157 48.0695L77.4895 43.1053C76.5381 43.8513 75.3799 44.286 74.1726 44.3501C73.3825 44.3501 71.9961 44.0519 71.616 42.032C71.5382 41.539 71.5033 41.0402 71.5116 40.5412V32.8563H75.7752V28.2201H71.5563V21.0645H65.8095V41.3835C65.8036 42.1333 65.8685 42.882 66.0033 43.6196C66.2172 45.03 66.8752 46.3355 67.8816 47.3465C68.5921 48.0877 69.4575 48.6629 70.4159 49.0311C71.2514 49.3273 72.1308 49.4811 73.0173 49.4857L73.0471 49.4559ZM93.5972 43.1277L93.2692 43.3811C92.5924 43.9103 91.8689 44.3769 91.1076 44.7749C90.5622 45.0261 89.9712 45.1631 89.3709 45.1775C88.8486 45.1881 88.3306 45.0819 87.8547 44.8665C87.3788 44.6512 86.9571 44.3321 86.6204 43.9327C85.9376 43.1375 85.5 42.1614 85.3607 41.1226C85.1293 39.6931 85.2417 38.229 85.6887 36.8516C86.0893 35.5758 86.8693 34.4525 87.9248 33.6315C88.9957 32.8208 90.3089 32.3953 91.6517 32.424H93.6046L93.5972 43.1277ZM93.5003 49.0907H99.2546V29.0698C97.8906 28.8611 96.8694 28.712 96.1166 28.63C95.0543 28.5207 93.9867 28.471 92.9189 28.481C90.3694 28.399 87.8275 28.8011 85.4278 29.6661C83.7754 30.2555 82.3162 31.2867 81.209 32.6476C80.3357 33.7951 79.7481 35.1339 79.4946 36.5534C79.2652 37.9015 79.2476 39.2771 79.4424 40.6306C79.6658 42.1887 80.1925 43.6879 80.9928 45.0433C81.7301 46.3224 82.7499 47.4161 83.9743 48.241C85.1167 49.0056 86.4607 49.413 87.8354 49.4112C88.7101 49.456 89.5813 49.2709 90.3622 48.8745C91.094 48.431 91.7654 47.8949 92.3598 47.2794L93.4779 46.1464L93.5003 49.0907ZM134.176 37.1646C134.189 36.2163 134.147 35.2681 134.049 34.3247C133.806 32.8268 133.147 31.4271 132.148 30.2848C131.149 29.0847 129.487 28.481 127.221 28.481C126.37 28.4663 125.524 28.6183 124.732 28.9282C124.041 29.2022 123.394 29.5737 122.809 30.0314C122.289 30.4423 121.81 30.9015 121.377 31.4029L120.811 32.0737L120.341 31.3283C119.827 30.4354 119.079 29.699 118.178 29.1975C117.278 28.6961 116.258 28.4484 115.228 28.481C114.121 28.4703 113.03 28.7532 112.068 29.3009C111.195 29.7797 110.408 30.4021 109.742 31.142L108.609 32.4687V28.8537H102.944V49.0758H108.617V35.8602L108.773 35.6813C109.448 34.8872 110.197 34.1585 111.009 33.5048C111.626 32.9969 112.395 32.7107 113.193 32.6924C113.515 32.6722 113.837 32.7239 114.136 32.8438C114.435 32.9638 114.704 33.1488 114.922 33.3856C115.301 33.8784 115.536 34.4667 115.601 35.085C115.679 35.9424 115.711 36.8033 115.698 37.664V49.046H121.377V35.3534L121.564 35.167C123.204 33.5048 124.597 32.6924 125.827 32.6924C126.617 32.6924 128.004 33.0501 128.354 35.4577C128.423 35.9841 128.458 36.5145 128.459 37.0454V49.0758H134.168L134.176 37.1646Z" fill="black"/>
<path d="M71.3327 1.49076V0H65.3697V1.42367C42.3065 1.76801 19.9646 9.51582 1.63983 23.5242C3.39491 22.6489 5.2109 21.9016 7.07364 21.288C21.5042 16.7561 35.562 17.7922 44.3948 23.4049C50.5665 20.3041 58.3482 18.4705 67.345 18.4407C76.3417 18.4109 84.116 20.2967 90.2877 23.4049C99.1205 17.7922 113.186 16.7561 127.609 21.288C129.472 21.9014 131.288 22.6487 133.043 23.5242C115.266 9.93847 93.694 2.23628 71.3327 1.49076Z" fill="black"/>
</g>
<defs>
<clipPath id="clip0_309_12602">
<rect width="134.168" height="50" fill="white"/>
</clipPath>
</defs>
</svg>
