<svg width="167" height="50" viewBox="0 0 167 50" fill="none" xmlns="http://www.w3.org/2000/svg">
<g clip-path="url(#clip0_309_12406)">
<path d="M66.3856 13.3435C67.153 13.3435 70.5299 13.1135 74.5974 16.1809C74.6827 16.2564 74.7376 16.3603 74.7517 16.4732C74.7658 16.5861 74.7383 16.7003 74.6742 16.7944L72.7555 19.5552C72.7241 19.6053 72.6819 19.6479 72.6319 19.6797C72.582 19.7116 72.5256 19.7319 72.4668 19.7393C72.408 19.7466 72.3483 19.7408 72.292 19.7222C72.2358 19.7036 72.1844 19.6728 72.1416 19.6319C71.6068 19.2318 71.0423 18.8729 70.4531 18.5582C69.2226 17.8998 67.8573 17.5325 66.4623 17.4846C65.1576 17.4846 63.0087 17.9447 63.0087 20.0153C63.0087 21.7024 64.4669 22.3159 69.0717 23.4662C72.0648 24.2331 75.5184 25.6901 75.5184 30.2147C75.5184 34.4325 72.0648 37.0398 67.2298 37.0398C64.3134 37.0398 60.3226 35.9662 57.79 33.4355C57.7533 33.4011 57.724 33.3595 57.704 33.3134C57.684 33.2672 57.6737 33.2174 57.6737 33.1671C57.6737 33.1168 57.684 33.0671 57.704 33.0209C57.724 32.9747 57.7533 32.9332 57.79 32.8987L60.0156 30.2914C60.0531 30.2463 60.1 30.2101 60.1531 30.1852C60.2061 30.1603 60.264 30.1474 60.3226 30.1474C60.3812 30.1474 60.4391 30.1603 60.4922 30.1852C60.5452 30.2101 60.5922 30.2463 60.6296 30.2914C62.4239 31.9778 64.7683 32.9584 67.2298 33.0521C71.2206 33.0521 71.0671 30.6748 71.0671 30.2914C71.0671 29.5245 70.5299 28.4509 68.5345 27.9141C66.5391 27.3773 61.7041 26.457 59.8621 24.3098C58.9539 23.2145 58.4886 21.8194 58.5575 20.3987C58.4807 17.7147 60.0924 13.3435 66.3856 13.3435Z" fill="black"/>
<path d="M86.8768 18.7883C85.8328 18.7973 84.8036 19.0355 83.8619 19.4861C82.9203 19.9366 82.0893 20.5886 81.4278 21.3957V19.6319C81.43 19.5709 81.4195 19.5101 81.3972 19.4533C81.3748 19.3965 81.3409 19.3449 81.2977 19.3018C81.2546 19.2586 81.2029 19.2248 81.1461 19.2024C81.0893 19.1801 81.0284 19.1696 80.9674 19.1718H77.3603C77.2992 19.1696 77.2384 19.1801 77.1816 19.2024C77.1247 19.2248 77.0731 19.2586 77.0299 19.3018C76.9867 19.3449 76.9529 19.3965 76.9305 19.4533C76.9081 19.5101 76.8977 19.5709 76.8998 19.6319V41.411C76.8977 41.472 76.9081 41.5328 76.9305 41.5896C76.9529 41.6464 76.9867 41.698 77.0299 41.7412C77.0731 41.7843 77.1247 41.8181 77.1816 41.8405C77.2384 41.8629 77.2992 41.8733 77.3603 41.8712H80.9674C81.0284 41.8733 81.0893 41.8629 81.1461 41.8405C81.2029 41.8181 81.2546 41.7843 81.2977 41.7412C81.3409 41.698 81.3748 41.6464 81.3972 41.5896C81.4195 41.5328 81.43 41.472 81.4278 41.411V34.6626C82.1262 35.45 82.9914 36.0719 83.9605 36.4831C84.9297 36.8944 85.9784 37.0846 87.0303 37.0399C90.1002 37.0399 95.0119 34.5859 95.0119 28.0675C95.0119 21.5491 90.4072 18.7883 86.8768 18.7883ZM85.8791 33.0521C83.4233 33.0521 81.3511 30.9049 81.3511 27.8374C81.3511 25.9969 82.5023 22.6994 85.8791 22.6994C89.256 22.6994 90.4839 25.3834 90.4839 27.8374C90.4839 30.2914 89.1025 33.0521 85.8791 33.0521Z" fill="black"/>
<path d="M105.449 18.7882C104.244 18.7812 103.05 19.0118 101.934 19.467C100.819 19.9222 99.8043 20.5929 98.9487 21.4407C98.0931 22.2885 97.4134 23.2967 96.9485 24.4076C96.4837 25.5184 96.2429 26.71 96.2399 27.914C96.2353 29.1232 96.474 30.3209 96.942 31.436C97.4099 32.5511 98.0975 33.5608 98.9639 34.405C99.8302 35.2492 100.858 35.9107 101.985 36.3501C103.112 36.7896 104.317 36.9981 105.526 36.9631C106.72 36.9581 107.902 36.718 109.004 36.2567C110.105 35.7953 111.105 35.1217 111.946 34.2743C112.787 33.4269 113.452 32.4223 113.905 31.3178C114.357 30.2134 114.587 29.0307 114.582 27.8373C114.577 26.6439 114.337 25.4632 113.875 24.3626C113.414 23.262 112.739 22.2631 111.891 21.4228C111.043 20.5825 110.038 19.9173 108.933 19.4653C107.827 19.0133 106.644 18.7832 105.449 18.7882ZM105.526 33.052C104.865 33.0304 104.215 32.8779 103.613 32.6034C103.011 32.3289 102.469 31.9378 102.02 31.4529C101.57 30.9679 101.221 30.3986 100.993 29.778C100.765 29.1574 100.662 28.4978 100.691 27.8373C100.691 24.5398 102.994 22.6993 105.526 22.6993C106.182 22.7161 106.829 22.8627 107.428 23.1307C108.027 23.3987 108.567 23.7826 109.016 24.2605C109.466 24.7383 109.816 25.3004 110.047 25.9143C110.278 26.5283 110.385 27.1819 110.361 27.8373C110.361 31.3649 107.829 33.052 105.526 33.052Z" fill="black"/>
<path d="M126.248 22.6228V19.5553C126.25 19.4943 126.239 19.4335 126.217 19.3767C126.195 19.3199 126.161 19.2683 126.118 19.2252C126.074 19.182 126.023 19.1482 125.966 19.1258C125.909 19.1035 125.848 19.093 125.787 19.0952H121.643V14.8774C121.645 14.8164 121.635 14.7556 121.612 14.6988C121.59 14.642 121.556 14.5904 121.513 14.5473C121.47 14.5041 121.418 14.4703 121.361 14.4479C121.304 14.4256 121.243 14.4151 121.182 14.4173H117.652C117.591 14.4151 117.53 14.4256 117.473 14.4479C117.417 14.4703 117.365 14.5041 117.322 14.5473C117.279 14.5904 117.245 14.642 117.222 14.6988C117.2 14.7556 117.189 14.8164 117.192 14.8774V19.0952H115.426C115.365 19.093 115.305 19.1035 115.248 19.1258C115.191 19.1482 115.139 19.182 115.096 19.2252C115.053 19.2683 115.019 19.3199 114.997 19.3767C114.974 19.4335 114.964 19.4943 114.966 19.5553V22.6228C114.964 22.6838 114.974 22.7446 114.997 22.8014C115.019 22.8582 115.053 22.9097 115.096 22.9529C115.139 22.9961 115.191 23.0299 115.248 23.0523C115.305 23.0746 115.365 23.0851 115.426 23.0829H117.192V31.8252C117.192 33.8191 118.113 36.8866 122.027 36.8866C123.383 36.8679 124.719 36.5539 125.941 35.9663C126.011 35.9304 126.07 35.8754 126.111 35.8076C126.152 35.7398 126.172 35.662 126.171 35.5829V32.5921C126.175 32.528 126.16 32.464 126.13 32.4075C126.099 32.351 126.053 32.3042 125.998 32.2723C125.942 32.2404 125.878 32.2247 125.814 32.227C125.749 32.2293 125.687 32.2495 125.634 32.2854C125.031 32.7154 124.301 32.9314 123.562 32.8989C121.72 32.8989 121.566 31.5952 121.566 30.7516V23.0829H125.71C125.842 23.0895 125.971 23.0455 126.071 22.9599C126.171 22.8743 126.234 22.7536 126.248 22.6228Z" fill="black"/>
<path d="M130.239 17.0246C131.764 17.0246 133.001 15.7886 133.001 14.2639C133.001 12.7392 131.764 11.5032 130.239 11.5032C128.713 11.5032 127.476 12.7392 127.476 14.2639C127.476 15.7886 128.713 17.0246 130.239 17.0246Z" fill="black"/>
<path d="M131.39 36.5799H129.164C129.022 36.583 128.881 36.5574 128.749 36.5045C128.617 36.4517 128.498 36.3727 128.397 36.2724C128.297 36.1721 128.218 36.0525 128.165 35.9208C128.112 35.7891 128.086 35.6481 128.09 35.5062V20.2455C128.086 20.1037 128.112 19.9626 128.165 19.831C128.218 19.6993 128.297 19.5797 128.397 19.4793C128.498 19.379 128.617 19.3001 128.749 19.2472C128.881 19.1944 129.022 19.1687 129.164 19.1719H131.39C131.532 19.1687 131.673 19.1944 131.805 19.2472C131.936 19.3001 132.056 19.379 132.156 19.4793C132.257 19.5797 132.336 19.6993 132.389 19.831C132.442 19.9626 132.467 20.1037 132.464 20.2455V35.5062C132.467 35.6481 132.442 35.7891 132.389 35.9208C132.336 36.0525 132.257 36.1721 132.156 36.2724C132.056 36.3727 131.936 36.4517 131.805 36.5045C131.673 36.5574 131.532 36.583 131.39 36.5799Z" fill="black"/>
<path d="M136.378 23.0828H134.69C134.629 23.085 134.568 23.0745 134.511 23.0522C134.454 23.0298 134.403 22.996 134.359 22.9528C134.316 22.9097 134.282 22.8581 134.26 22.8013C134.238 22.7445 134.227 22.6837 134.229 22.6227V19.5552C134.227 19.4942 134.238 19.4334 134.26 19.3766C134.282 19.3198 134.316 19.2683 134.359 19.2251C134.403 19.1819 134.454 19.1481 134.511 19.1258C134.568 19.1034 134.629 19.093 134.69 19.0951H136.378V17.9448C136.378 17.1779 136.532 12.5 141.75 12.5C144.36 12.5 145.204 13.1135 145.204 13.1135V16.2577C145.204 16.5644 145.127 16.8712 144.744 16.7178C144.053 16.4743 143.327 16.3448 142.595 16.3344C142.338 16.3161 142.08 16.3532 141.839 16.4431C141.598 16.533 141.379 16.6736 141.197 16.8554C141.016 17.0372 140.875 17.256 140.785 17.4968C140.695 17.7377 140.658 17.9951 140.676 18.2515V19.0951H147.123C147.212 19.0947 147.299 19.125 147.369 19.1808C147.439 19.2366 147.487 19.3146 147.506 19.4018L152.034 31.135L156.102 19.4785C156.135 19.3991 156.187 19.3292 156.254 19.2755C156.321 19.2219 156.401 19.1862 156.486 19.1718H160.477C160.521 19.1738 160.564 19.1867 160.602 19.2094C160.64 19.2321 160.672 19.2639 160.695 19.3018C160.717 19.3398 160.73 19.3828 160.733 19.427C160.735 19.4712 160.726 19.5152 160.707 19.5552C159.786 21.9325 154.49 35.6595 153.8 37.3466C153.032 39.2638 151.804 41.8712 148.12 41.8712C146.689 41.9128 145.277 41.54 144.053 40.7976C143.974 40.7357 143.916 40.6504 143.889 40.554C143.861 40.4576 143.865 40.355 143.899 40.2607L145.204 37.5C145.215 37.4708 145.233 37.4447 145.256 37.424C145.279 37.4032 145.307 37.3884 145.337 37.3809C145.368 37.3733 145.399 37.3732 145.429 37.3806C145.46 37.388 145.488 37.4027 145.511 37.4233C146.179 37.8464 146.947 38.0846 147.737 38.1135C149.195 38.1135 149.809 36.4264 149.809 36.4264L144.283 23.1595H140.599V36.273C140.601 36.334 140.591 36.3948 140.569 36.4516C140.546 36.5084 140.512 36.56 140.469 36.6031C140.426 36.6463 140.374 36.6801 140.317 36.7025C140.261 36.7248 140.2 36.7353 140.139 36.7331H136.532C136.471 36.7353 136.41 36.7248 136.353 36.7025C136.296 36.6801 136.244 36.6463 136.201 36.6031C136.158 36.56 136.124 36.5084 136.102 36.4516C136.079 36.3948 136.069 36.334 136.071 36.273L136.378 23.0828Z" fill="black"/>
<path d="M163.086 20.3222H164.391C164.546 20.3006 164.704 20.3172 164.851 20.3707C164.998 20.4242 165.13 20.5128 165.235 20.6289C165.317 20.7228 165.38 20.8322 165.42 20.9507C165.459 21.0693 165.475 21.1945 165.465 21.3191C165.475 21.518 165.421 21.7149 165.31 21.8806C165.2 22.0463 165.039 22.1721 164.851 22.2393L165.542 23.2363H164.774L164.16 22.316H163.7V23.2363H163.086V20.3222ZM164.391 21.7792C164.698 21.7792 164.851 21.6258 164.851 21.3958C164.851 21.089 164.698 21.0123 164.314 21.0123H163.7V21.8559H164.391V21.7792Z" fill="black"/>
<path d="M164.237 24.6167C163.691 24.6167 163.157 24.4548 162.702 24.1514C162.248 23.8481 161.894 23.4169 161.685 22.9124C161.475 22.408 161.421 21.8529 161.527 21.3174C161.634 20.7818 161.897 20.2899 162.283 19.9038C162.67 19.5177 163.162 19.2548 163.698 19.1483C164.234 19.0417 164.79 19.0964 165.294 19.3054C165.799 19.5143 166.231 19.8682 166.534 20.3222C166.838 20.7762 167 21.3099 167 21.856C166.99 22.5851 166.696 23.2815 166.18 23.7971C165.664 24.3127 164.967 24.6068 164.237 24.6167ZM164.237 19.402C163.586 19.402 162.961 19.6605 162.501 20.1207C162.04 20.5809 161.781 21.2051 161.781 21.856C161.781 22.5068 162.04 23.131 162.501 23.5912C162.961 24.0514 163.586 24.3099 164.237 24.3099C164.561 24.3141 164.882 24.2534 165.182 24.1315C165.482 24.0097 165.754 23.8291 165.983 23.6004C166.212 23.3717 166.392 23.0995 166.514 22.7999C166.636 22.5003 166.697 22.1794 166.693 21.856C166.689 21.2064 166.429 20.5845 165.969 20.1252C165.51 19.6658 164.887 19.406 164.237 19.402Z" fill="black"/>
<path d="M25.0193 0C20.071 0 15.2337 1.46622 11.1193 4.21326C7.00493 6.9603 3.79814 10.8648 1.90449 15.4329C0.0108405 20.0011 -0.484625 25.0277 0.48075 29.8773C1.44613 34.7268 3.82898 39.1814 7.32799 42.6777C10.827 46.174 15.285 48.555 20.1383 49.5196C24.9916 50.4843 30.0221 49.9892 34.5938 48.097C39.1655 46.2048 43.0729 43.0005 45.8221 38.8893C48.5713 34.778 50.0386 29.9445 50.0386 25C50.0366 18.3702 47.4 12.0125 42.7084 7.32458C38.0168 2.63661 31.6542 0.00203274 25.0193 0V0ZM36.4545 36.1196C36.2264 36.481 35.8663 36.7392 35.4507 36.8394C35.0351 36.9397 34.5968 36.874 34.2289 36.6564C24.4053 30.7515 12.6632 34.1258 12.5864 34.2025C12.1692 34.3132 11.7257 34.2646 11.3426 34.0661C10.9594 33.8675 10.664 33.5333 10.5143 33.1288C10.386 32.7119 10.4268 32.2613 10.6277 31.874C10.8287 31.4868 11.1738 31.1938 11.5887 31.0583C12.1259 30.9049 24.7891 27.1472 35.9173 33.819C36.2829 34.0623 36.5419 34.4356 36.6417 34.8631C36.7415 35.2905 36.6746 35.7398 36.4545 36.1196ZM39.6011 29.2178C39.4288 29.5147 39.183 29.7623 38.8874 29.9369C38.5917 30.1114 38.2561 30.2071 37.9127 30.2147C37.5673 30.2118 37.2267 30.1333 36.915 29.9847C24.5588 22.8528 12.0492 26.9939 11.8957 27.0706C11.6529 27.1546 11.3959 27.1897 11.1395 27.1738C10.883 27.1579 10.6323 27.0913 10.4018 26.9778C10.1714 26.8644 9.96572 26.7063 9.7968 26.5129C9.62789 26.3194 9.49908 26.0944 9.41784 25.8509C9.33659 25.6073 9.30452 25.3501 9.3235 25.0941C9.34247 24.838 9.4121 24.5883 9.52836 24.3594C9.64462 24.1305 9.8052 23.9268 10.0008 23.7604C10.1964 23.5939 10.4231 23.4679 10.6677 23.3896C15.3387 22.011 20.2395 21.5857 25.0784 22.139C29.9172 22.6923 34.5952 24.213 38.8336 26.6104C39.2778 26.858 39.6071 27.2698 39.7506 27.7574C39.8941 28.245 39.8404 28.7693 39.6011 29.2178ZM40.9825 22.4693C40.6006 22.486 40.2236 22.3784 39.9081 22.1626C25.6333 14.6472 10.9747 19.1718 10.8212 19.1718C10.5218 19.2757 10.2046 19.3188 9.88823 19.2986C9.57188 19.2783 9.26278 19.195 8.97907 19.0537C8.69537 18.9124 8.44279 18.7159 8.23617 18.4756C8.02955 18.2354 7.87306 17.9564 7.77589 17.6549C7.67872 17.3533 7.64283 17.0355 7.67033 16.7199C7.69783 16.4044 7.78816 16.0975 7.93602 15.8173C8.08388 15.5371 8.28629 15.2893 8.53135 15.0883C8.77641 14.8874 9.05918 14.7374 9.36306 14.6472C10.0538 14.4172 26.0938 9.5092 42.1337 17.9448C42.6903 18.2428 43.1071 18.7479 43.2938 19.3507C43.4805 19.9535 43.4222 20.6055 43.1314 21.1656C42.924 21.5562 42.6148 21.8836 42.2366 22.1131C41.8583 22.3425 41.425 22.4656 40.9825 22.4693Z" fill="black"/>
</g>
<defs>
<clipPath id="clip0_309_12406">
<rect width="167" height="50" fill="white"/>
</clipPath>
</defs>
</svg>
