<svg width="66" height="100" viewBox="0 0 66 100" fill="none" xmlns="http://www.w3.org/2000/svg">
<g clip-path="url(#clip0_309_12595)">
<path d="M0 0V100H65.6334V0H0ZM48.6397 18.5887V18.315H38.9424V25.747H46.4724V27.7749H38.9424V37.5025H36.6251C35.4891 37.2166 34.3205 37.0802 33.1492 37.0969C31.8018 37.0763 30.4666 37.3533 29.2385 37.908C28.0899 38.3766 27.0484 39.0735 26.1771 39.9564C25.3057 40.8393 24.6227 41.8899 24.1693 43.0446C23.6943 44.2024 23.4478 45.4412 23.4433 46.6927C23.4487 48.0315 23.6946 49.3586 24.1693 50.6105C24.5905 51.7923 25.2855 52.8575 26.1974 53.7192C27.1262 54.5849 28.2065 55.2723 29.3842 55.7471C30.7369 56.204 32.1562 56.4329 33.5839 56.4243C34.3111 56.4465 35.0388 56.4017 35.7577 56.2904C36.4532 56.1939 37.1343 56.0127 37.7859 55.751C38.5097 55.4793 39.0901 55.2116 39.6683 54.9399C40.1676 54.7005 40.6512 54.4296 41.1161 54.1288V48.1831H34.3078V46.2911H43.4334V55.0738L43.2899 55.2076C41.972 56.1159 40.5639 56.8858 39.0879 57.5051C37.3338 58.181 35.4631 58.5022 33.584 58.4502C31.8055 58.424 30.0435 58.1047 28.369 57.5051C26.8999 56.9976 25.5635 56.1668 24.4583 55.0738C23.4311 54.0105 22.5976 52.7759 21.9955 51.4257C21.4045 50.0141 21.1086 48.4966 21.126 46.9664C21.1208 45.4813 21.4166 44.0106 21.9955 42.643C22.5991 41.2936 23.4325 40.0592 24.4583 38.9949C24.7243 38.6109 25.0698 38.2886 25.4714 38.0499V18.5927H18.6631V16.5648H34.4492V18.5927H27.7865V36.5615C28.0735 36.4237 28.2213 36.4237 28.3648 36.2898C29.9707 35.6266 31.697 35.3048 33.434 35.3447C34.3534 35.3189 35.2735 35.3637 36.186 35.4787C36.3296 35.4787 36.6208 35.6126 36.7643 35.6126V16.5607H48.6397V18.315H48.6461L48.6397 18.5887Z" fill="black"/>
</g>
<defs>
<clipPath id="clip0_309_12595">
<rect width="65.6334" height="100" fill="white"/>
</clipPath>
</defs>
</svg>
