<svg width="160" height="46" viewBox="0 0 160 46" fill="none" xmlns="http://www.w3.org/2000/svg">
<g clip-path="url(#clip0_309_12647)">
<path d="M60.5271 11.4187H45.5194V14.9536H51.0077V30.6125H55.0388V14.9536H60.5271V11.4187Z" fill="black"/>
<path d="M63.6279 26.2403H63.5659L60.5581 16.7209H56.6822L61.3333 29.7752C61.4324 30.0541 61.4848 30.3475 61.4884 30.6434C61.4849 31.0407 61.3664 31.4284 61.1473 31.7597C61.0267 31.9304 60.8695 32.072 60.687 32.174C60.5046 32.2759 60.3016 32.3357 60.093 32.3489C59.731 32.3695 59.3679 32.3591 59.0077 32.3178L57.9535 32.2248V35.3566L59.0698 35.4496C59.4418 35.4806 59.8139 35.4806 60.186 35.4806C61.4263 35.4806 62.4186 35.2326 63.1008 34.7675C63.7829 34.3023 64.3411 33.4651 64.7442 32.3489L70.2636 16.7209H66.5116L63.6279 26.2403Z" fill="black"/>
<path d="M89.9845 17.4651C89.5435 17.0574 89.0122 16.7599 88.4341 16.5969C87.8011 16.4044 87.1422 16.3103 86.4806 16.3178C85.6294 16.2974 84.7936 16.5471 84.093 17.031C83.4524 17.4543 82.904 18.0028 82.4806 18.6434C82.1899 17.8714 81.6276 17.232 80.8992 16.8449C80.1836 16.5028 79.3977 16.3328 78.6046 16.3488C77.7903 16.3298 76.9862 16.5336 76.2791 16.938C75.5851 17.3629 74.9925 17.9343 74.5426 18.6124H74.4806V16.7209H71.0388V30.6124H74.6667V22.5504C74.6442 21.9891 74.7392 21.4293 74.9457 20.907C75.0867 20.5332 75.3216 20.2021 75.6279 19.9457C75.8677 19.7452 76.1405 19.5878 76.4341 19.4806C76.6532 19.4022 76.8836 19.3603 77.1163 19.3566C77.5819 19.3219 78.0471 19.43 78.4496 19.6666C78.7476 19.8585 78.976 20.1411 79.1008 20.4728C79.2235 20.8334 79.2965 21.2089 79.3178 21.5891C79.3488 21.9922 79.3488 22.3953 79.3488 22.7984V30.6124H82.9767V22.8604C82.9757 22.4349 83.0068 22.01 83.0698 21.5891C83.118 21.1959 83.2445 20.8163 83.4419 20.4728C83.622 20.1485 83.8772 19.8721 84.186 19.6666C84.559 19.4411 84.9912 19.3331 85.4264 19.3566C85.8476 19.3344 86.2667 19.4311 86.6357 19.6356C86.9231 19.8076 87.1588 20.054 87.3178 20.3488C87.4833 20.688 87.5782 21.0572 87.5969 21.4341C87.6279 21.8372 87.6589 22.2713 87.6589 22.7674V30.6434H91.2868V21.3411C91.3076 20.5596 91.1814 19.7813 90.9147 19.0465C90.7598 18.4423 90.4373 17.8941 89.9845 17.4651Z" fill="black"/>
<path d="M104.31 18.8606C103.781 18.0873 103.067 17.4585 102.233 17.0311C101.325 16.5556 100.311 16.3207 99.2868 16.349C98.3379 16.3391 97.3976 16.5292 96.5271 16.9071C95.7129 17.2677 94.9838 17.796 94.3876 18.4575C93.7806 19.1382 93.3073 19.9272 92.9922 20.7831C92.3413 22.6806 92.3304 24.7392 92.9612 26.6435C93.2547 27.496 93.7071 28.2852 94.2946 28.9691C94.8853 29.6214 95.6171 30.1304 96.4341 30.4575C97.3311 30.8162 98.2898 30.9953 99.2558 30.9846C100.618 31.0189 101.958 30.6406 103.101 29.8993C104.155 29.1862 104.961 27.9769 105.457 26.3334H102.264C102.093 26.8357 101.753 27.2631 101.302 27.5428C100.75 27.9349 100.088 28.1412 99.4108 28.1319C98.3876 28.1319 97.6124 27.8528 97.0543 27.2947C96.4961 26.7366 96.2171 25.8373 96.155 24.597H105.705C105.766 23.5569 105.682 22.5135 105.457 21.4962C105.249 20.5519 104.859 19.6568 104.31 18.8606ZM96.186 22.1784C96.2126 21.8749 96.2645 21.5741 96.3411 21.2792C96.4507 20.9091 96.6334 20.5647 96.8784 20.2665C97.1234 19.9682 97.4257 19.7221 97.7674 19.5428C98.218 19.3143 98.7203 19.2075 99.2248 19.2327C100.124 19.2327 100.775 19.4807 101.209 19.9769C101.706 20.6137 102.018 21.3757 102.109 22.1784H96.186Z" fill="black"/>
<path d="M117.829 20.4728V20.4108C118.293 20.3031 118.734 20.1142 119.132 19.8527C119.913 19.2858 120.49 18.4806 120.775 17.5581C120.925 17.0871 120.998 16.595 120.992 16.1007C121.026 15.3259 120.855 14.5557 120.496 13.8682C120.182 13.287 119.736 12.7877 119.194 12.4108C118.632 12.0295 117.999 11.7658 117.333 11.6356C116.609 11.4852 115.871 11.4124 115.132 11.4186H107.411V30.6124H115.132C115.988 30.6274 116.842 30.5336 117.674 30.3333C118.302 30.1743 118.907 29.9346 119.473 29.6201C119.918 29.3451 120.316 28.9996 120.651 28.5969C120.927 28.2284 121.147 27.8208 121.302 27.3876C121.445 27.0063 121.549 26.6115 121.612 26.2093C121.661 25.8705 121.682 25.5282 121.674 25.186C121.711 24.0398 121.337 22.9181 120.62 22.0232C120.287 21.5861 119.867 21.2227 119.387 20.9558C118.907 20.689 118.376 20.5245 117.829 20.4728ZM109.147 12.969H115.132C117.891 12.969 119.256 14.1783 119.256 16.5659C119.251 17.0012 119.167 17.4321 119.008 17.8372C118.832 18.2339 118.567 18.5842 118.233 18.8604C117.858 19.1764 117.426 19.4184 116.961 19.5736C116.367 19.7448 115.75 19.8283 115.132 19.8217H109.147V12.969ZM119.566 27.0155C119.327 27.5041 118.963 27.9211 118.512 28.2248C118.05 28.549 117.519 28.7614 116.961 28.8449C116.359 28.9697 115.746 29.0321 115.132 29.031H109.147V21.3721H115.132C116.682 21.3721 117.891 21.6821 118.698 22.3023C119.504 22.9224 119.938 23.8527 119.938 25.093C119.962 25.7538 119.835 26.4113 119.566 27.0155Z" fill="black"/>
<path d="M133.209 28.1627V20.7829C133.237 20.0053 133.089 19.2314 132.775 18.5193C132.526 17.9766 132.141 17.5069 131.659 17.155C131.187 16.8441 130.661 16.6233 130.109 16.5038C129.538 16.3791 128.956 16.3167 128.372 16.3178C127.66 16.3107 126.95 16.4047 126.264 16.5968C125.667 16.7681 125.109 17.0523 124.62 17.434C124.142 17.8283 123.76 18.3268 123.504 18.8914C123.212 19.5585 123.044 20.2729 123.008 20.9999H124.62C124.651 19.8836 124.992 19.0464 125.643 18.5503C126.37 18.0185 127.255 17.7456 128.155 17.7751C128.603 17.7673 129.05 17.8089 129.488 17.8991C129.883 17.9784 130.26 18.1253 130.605 18.3333C130.923 18.5544 131.179 18.8533 131.349 19.2015C131.552 19.6487 131.647 20.1371 131.628 20.6278C131.636 20.9348 131.583 21.2404 131.473 21.5271C131.394 21.7474 131.254 21.9409 131.07 22.0852C130.873 22.2205 130.652 22.3154 130.419 22.3643C130.122 22.4272 129.822 22.4686 129.519 22.4883C128.651 22.5813 127.783 22.7053 126.946 22.8294C126.156 22.9288 125.384 23.1375 124.651 23.4495C124.012 23.7099 123.454 24.1385 123.039 24.6898C122.596 25.3592 122.379 26.1521 122.419 26.9534C122.409 27.5799 122.525 28.2019 122.76 28.7829C122.979 29.2741 123.308 29.7089 123.721 30.0542C124.123 30.3997 124.601 30.6442 125.116 30.7674C125.682 30.9214 126.267 30.9945 126.853 30.9844C127.417 30.9945 127.979 30.932 128.527 30.7984C128.965 30.6855 129.383 30.5078 129.767 30.2712C130.147 30.0423 130.482 29.7484 130.76 29.403C131.089 29.0226 131.389 28.6184 131.659 28.1937H131.721C131.724 28.5253 131.745 28.8565 131.783 29.186C131.804 29.4648 131.901 29.7327 132.062 29.9612C132.205 30.1808 132.41 30.3533 132.651 30.4573C132.964 30.5931 133.303 30.6567 133.643 30.6433C133.83 30.6503 134.017 30.6399 134.202 30.6123C134.369 30.5936 134.535 30.5625 134.698 30.5193V29.0929C134.53 29.1592 134.351 29.1908 134.171 29.186C133.519 29.186 133.209 28.8449 133.209 28.1627ZM131.597 25.217C131.609 25.8467 131.482 26.4714 131.225 27.0464C130.985 27.5607 130.648 28.0239 130.233 28.4108C129.801 28.7825 129.308 29.0762 128.775 29.279C128.207 29.477 127.61 29.5817 127.008 29.5891C126.628 29.5878 126.251 29.525 125.891 29.403C125.536 29.2856 125.209 29.0955 124.93 28.8449C124.654 28.6053 124.432 28.3093 124.279 27.9767C124.114 27.617 124.029 27.2253 124.031 26.8294C124.011 26.539 124.053 26.2476 124.154 25.9748C124.256 25.702 124.415 25.4542 124.62 25.248C125.032 24.8559 125.532 24.5687 126.078 24.4108C126.725 24.2089 127.389 24.0637 128.062 23.9767C128.775 23.8836 129.488 23.7596 130.171 23.6356C130.433 23.5926 130.692 23.5304 130.946 23.4495C131.069 23.4235 131.186 23.3712 131.287 23.2963C131.389 23.2214 131.473 23.1257 131.535 23.0154H131.597V25.217Z" fill="black"/>
<path d="M145.612 17.7753C145.218 17.299 144.704 16.9354 144.124 16.721C143.379 16.4519 142.59 16.3257 141.798 16.3489C140.882 16.3382 139.983 16.6088 139.225 17.1241C138.467 17.6074 137.89 18.3265 137.581 19.1706H137.519V16.783H135.907V30.6745H137.519V22.5194C137.539 21.8781 137.644 21.2421 137.829 20.628C138.003 20.0766 138.277 19.5617 138.636 19.1086C138.98 18.6867 139.414 18.3475 139.907 18.1163C140.449 17.8593 141.044 17.7319 141.643 17.7443C142.198 17.7207 142.75 17.8268 143.256 18.0543C143.676 18.2492 144.032 18.5615 144.279 18.9536C144.547 19.356 144.726 19.8103 144.806 20.2869C144.908 20.8288 144.96 21.3789 144.961 21.9303V30.5815H146.574V21.6512C146.588 20.9012 146.515 20.152 146.357 19.4187C146.264 18.813 146.007 18.2444 145.612 17.7753Z" fill="black"/>
<path d="M153.984 21.8683L159.597 16.721H157.457L150.14 23.4497V11.4187H148.527V30.6125H150.14V25.3412L152.744 23.0466L157.953 30.6125H160L153.984 21.8683Z" fill="black"/>
<path d="M26.3876 0.379883L0 5.80624V10.2093L24.155 6.02329L38.0465 11.1706V7.97678L26.3876 0.379883Z" fill="black"/>
<path d="M0 11.8528V16.4109L20.8062 14.6435L38.0465 16.5349V12.5039L23.2868 8.28687L0 11.8528Z" fill="black"/>
<path d="M0 17.8992V22.5504L16.8992 23.7597L38.0465 22.7054V17.9302L19.845 16.783L0 17.8992Z" fill="black"/>
<path d="M0 27.8528L13.5504 32.1939L38.0465 28.752V24.1318L15.938 25.8373L0 23.9768V27.8528Z" fill="black"/>
<path d="M0 32.2558L10.4496 40.0387L38.0465 34.8915V30.4574L12.6202 34.4574L0 29.217V32.2558Z" fill="black"/>
<path d="M160 42.4574C160.032 42.1329 159.95 41.8076 159.769 41.5363C159.588 41.2651 159.319 41.0647 159.008 40.969L157.829 40.3488C157.457 40.1628 157.271 39.9768 157.271 39.7287V39.6047C157.274 39.5451 157.29 39.4867 157.316 39.4333C157.343 39.38 157.38 39.3327 157.426 39.2946C157.579 39.2133 157.749 39.1707 157.922 39.1706H159.473C159.498 39.1742 159.524 39.1719 159.548 39.1638C159.572 39.1557 159.594 39.1421 159.612 39.1241C159.631 39.106 159.644 39.084 159.652 39.0598C159.66 39.0356 159.663 39.0098 159.659 38.9845V38.4574C159.663 38.4321 159.66 38.4063 159.652 38.3821C159.644 38.3579 159.631 38.3359 159.612 38.3178C159.594 38.2997 159.572 38.2861 159.548 38.2781C159.524 38.27 159.498 38.2677 159.473 38.2713H157.705C156.682 38.2713 156.186 38.7364 156.186 39.6977C156.178 39.996 156.265 40.2891 156.434 40.5349C156.648 40.7842 156.912 40.985 157.209 41.124L158.357 41.6822C158.501 41.7283 158.627 41.8194 158.716 41.9421C158.806 42.0647 158.853 42.2127 158.853 42.3644V42.4884C158.853 42.8295 158.636 42.9845 158.171 42.9845H156.372C156.347 42.9809 156.321 42.9832 156.297 42.9912C156.273 42.9993 156.251 43.0129 156.232 43.031C156.214 43.049 156.201 43.071 156.193 43.0953C156.185 43.1195 156.182 43.1453 156.186 43.1706V43.6977C156.182 43.723 156.185 43.7487 156.193 43.773C156.201 43.7972 156.214 43.8192 156.232 43.8373C156.251 43.8553 156.273 43.8689 156.297 43.877C156.321 43.8851 156.347 43.8874 156.372 43.8837H158.326C159.473 43.9147 160 43.4186 160 42.4574ZM154.326 43.9147H155.008C155.07 43.9147 155.101 43.9147 155.132 43.8837C155.163 43.8527 155.163 43.8217 155.163 43.7287V38.4884C155.166 38.4631 155.164 38.4373 155.156 38.4131C155.148 38.3889 155.134 38.3669 155.116 38.3488C155.098 38.3307 155.076 38.3171 155.052 38.3091C155.028 38.301 155.002 38.2987 154.977 38.3023H154.295C154.171 38.3023 154.14 38.3644 154.14 38.4884V43.7287C154.136 43.754 154.138 43.7797 154.146 43.804C154.154 43.8282 154.168 43.8502 154.186 43.8683C154.204 43.8863 154.226 43.8999 154.25 43.908C154.275 43.9161 154.3 43.9184 154.326 43.9147ZM154.326 37.5271H155.008C155.033 37.5308 155.059 37.5285 155.083 37.5204C155.107 37.5123 155.129 37.4987 155.147 37.4807C155.165 37.4626 155.179 37.4406 155.187 37.4164C155.195 37.3921 155.197 37.3664 155.194 37.3411V36.3489C155.197 36.3236 155.195 36.2978 155.187 36.2736C155.179 36.2493 155.165 36.2273 155.147 36.2093C155.129 36.1912 155.107 36.1776 155.083 36.1695C155.059 36.1615 155.033 36.1592 155.008 36.1628H154.326C154.202 36.1628 154.171 36.2248 154.171 36.3489V37.3411C154.14 37.4651 154.202 37.5271 154.326 37.5271ZM149.736 43.7287V40.1628C149.736 39.5426 150.015 39.2326 150.605 39.2326H151.101C151.628 39.2326 151.876 39.5116 151.876 40.0388V43.6977C151.872 43.723 151.875 43.7487 151.883 43.773C151.891 43.7972 151.904 43.8192 151.922 43.8373C151.94 43.8553 151.962 43.8689 151.987 43.877C152.011 43.8851 152.037 43.8874 152.062 43.8837H152.744C152.769 43.8874 152.795 43.8851 152.819 43.877C152.844 43.8689 152.866 43.8553 152.884 43.8373C152.902 43.8192 152.915 43.7972 152.923 43.773C152.932 43.7487 152.934 43.723 152.93 43.6977V39.9768C152.964 39.5169 152.82 39.0616 152.527 38.7054C152.37 38.5582 152.184 38.444 151.982 38.3695C151.779 38.2949 151.564 38.2616 151.349 38.2713H150.884C150.326 38.2713 149.984 38.4574 149.798 38.8605H149.767V36.3489C149.771 36.3236 149.769 36.2978 149.761 36.2736C149.753 36.2493 149.739 36.2273 149.721 36.2093C149.703 36.1912 149.681 36.1776 149.657 36.1695C149.632 36.1615 149.607 36.1592 149.581 36.1628H148.899C148.874 36.1592 148.848 36.1615 148.824 36.1695C148.8 36.1776 148.778 36.1912 148.76 36.2093C148.742 36.2273 148.728 36.2493 148.72 36.2736C148.712 36.2978 148.71 36.3236 148.713 36.3489V43.6977C148.71 43.723 148.712 43.7487 148.72 43.773C148.728 43.7972 148.742 43.8192 148.76 43.8373C148.778 43.8553 148.8 43.8689 148.824 43.877C148.848 43.8851 148.874 43.8874 148.899 43.8837H149.581C149.674 43.9147 149.736 43.8527 149.736 43.7287ZM145.333 39.3256V42.2093C145.308 42.4354 145.333 42.6645 145.408 42.8793C145.483 43.0941 145.606 43.2893 145.767 43.4502C145.928 43.6111 146.123 43.7337 146.338 43.8088C146.553 43.8838 146.782 43.9094 147.008 43.8837H147.597C147.622 43.8874 147.648 43.8851 147.672 43.877C147.696 43.8689 147.718 43.8553 147.736 43.8373C147.755 43.8192 147.768 43.7972 147.776 43.773C147.784 43.7487 147.787 43.723 147.783 43.6977V43.1395C147.787 43.1143 147.784 43.0885 147.776 43.0643C147.768 43.04 147.755 43.018 147.736 43C147.718 42.9819 147.696 42.9683 147.672 42.9602C147.648 42.9522 147.622 42.9499 147.597 42.9535H147.194C147.085 42.9671 146.974 42.9556 146.87 42.9199C146.766 42.8842 146.671 42.8252 146.594 42.7474C146.516 42.6697 146.457 42.5752 146.421 42.4712C146.386 42.3672 146.374 42.2564 146.388 42.1473V39.3256C146.386 39.3089 146.388 39.2922 146.394 39.2765C146.4 39.2608 146.409 39.2466 146.421 39.2348C146.433 39.2229 146.447 39.2139 146.463 39.2081C146.478 39.2024 146.495 39.2001 146.512 39.2016H147.504C147.529 39.2052 147.555 39.2029 147.579 39.1948C147.603 39.1868 147.625 39.1732 147.643 39.1551C147.661 39.137 147.675 39.115 147.683 39.0908C147.691 39.0666 147.694 39.0408 147.69 39.0155V38.4574C147.694 38.4321 147.691 38.4063 147.683 38.3821C147.675 38.3579 147.661 38.3359 147.643 38.3178C147.625 38.2997 147.603 38.2861 147.579 38.2781C147.555 38.27 147.529 38.2677 147.504 38.2713H146.512C146.419 38.2713 146.388 38.2403 146.388 38.1473V37.1551C146.391 37.1298 146.389 37.104 146.381 37.0798C146.373 37.0555 146.359 37.0335 146.341 37.0155C146.323 36.9974 146.301 36.9838 146.277 36.9757C146.253 36.9677 146.227 36.9654 146.202 36.969H145.519C145.494 36.9654 145.468 36.9677 145.444 36.9757C145.42 36.9838 145.398 36.9974 145.38 37.0155C145.362 37.0335 145.348 37.0555 145.34 37.0798C145.332 37.104 145.33 37.1298 145.333 37.1551V38.1473C145.333 38.2093 145.302 38.2713 145.24 38.2713H144.744C144.719 38.2677 144.693 38.27 144.669 38.2781C144.645 38.2861 144.623 38.2997 144.605 38.3178C144.587 38.3359 144.573 38.3579 144.565 38.3821C144.557 38.4063 144.554 38.4321 144.558 38.4574V39.0155C144.558 39.0775 144.558 39.1395 144.589 39.1395C144.639 39.1565 144.691 39.1669 144.744 39.1706H145.24C145.302 39.2326 145.333 39.2636 145.333 39.3256ZM139.597 39.3256V42.2093C139.572 42.6639 139.728 43.1099 140.031 43.4496C140.374 43.7478 140.818 43.9032 141.271 43.8837H141.86C141.886 43.8874 141.911 43.8851 141.936 43.877C141.96 43.8689 141.982 43.8553 142 43.8373C142.018 43.8192 142.032 43.7972 142.04 43.773C142.048 43.7487 142.05 43.723 142.046 43.6977V43.1395C142.05 43.1143 142.048 43.0885 142.04 43.0643C142.032 43.04 142.018 43.018 142 43C141.982 42.9819 141.96 42.9683 141.936 42.9602C141.911 42.9522 141.886 42.9499 141.86 42.9535H141.457C141.348 42.9671 141.237 42.9556 141.133 42.9199C141.029 42.8842 140.935 42.8252 140.857 42.7474C140.779 42.6697 140.72 42.5752 140.685 42.4712C140.649 42.3672 140.638 42.2564 140.651 42.1473V39.3256C140.65 39.3089 140.652 39.2922 140.658 39.2765C140.663 39.2608 140.673 39.2466 140.684 39.2348C140.696 39.2229 140.71 39.2139 140.726 39.2081C140.742 39.2024 140.759 39.2001 140.775 39.2016H141.767C141.793 39.2052 141.818 39.2029 141.843 39.1948C141.867 39.1868 141.889 39.1732 141.907 39.1551C141.925 39.137 141.939 39.115 141.947 39.0908C141.955 39.0666 141.957 39.0408 141.953 39.0155V38.4574C141.957 38.4321 141.955 38.4063 141.947 38.3821C141.939 38.3579 141.925 38.3359 141.907 38.3178C141.889 38.2997 141.867 38.2861 141.843 38.2781C141.818 38.27 141.793 38.2677 141.767 38.2713H140.775C140.682 38.2713 140.651 38.2403 140.651 38.1473V37.1551C140.655 37.1298 140.652 37.104 140.644 37.0798C140.636 37.0555 140.623 37.0335 140.605 37.0155C140.587 36.9974 140.565 36.9838 140.54 36.9757C140.516 36.9677 140.49 36.9654 140.465 36.969H139.783C139.758 36.9654 139.732 36.9677 139.708 36.9757C139.683 36.9838 139.661 36.9974 139.643 37.0155C139.625 37.0335 139.612 37.0555 139.604 37.0798C139.596 37.104 139.593 37.1298 139.597 37.1551V38.1473C139.597 38.2093 139.566 38.2713 139.504 38.2713H139.008C138.982 38.2677 138.957 38.27 138.932 38.2781C138.908 38.2861 138.886 38.2997 138.868 38.3178C138.85 38.3359 138.836 38.3579 138.828 38.3821C138.82 38.4063 138.818 38.4321 138.822 38.4574V39.0155C138.822 39.0775 138.822 39.1395 138.853 39.1395C138.884 39.1395 138.915 39.1706 139.008 39.1706H139.504C139.566 39.2326 139.597 39.2636 139.597 39.3256ZM135.163 42.7675C135.023 42.5923 134.957 42.3702 134.977 42.1473V40.0078C134.957 39.7848 135.023 39.5628 135.163 39.3876C135.243 39.3186 135.337 39.2666 135.438 39.2347C135.54 39.2027 135.646 39.1914 135.752 39.2016H136.403C136.51 39.1912 136.618 39.2052 136.719 39.2426C136.82 39.2799 136.911 39.3396 136.986 39.4171C137.06 39.4947 137.116 39.5881 137.15 39.6904C137.183 39.7927 137.193 39.9012 137.178 40.0078V42.1473C137.178 42.6744 136.93 42.9535 136.403 42.9535H135.752C135.539 42.9685 135.328 42.902 135.163 42.7675ZM137.767 43.4496C138.066 43.107 138.221 42.6631 138.202 42.2093V40.0078C138.22 39.5447 138.065 39.0914 137.767 38.7364C137.608 38.583 137.418 38.465 137.209 38.3902C137.001 38.3154 136.779 38.2855 136.558 38.3023H135.628C135.407 38.2898 135.187 38.3217 134.979 38.3963C134.771 38.4709 134.581 38.5866 134.419 38.7364C134.115 39.0884 133.96 39.5439 133.984 40.0078V42.2093C133.959 42.6639 134.116 43.1099 134.419 43.4496C134.575 43.6098 134.764 43.7343 134.972 43.8146C135.181 43.8949 135.405 43.929 135.628 43.9147H136.558C136.781 43.9266 137.004 43.8913 137.212 43.8112C137.421 43.731 137.61 43.6078 137.767 43.4496ZM130.915 42.6744H130.419C129.922 42.6744 129.674 42.3954 129.674 41.8682V40.0388C129.674 39.4806 129.922 39.2326 130.419 39.2326H131.69C131.783 39.2326 131.814 39.2636 131.814 39.3566V41.7752C131.83 41.897 131.817 42.0208 131.778 42.1371C131.738 42.2533 131.672 42.359 131.585 42.4458C131.498 42.5327 131.393 42.5984 131.277 42.6381C131.16 42.6777 131.037 42.6901 130.915 42.6744ZM131.752 43.0465H131.783V43.8837C131.783 44.4419 131.535 44.6899 131.008 44.6899H129.178C129.153 44.6863 129.127 44.6886 129.103 44.6967C129.079 44.7047 129.057 44.7183 129.039 44.7364C129.021 44.7545 129.007 44.7765 128.999 44.8007C128.991 44.8249 128.989 44.8507 128.992 44.876V45.4341C128.989 45.4594 128.991 45.4852 128.999 45.5094C129.007 45.5336 129.021 45.5556 129.039 45.5737C129.057 45.5918 129.079 45.6054 129.103 45.6134C129.127 45.6215 129.153 45.6238 129.178 45.6202H131.194C131.414 45.6327 131.635 45.6008 131.843 45.5262C132.05 45.4516 132.241 45.3359 132.403 45.1861C132.701 44.8435 132.857 44.3995 132.837 43.9457V38.4884C132.841 38.4631 132.839 38.4373 132.83 38.4131C132.822 38.3889 132.809 38.3669 132.791 38.3488C132.773 38.3307 132.751 38.3171 132.726 38.3091C132.702 38.301 132.676 38.2987 132.651 38.3023H130.264C130.043 38.2898 129.822 38.3217 129.615 38.3963C129.407 38.4709 129.216 38.5866 129.054 38.7364C128.751 39.0884 128.596 39.5439 128.62 40.0078V41.9302C128.586 42.3901 128.73 42.8454 129.023 43.2016C129.175 43.3572 129.359 43.4769 129.563 43.552C129.767 43.6271 129.985 43.6557 130.202 43.6357H130.667C130.886 43.6581 131.107 43.6139 131.3 43.5088C131.494 43.4036 131.651 43.2425 131.752 43.0465ZM122.388 40.7209V40.0078C122.368 39.7848 122.434 39.5628 122.574 39.3876C122.654 39.3186 122.748 39.2666 122.849 39.2347C122.95 39.2027 123.057 39.1914 123.163 39.2016H123.752C123.858 39.1914 123.964 39.2027 124.065 39.2347C124.167 39.2666 124.26 39.3186 124.341 39.3876C124.48 39.5628 124.547 39.7848 124.527 40.0078V40.7209C124.527 40.783 124.496 40.845 124.434 40.845H122.543C122.419 40.845 122.388 40.814 122.388 40.7209ZM125.488 43.7287V43.1706C125.492 43.1453 125.49 43.1195 125.482 43.0953C125.474 43.071 125.46 43.049 125.442 43.031C125.424 43.0129 125.402 42.9993 125.378 42.9912C125.353 42.9832 125.328 42.9809 125.302 42.9845H123.163C122.636 42.9845 122.388 42.7054 122.388 42.1783V41.7132C122.386 41.6965 122.388 41.6798 122.394 41.6641C122.4 41.6484 122.409 41.6342 122.421 41.6223C122.433 41.6105 122.447 41.6014 122.463 41.5957C122.478 41.59 122.495 41.5877 122.512 41.5892H125.364C125.39 41.5928 125.415 41.5905 125.44 41.5824C125.464 41.5744 125.486 41.5608 125.504 41.5427C125.522 41.5246 125.536 41.5026 125.544 41.4784C125.552 41.4542 125.554 41.4284 125.55 41.4031V40.0078C125.569 39.5447 125.414 39.0914 125.116 38.7364C124.952 38.5804 124.757 38.461 124.543 38.3862C124.329 38.3113 124.102 38.2828 123.876 38.3023H123.008C122.787 38.2898 122.567 38.3217 122.359 38.3963C122.151 38.4709 121.961 38.5866 121.798 38.7364C121.495 39.0884 121.34 39.5439 121.364 40.0078V42.2093C121.339 42.6639 121.495 43.1099 121.798 43.4496C121.955 43.6098 122.143 43.7343 122.352 43.8146C122.561 43.8949 122.785 43.929 123.008 43.9147H125.302C125.328 43.9184 125.353 43.9161 125.378 43.908C125.402 43.8999 125.424 43.8863 125.442 43.8683C125.46 43.8502 125.474 43.8282 125.482 43.804C125.49 43.7797 125.492 43.754 125.488 43.7287ZM116.31 38.4884L117.736 43.7287C117.74 43.7573 117.75 43.7849 117.764 43.8098C117.779 43.8347 117.798 43.8565 117.821 43.8738C117.844 43.8912 117.871 43.9037 117.899 43.9107C117.927 43.9178 117.956 43.9191 117.984 43.9147H119.008C119.065 43.919 119.121 43.9025 119.167 43.8683C119.212 43.8341 119.244 43.7845 119.256 43.7287L120.682 38.4884C120.713 38.3644 120.682 38.3023 120.558 38.3023H119.845C119.792 38.2989 119.739 38.3164 119.699 38.3512C119.658 38.3859 119.633 38.4352 119.628 38.4884L118.543 42.9225H118.481L117.364 38.4884C117.36 38.4352 117.334 38.3859 117.294 38.3512C117.253 38.3164 117.201 38.2989 117.147 38.3023H116.434C116.341 38.3023 116.31 38.3644 116.31 38.4884ZM115.504 38.4574L115.721 36.876C115.721 36.814 115.721 36.783 115.69 36.752C115.659 36.7209 115.628 36.7209 115.566 36.7209H114.946C114.822 36.7209 114.76 36.783 114.791 36.876L115.008 38.4264C115.004 38.4516 115.006 38.4774 115.014 38.5016C115.023 38.5259 115.036 38.5479 115.054 38.566C115.072 38.584 115.094 38.5976 115.119 38.6057C115.143 38.6137 115.169 38.616 115.194 38.6124H115.318C115.362 38.6113 115.404 38.5953 115.438 38.5672C115.472 38.5391 115.495 38.5004 115.504 38.4574ZM112.93 43.3256H112.961V43.7287C112.958 43.754 112.96 43.7797 112.968 43.804C112.976 43.8282 112.99 43.8502 113.008 43.8683C113.026 43.8863 113.048 43.8999 113.072 43.908C113.096 43.9161 113.122 43.9184 113.147 43.9147H113.829C113.855 43.9184 113.88 43.9161 113.905 43.908C113.929 43.8999 113.951 43.8863 113.969 43.8683C113.987 43.8502 114.001 43.8282 114.009 43.804C114.017 43.7797 114.019 43.754 114.015 43.7287V38.4884C114.019 38.4631 114.017 38.4373 114.009 38.4131C114.001 38.3889 113.987 38.3669 113.969 38.3488C113.951 38.3307 113.929 38.3171 113.905 38.3091C113.88 38.301 113.855 38.2987 113.829 38.3023H113.147C113.122 38.2987 113.096 38.301 113.072 38.3091C113.048 38.3171 113.026 38.3307 113.008 38.3488C112.99 38.3669 112.976 38.3889 112.968 38.4131C112.96 38.4373 112.958 38.4631 112.961 38.4884V42.0543C112.961 42.6744 112.682 42.9845 112.093 42.9845H111.597C111.49 42.9948 111.382 42.9808 111.281 42.9435C111.18 42.9062 111.089 42.8465 111.014 42.7689C110.94 42.6914 110.884 42.598 110.85 42.4957C110.817 42.3934 110.807 42.2849 110.822 42.1783V38.4884C110.825 38.4631 110.823 38.4373 110.815 38.4131C110.807 38.3889 110.793 38.3669 110.775 38.3488C110.757 38.3307 110.735 38.3171 110.711 38.3091C110.687 38.301 110.661 38.2987 110.636 38.3023H109.953C109.928 38.2987 109.902 38.301 109.878 38.3091C109.854 38.3171 109.832 38.3307 109.814 38.3488C109.796 38.3669 109.782 38.3889 109.774 38.4131C109.766 38.4373 109.764 38.4631 109.767 38.4884V42.2093C109.733 42.6692 109.878 43.1245 110.171 43.4806C110.322 43.6362 110.507 43.756 110.711 43.8311C110.914 43.9062 111.132 43.9348 111.349 43.9147H111.814C112.403 43.9147 112.744 43.6977 112.93 43.3256ZM105.674 42.7675C105.535 42.5923 105.468 42.3702 105.488 42.1473V40.0078C105.468 39.7848 105.535 39.5628 105.674 39.3876C105.755 39.3186 105.849 39.2666 105.95 39.2347C106.051 39.2027 106.158 39.1914 106.264 39.2016H106.915C107.022 39.1912 107.13 39.2052 107.231 39.2426C107.332 39.2799 107.423 39.3396 107.497 39.4171C107.572 39.4947 107.628 39.5881 107.661 39.6904C107.695 39.7927 107.704 39.9012 107.69 40.0078V42.1473C107.69 42.6744 107.442 42.9535 106.915 42.9535H106.264C106.158 42.9636 106.051 42.9524 105.95 42.9204C105.849 42.8884 105.755 42.8364 105.674 42.7675ZM108.279 43.4496C108.433 43.2839 108.551 43.0882 108.625 42.8747C108.7 42.6613 108.73 42.4348 108.713 42.2093V40.0078C108.732 39.5447 108.577 39.0914 108.279 38.7364C108.119 38.583 107.929 38.465 107.721 38.3902C107.512 38.3154 107.291 38.2855 107.07 38.3023H106.14C105.919 38.2898 105.698 38.3217 105.491 38.3963C105.283 38.4709 105.092 38.5866 104.93 38.7364C104.627 39.0884 104.471 39.5439 104.496 40.0078V42.2093C104.471 42.6639 104.627 43.1099 104.93 43.4496C105.086 43.6098 105.275 43.7343 105.484 43.8146C105.693 43.8949 105.916 43.929 106.14 43.9147H107.07C107.292 43.9236 107.514 43.8869 107.722 43.8069C107.93 43.7269 108.12 43.6054 108.279 43.4496ZM102.481 43.7287V41.3101L104.465 37.062C104.48 37.0391 104.489 37.0121 104.489 36.9845C104.489 36.9569 104.48 36.9299 104.465 36.907C104.45 36.8881 104.432 36.8727 104.41 36.862C104.389 36.8512 104.365 36.8454 104.341 36.845H103.504C103.452 36.8463 103.402 36.8655 103.362 36.8994C103.323 36.9333 103.296 36.9798 103.287 37.031L101.984 40.0698H101.922L100.62 37.031C100.558 36.907 100.496 36.845 100.403 36.845H99.5659C99.5419 36.8454 99.5183 36.8512 99.4969 36.862C99.4754 36.8727 99.4566 36.8881 99.4419 36.907C99.4265 36.9299 99.4183 36.9569 99.4183 36.9845C99.4183 37.0121 99.4265 37.0391 99.4419 37.062L101.426 41.3101V43.7287C101.423 43.754 101.425 43.7797 101.433 43.804C101.441 43.8282 101.455 43.8502 101.473 43.8683C101.491 43.8863 101.513 43.8999 101.537 43.908C101.561 43.9161 101.587 43.9184 101.612 43.9147H102.295C102.32 43.9184 102.346 43.9161 102.37 43.908C102.394 43.8999 102.416 43.8863 102.434 43.8683C102.452 43.8502 102.466 43.8282 102.474 43.804C102.482 43.7797 102.484 43.754 102.481 43.7287Z" fill="black"/>
</g>
<defs>
<clipPath id="clip0_309_12647">
<rect width="160" height="45.2403" fill="white" transform="translate(0 0.379883)"/>
</clipPath>
</defs>
</svg>
