<svg width="126" height="60" viewBox="0 0 126 60" fill="none" xmlns="http://www.w3.org/2000/svg">
<g clip-path="url(#clip0_309_12437)">
<path d="M33.2005 7.94108C33.2005 7.08358 33.5411 6.2612 34.1474 5.65486C34.7538 5.04851 35.5762 4.70787 36.4337 4.70787C37.2912 4.70787 38.1135 5.04851 38.7199 5.65486C39.3262 6.2612 39.6669 7.08358 39.6669 7.94108V11.9225H33.2005V7.94108ZM28.5309 7.91377V20.5954C28.5309 22.6957 29.3652 24.7099 30.8504 26.1951C32.3355 27.6802 34.3498 28.5145 36.4501 28.5145C38.5503 28.5145 40.5646 27.6802 42.0498 26.1951C43.5349 24.7099 44.3692 22.6957 44.3692 20.5954H39.6778C39.6778 21.4529 39.3372 22.2752 38.7308 22.8816C38.1245 23.4879 37.3021 23.8286 36.4446 23.8286C35.5871 23.8286 34.7647 23.4879 34.1584 22.8816C33.552 22.2752 33.2114 21.4529 33.2114 20.5954V16.5921H44.3528V7.91377C44.3528 5.81782 43.5202 3.80772 42.0382 2.32566C40.5561 0.843598 38.546 0.0109863 36.4501 0.0109863C34.3541 0.0109863 32.344 0.843598 30.8619 2.32566C29.3799 3.80772 28.5473 5.81782 28.5473 7.91377" fill="black"/>
<path d="M39.6832 7.94108V11.9225H33.2004V7.94108C33.2004 7.08358 33.5411 6.2612 34.1474 5.65486C34.7538 5.04851 35.5761 4.70787 36.4336 4.70787C37.2911 4.70787 38.1135 5.04851 38.7199 5.65486C39.3262 6.2612 39.6668 7.08358 39.6668 7.94108H39.6832ZM39.6832 16.5866H44.3528V7.91377C44.3528 5.81782 43.5202 3.80772 42.0381 2.32566C40.5561 0.843599 38.546 0.0109863 36.45 0.0109863C34.3541 0.0109863 32.344 0.843599 30.8619 2.32566C29.3799 3.80772 28.5472 5.81782 28.5472 7.91377V20.5954C28.5472 22.6957 29.3816 24.7099 30.8667 26.1951C32.3518 27.6802 34.3661 28.5145 36.4664 28.5145C38.5667 28.5145 40.581 27.6802 42.0661 26.1951C43.5512 24.7099 44.3856 22.6957 44.3856 20.5954H39.6778C39.6778 21.4529 39.3371 22.2752 38.7308 22.8816C38.1244 23.4879 37.3021 23.8286 36.4446 23.8286C35.5871 23.8286 34.7647 23.4879 34.1583 22.8816C33.552 22.2752 33.2114 21.4529 33.2114 20.5954V16.5866H39.6832Z" fill="black"/>
<path d="M113.867 7.94108C113.849 7.51672 113.915 7.09303 114.061 6.69423C114.207 6.29542 114.431 5.92932 114.718 5.61683C115.006 5.30434 115.352 5.05159 115.738 4.87301C116.123 4.69444 116.54 4.59355 116.964 4.57609C117.389 4.55864 117.812 4.62498 118.211 4.77131C118.61 4.91763 118.976 5.14109 119.288 5.42891C119.6 5.71672 119.853 6.06326 120.031 6.44872C120.21 6.83418 120.31 7.25101 120.328 7.67539C120.331 7.76391 120.331 7.85248 120.328 7.94108V20.5954C120.345 21.0197 120.279 21.4434 120.133 21.8422C119.987 22.241 119.764 22.6071 119.476 22.9196C119.188 23.2321 118.842 23.4849 118.457 23.6634C118.071 23.842 117.654 23.9429 117.23 23.9604C116.806 23.9778 116.382 23.9115 115.983 23.7651C115.585 23.6188 115.219 23.3954 114.906 23.1075C114.594 22.8197 114.341 22.4732 114.163 22.0877C113.985 21.7023 113.884 21.2854 113.867 20.8611C113.863 20.7725 113.863 20.684 113.867 20.5954V7.94108ZM109.197 7.91377V20.5954C109.251 22.6561 110.108 24.6142 111.585 26.0525C113.061 27.4909 115.041 28.2958 117.103 28.2958C119.164 28.2958 121.144 27.4909 122.621 26.0525C124.097 24.6142 124.954 22.6561 125.008 20.5954V7.91377C125.008 6.87596 124.804 5.84832 124.407 4.88951C124.009 3.9307 123.427 3.0595 122.694 2.32566C121.96 1.59182 121.088 1.0097 120.13 0.61255C119.171 0.215398 118.143 0.0109863 117.105 0.0109863C116.068 0.0109863 115.04 0.215398 114.081 0.61255C113.122 1.0097 112.251 1.59182 111.517 2.32566C110.783 3.0595 110.201 3.9307 109.804 4.88951C109.407 5.84832 109.203 6.87596 109.203 7.91377" fill="black"/>
<path d="M93.7138 11.906V4.71868H96.9525C97.81 4.71868 98.6324 5.05932 99.2387 5.66566C99.8451 6.27201 100.186 7.09438 100.186 7.95188V8.68372C100.186 9.54122 99.8451 10.3636 99.2387 10.9699C98.6324 11.5763 97.81 11.9169 96.9525 11.9169H93.7138V11.906ZM93.7138 0.0545608H89.0443V28.498H93.7138V16.581H94.615C95.4725 16.581 96.2949 16.9217 96.9012 17.528C97.5075 18.1344 97.8482 18.9568 97.8482 19.8143V19.8252V20.5952C97.8482 22.6912 98.6808 24.7013 100.163 26.1834C101.645 27.6654 103.655 28.498 105.751 28.498V23.8285C104.893 23.8285 104.071 23.4878 103.465 22.8815C102.858 22.2751 102.518 21.4527 102.518 20.5952V19.8252C102.52 18.2364 102.04 16.6844 101.141 15.3741C102.256 14.6765 103.178 13.7116 103.825 12.5671C104.471 11.4226 104.822 10.1346 104.844 8.82026V7.72796C104.79 5.67008 103.935 3.71451 102.461 2.27734C100.988 0.840176 99.0111 0.0348502 96.9525 0.0327148H93.7138" fill="black"/>
<path d="M19.1917 0.0327148V20.5952C19.1917 22.3812 18.3342 23.8285 16.7231 23.8285C15.112 23.8285 14.26 22.3812 14.26 20.5952V0.0327148H9.59585V20.5952C9.59585 22.3812 8.73839 23.8285 7.12725 23.8285C5.51611 23.8285 4.66412 22.3812 4.66412 20.5952V0.0327148H0V20.5952C0 24.9644 3.18951 28.498 7.09995 28.498C7.99781 28.4911 8.88519 28.3043 9.70971 27.9488C10.5342 27.5933 11.2792 27.0762 11.9006 26.4281C12.5214 27.0756 13.2655 27.5923 14.089 27.9478C14.9125 28.3032 15.7988 28.4903 16.6958 28.498C20.6335 28.498 23.8285 24.959 23.8285 20.5952V0.0327148H19.1917Z" fill="black"/>
<path d="M48.5472 7.94107C48.5492 9.96607 49.3316 11.9124 50.7318 13.3753L58.9568 18.5255C59.2882 18.9236 59.5191 19.3955 59.63 19.9015C59.7409 20.4075 59.7286 20.9327 59.5941 21.433C59.4596 21.9332 59.207 22.3939 58.8573 22.7761C58.5077 23.1583 58.0713 23.4509 57.585 23.6292C57.0987 23.8076 56.5766 23.8665 56.0628 23.801C55.549 23.7355 55.0584 23.5475 54.6324 23.2528C54.2064 22.9581 53.8574 22.5654 53.6148 22.1076C53.3723 21.6499 53.2433 21.1406 53.2386 20.6227V18.6347H48.5472V20.6227C48.5539 21.9106 48.8754 23.1774 49.4835 24.3128C50.0916 25.4482 50.968 26.4177 52.0364 27.137C53.1049 27.8563 54.3329 28.3036 55.6136 28.4399C56.8944 28.5761 58.1891 28.3973 59.3849 27.919C60.5808 27.4406 61.6416 26.6773 62.475 25.6953C63.3085 24.7133 63.8893 23.5425 64.1669 22.2848C64.4445 21.0271 64.4105 19.7206 64.0679 18.479C63.7253 17.2375 63.0843 16.0985 62.201 15.1612C62.201 15.1612 54.5549 10.7264 54.0087 10.011C53.6766 9.61196 53.4454 9.13882 53.3348 8.63157C53.2241 8.12433 53.2373 7.5979 53.3731 7.09681C53.5089 6.59571 53.7633 6.13469 54.115 5.75272C54.4666 5.37076 54.905 5.07909 55.3932 4.90238C55.8814 4.72567 56.4049 4.66911 56.9196 4.73749C57.4342 4.80588 57.9248 4.99719 58.3499 5.29525C58.775 5.59331 59.122 5.98936 59.3617 6.44989C59.6014 6.91042 59.7267 7.4219 59.7269 7.94107V9.92906H64.3309V7.89192C64.3278 6.85407 64.1202 5.82701 63.7201 4.86938C63.32 3.91174 62.7352 3.0423 61.9991 2.31069C61.2629 1.57908 60.3899 0.999628 59.4298 0.605427C58.4698 0.211226 57.4414 0.00999422 56.4036 0.0132218C55.3657 0.0164494 54.3387 0.224073 53.3811 0.624238C52.4235 1.0244 51.5541 1.60927 50.8225 2.34545C50.0909 3.08162 49.5115 3.95469 49.1174 4.91479C48.7232 5.87489 48.5221 6.90322 48.5254 7.94107" fill="black"/>
<path d="M59.6832 9.92358H64.331V7.89191C64.3198 6.60515 63.9945 5.34059 63.3835 4.2081C62.7725 3.07562 61.8942 2.10947 60.8249 1.39361C59.7555 0.677755 58.5276 0.23384 57.2477 0.100442C55.9679 -0.032956 54.6748 0.148198 53.4808 0.628164C52.2869 1.10813 51.2282 1.87239 50.3968 2.85453C49.5653 3.83667 48.9863 5.00698 48.71 6.26378C48.4337 7.52057 48.4685 8.82582 48.8113 10.0661C49.1542 11.3064 49.7947 12.4442 50.6772 13.3807L58.9022 18.5309C59.2338 18.9292 59.4647 19.4014 59.5755 19.9076C59.6864 20.4139 59.6739 20.9394 59.5392 21.4398C59.4045 21.9402 59.1515 22.4009 58.8014 22.7831C58.4514 23.1652 58.0146 23.4576 57.5279 23.6357C57.0412 23.8137 56.5189 23.8721 56.0049 23.8061C55.4909 23.74 55.0003 23.5513 54.5744 23.2559C54.1486 22.9606 53.8 22.5672 53.558 22.1089C53.3161 21.6506 53.1878 21.1409 53.1841 20.6227V18.6347H48.5472V20.6227C48.554 21.9106 48.8754 23.1774 49.4835 24.3128C50.0916 25.4482 50.9681 26.4177 52.0365 27.137C53.1049 27.8563 54.3329 28.3036 55.6137 28.4398C56.8944 28.5761 58.1891 28.3973 59.3849 27.919C60.5808 27.4406 61.6416 26.6772 62.4751 25.6953C63.3085 24.7133 63.8893 23.5425 64.1669 22.2848C64.4446 21.0271 64.4106 19.7206 64.0679 18.479C63.7253 17.2375 63.0844 16.0985 62.201 15.1612C62.201 15.1612 54.5549 10.7264 54.0087 10.011C53.6766 9.61194 53.4454 9.1388 53.3348 8.63156C53.2241 8.12432 53.2373 7.59789 53.3731 7.09679C53.5089 6.5957 53.7634 6.13467 54.115 5.75271C54.4666 5.37075 54.9051 5.07908 55.3932 4.90236C55.8814 4.72565 56.4049 4.6691 56.9196 4.73748C57.4342 4.80587 57.9249 4.99718 58.3499 5.29524C58.775 5.5933 59.1221 5.98934 59.3618 6.44988C59.6014 6.91041 59.7267 7.42189 59.7269 7.94106L59.6832 9.92358Z" fill="black"/>
<path d="M68.3506 7.91917V20.5953C68.3506 21.6331 68.5551 22.6608 68.9522 23.6196C69.3494 24.5784 69.9315 25.4496 70.6653 26.1834C71.3992 26.9173 72.2704 27.4994 73.2292 27.8965C74.188 28.2937 75.2156 28.4981 76.2534 28.4981C77.2912 28.4981 78.3189 28.2937 79.2777 27.8965C80.2365 27.4994 81.1077 26.9173 81.8415 26.1834C82.5754 25.4496 83.1575 24.5784 83.5547 23.6196C83.9518 22.6608 84.1562 21.6331 84.1562 20.5953V14.2545H76.6576V18.9241H79.4921V20.5953C79.4928 21.4528 79.1528 22.2755 78.547 22.8823C77.9412 23.4891 77.1191 23.8305 76.2616 23.8312C75.4041 23.8319 74.5814 23.4919 73.9746 22.8861C73.3677 22.2802 73.0264 21.4581 73.0257 20.6006V20.5953V7.94102C73.0253 7.51642 73.1086 7.09592 73.2708 6.70352C73.4329 6.31112 73.6708 5.95449 73.9708 5.65402C74.2708 5.35354 74.627 5.11509 75.0191 4.95228C75.4113 4.78948 75.8316 4.7055 76.2562 4.70516C76.6808 4.70481 77.1013 4.78809 77.4937 4.95025C77.8861 5.11241 78.2428 5.35028 78.5432 5.65026C78.8437 5.95025 79.0822 6.30648 79.245 6.69861C79.4078 7.09075 79.4918 7.51112 79.4921 7.93571V7.94102V9.91261H84.1617V7.90278C84.1617 5.80684 83.3291 3.79673 81.847 2.31467C80.3649 0.832612 78.3548 0 76.2589 0C74.1629 0 72.1528 0.832612 70.6708 2.31467C69.1887 3.79673 68.3561 5.80684 68.3561 7.90278" fill="black"/>
<path d="M54.6259 41.7859C55.2321 41.3817 55.8656 40.77 55.8656 39.9945C55.8577 39.614 55.6991 39.2523 55.4247 38.9886C55.1503 38.7249 54.7825 38.5809 54.402 38.5882C54.0215 38.5954 53.6594 38.7533 53.3953 39.0272C53.1311 39.3011 52.9864 39.6686 52.9929 40.0491C53.0164 40.6595 53.2587 41.241 53.6756 41.6876C52.8126 42.2337 52.201 42.7799 52.201 43.8722C52.1795 44.154 52.2194 44.4371 52.3179 44.702C52.4164 44.967 52.5712 45.2074 52.7716 45.4067C52.972 45.6061 53.2132 45.7596 53.4786 45.8567C53.744 45.9539 54.0274 45.9923 54.3091 45.9694C54.6369 45.9771 54.9618 45.9068 55.2571 45.7644C55.5524 45.622 55.8096 45.4114 56.0076 45.1501L56.4609 45.811H57.4276L56.4773 44.4784C56.798 43.8633 56.9753 43.1837 56.9961 42.4904H56.2862C56.2562 42.949 56.1624 43.4012 56.0076 43.8339L54.6259 41.7859ZM54.2818 41.2397C53.9764 40.8692 53.7865 40.4173 53.7356 39.9399C53.726 39.8436 53.7369 39.7463 53.7677 39.6545C53.7985 39.5628 53.8484 39.4786 53.9142 39.4076C53.98 39.3366 54.0602 39.2804 54.1493 39.2428C54.2385 39.2051 54.3347 39.1868 54.4314 39.1892C54.5282 39.1915 54.6233 39.2144 54.7106 39.2563C54.7978 39.2983 54.8752 39.3583 54.9375 39.4324C54.9997 39.5064 55.0456 39.5929 55.0719 39.6861C55.0982 39.7792 55.1044 39.8769 55.0901 39.9726C55.072 40.2332 54.9897 40.4853 54.8506 40.7063C54.7114 40.9274 54.5198 41.1106 54.2927 41.2397H54.2818ZM55.598 44.5166C55.4612 44.7093 55.2836 44.8694 55.0778 44.9855C54.872 45.1016 54.6431 45.1709 54.4074 45.1884C54.2266 45.2024 54.0448 45.178 53.8741 45.1167C53.7034 45.0553 53.5476 44.9585 53.417 44.8326C53.2865 44.7067 53.1841 44.5545 53.1166 44.3861C53.0492 44.2178 53.0181 44.037 53.0256 43.8558C53.0302 43.5188 53.1248 43.1893 53.2995 42.9012C53.4743 42.6131 53.7229 42.377 54.0196 42.2173L55.598 44.5166Z" fill="black"/>
<path d="M123.25 43.5773C123.31 44.3583 123.053 45.2158 122.114 45.2158C120.737 45.2158 120.901 43.4353 120.874 42.485H124.216C124.167 40.8793 124.287 38.7767 122.064 38.7767C120.246 38.7767 119.88 40.9613 119.88 42.3867C119.88 45.1611 120.808 46.0241 122.108 46.0241C123.555 46.0241 124.249 44.899 124.189 43.55L123.25 43.5773ZM120.874 41.7095C120.912 40.8957 120.934 39.6341 122.075 39.6341C123.217 39.6341 123.168 40.9066 123.2 41.7095H120.874ZM114.762 45.1502C114.894 45.422 115.101 45.6504 115.358 45.8082C115.616 45.966 115.913 46.0466 116.215 46.0405C118.067 46.0405 118.4 43.9159 118.4 41.9607C118.4 40.5516 117.892 38.793 116.15 38.793C115.848 38.8045 115.554 38.8993 115.303 39.067C115.051 39.2348 114.851 39.4688 114.724 39.7433V38.9787H113.779V48.1814H114.757L114.762 45.1502ZM117.411 42.3048C117.411 44.1617 117.089 45.2212 116.073 45.2212C114.73 45.2212 114.762 43.3698 114.762 42.414C114.762 41.4583 114.762 39.6341 116.062 39.6341C117.362 39.6341 117.411 41.4036 117.411 42.3048ZM112.316 45.1502C112.176 45.172 112.034 45.172 111.895 45.1502C111.699 45.0465 111.72 44.8007 111.72 44.6041V40.6718C111.72 40.5134 111.895 38.804 109.853 38.804C108.471 38.804 107.766 39.4211 107.815 40.8466H108.689C108.689 40.0383 108.804 39.6341 109.694 39.6341C110.486 39.6341 110.786 39.929 110.786 40.7264C110.786 41.0814 110.786 41.3545 110.601 41.5183C110.481 41.6166 109.093 42.1355 108.536 42.3812C108.226 42.532 107.966 42.7709 107.791 43.0681C107.615 43.3653 107.53 43.7076 107.548 44.0525C107.548 45.3031 107.941 46.0678 109.317 46.0678C109.648 46.0489 109.967 45.9361 110.235 45.7426C110.504 45.5492 110.713 45.283 110.836 44.9755H110.863C110.961 45.9148 111.273 45.9913 112.097 45.9531C112.171 45.9315 112.245 45.915 112.321 45.9039L112.316 45.1502ZM110.71 43.8231C110.748 44.1541 110.653 44.4866 110.446 44.7475C110.239 45.0084 109.936 45.1763 109.605 45.2143C109.577 45.2176 109.548 45.2199 109.519 45.2212C108.727 45.2212 108.558 44.7788 108.558 44.0852C108.533 43.8508 108.577 43.6142 108.684 43.404C108.79 43.1937 108.955 43.0188 109.159 42.9001C109.705 42.6489 110.224 42.4413 110.71 42.1573V43.8231ZM104.326 39.6341C105.254 39.6341 105.451 40.3987 105.462 41.1524H106.384C106.384 39.8799 105.729 38.804 104.342 38.804C102.239 38.804 101.966 40.8302 101.966 42.5123C101.966 44.2982 102.267 46.0514 104.369 46.0514C105.904 46.0514 106.395 44.7898 106.434 43.4681H105.505C105.456 44.3092 105.358 45.2212 104.293 45.2212C103.042 45.2212 102.982 43.6265 102.982 42.7253C102.982 41.8242 102.911 39.6341 104.331 39.6341H104.326ZM94.9918 38.9897H94.0415V45.8657H95.0191V41.2671C94.9935 41.0412 95.0201 40.8125 95.0968 40.5985C95.1735 40.3845 95.2982 40.191 95.4615 40.0328C95.7232 39.7868 96.069 39.6501 96.4282 39.6505C97.2201 39.6505 97.455 40.1311 97.455 40.8466V45.8821H98.4326V40.579C98.4326 39.3665 97.7608 38.8204 96.734 38.8204C96.3931 38.8244 96.0584 38.9123 95.7594 39.0761C95.4603 39.2399 95.2061 39.4746 95.0191 39.7597H94.9918V38.9897ZM90.7155 38.9897H89.7706V45.8657H90.7482V41.6986C90.7482 40.4479 91.491 39.656 92.7526 39.8799V38.9405C92.3285 38.866 91.8917 38.9464 91.5218 39.1669C91.1519 39.3875 90.8735 39.7335 90.7373 40.142L90.7155 38.9897ZM86.9525 43.5773C87.0126 44.3583 86.7559 45.2158 85.8165 45.2158C84.4402 45.2158 84.6041 43.4353 84.5768 42.485H87.9192C87.87 40.8793 87.9902 38.7767 85.7673 38.7767C83.9487 38.7767 83.5827 40.9613 83.5827 42.3867C83.5827 45.1611 84.5058 46.0241 85.8056 46.0241C87.2529 46.0241 87.9465 44.899 87.8864 43.55L86.9525 43.5773ZM84.5768 41.7095C84.615 40.8957 84.6423 39.6341 85.7783 39.6341C86.9143 39.6341 86.8706 40.9066 86.9033 41.7095H84.5768ZM81.3763 37.1218H80.4096V38.9897H79.4593V39.8198H80.4096V44.7352C80.4096 45.7728 80.8411 45.8711 81.4255 45.8602H82.5178V45.0301H81.8624C81.3162 45.0301 81.4036 44.7352 81.4036 44.4839V39.8198H82.5396V38.9897H81.3927L81.3763 37.1218ZM78.307 40.8302C78.307 39.4211 77.5423 38.804 76.1824 38.804C75.9182 38.7829 75.6525 38.8181 75.403 38.9073C75.1534 38.9965 74.9256 39.1376 74.7346 39.3214C74.5436 39.5052 74.3937 39.7274 74.295 39.9733C74.1962 40.2193 74.1508 40.4834 74.1617 40.7483C74.1617 41.9443 74.7843 42.3048 75.8438 42.698C76.5538 42.9984 77.5423 43.0858 77.5423 44.0634C77.5423 44.9045 76.9962 45.2212 76.2316 45.2212C75.314 45.2212 75.0301 44.6751 75.0683 43.8613H74.1617C74.1009 44.3833 74.2372 44.9092 74.544 45.3359C74.7537 45.5798 75.0174 45.7714 75.3142 45.8956C75.6109 46.0198 75.9325 46.0731 76.2534 46.0514C77.6625 46.0514 78.5746 45.2485 78.5746 43.9378C78.5746 42.627 77.586 42.4031 76.5975 41.9552C75.9312 41.6713 75.1994 41.562 75.1994 40.6718C75.1994 39.9563 75.5981 39.6341 76.2917 39.6341C77.1218 39.6341 77.4222 40.0164 77.384 40.8302H78.307ZM71.7914 43.5609C71.8515 44.3419 71.5893 45.1994 70.6499 45.1994C69.2791 45.1994 69.4375 43.4189 69.4156 42.4686H72.7526C72.7035 40.863 72.8291 38.7603 70.6008 38.7603C68.7821 38.7603 68.4162 40.9449 68.4162 42.3703C68.4162 45.1448 69.3446 46.0077 70.6445 46.0077C72.0918 46.0077 72.7799 44.8826 72.7198 43.5336L71.7914 43.5609ZM69.4156 41.6931C69.4539 40.8793 69.4757 39.6177 70.6117 39.6177C71.7477 39.6177 71.704 40.8903 71.7422 41.6931H69.4156ZM63.9978 38.9623H62.982L61.8897 45.0082H61.8624L60.6172 38.9897H59.6013L61.3709 45.8657H62.3812L63.4735 39.8198L64.6368 45.8657H65.6527L67.373 38.9897H66.3572L65.1557 45.0355L63.9978 38.9623ZM45.7291 38.9623H44.7788V45.8384H45.7619V41.2671C45.7337 41.0386 45.759 40.8067 45.8357 40.5896C45.9125 40.3726 46.0387 40.1763 46.2043 40.0164C46.466 39.7704 46.8118 39.6337 47.171 39.6341C47.9629 39.6341 48.1977 40.1147 48.1977 40.8302V45.8657H49.1753V40.579C49.1753 39.3665 48.509 38.8204 47.4823 38.8204C47.1419 38.8218 46.8071 38.9066 46.5071 39.0676C46.2072 39.2285 45.9513 39.4605 45.7619 39.7433L45.7291 38.9623ZM40.0055 38.9623H38.9842L37.8919 45.0082L36.6194 38.9897H35.609L37.3785 45.8657H38.3889L39.4812 39.8198L40.6445 45.8657H41.6603L43.3752 38.9897H42.3867L41.1852 45.0355L40.0055 38.9623ZM33.479 42.5014C33.479 44.1398 33.195 45.2321 32.0317 45.2321C30.8684 45.2321 30.5844 44.1398 30.5844 42.5014C30.5844 40.426 31.0322 39.6341 32.0317 39.6341C33.0312 39.6341 33.479 40.426 33.479 42.5014ZM34.4948 42.2174C34.4948 40.1366 33.7248 38.8258 32.0317 38.8258C30.3386 38.8258 29.574 40.1366 29.574 42.2174C29.574 45.183 30.5462 46.0732 32.0317 46.0732C33.5172 46.0732 34.4948 45.1939 34.4948 42.2174ZM27.2857 37.1437H26.319V39.0115H25.3687V39.8416H26.319V44.757C26.319 45.7947 26.7504 45.893 27.3348 45.8821H28.4271V45.0519H27.739C27.1928 45.0519 27.2802 44.757 27.2802 44.5058V39.8198H28.4162V38.9897H27.2693L27.2857 37.1437ZM21.8242 43.5992C21.8842 44.3802 21.6275 45.2376 20.6827 45.2376C19.3119 45.2376 19.4757 43.4572 19.4484 42.5069H22.7854C22.7362 40.9012 22.8618 38.7985 20.6336 38.7985C18.8203 38.7985 18.449 40.9831 18.449 42.4086C18.449 45.183 19.3774 46.0459 20.6772 46.0459C22.1245 46.0459 22.8182 44.9208 22.7526 43.5719L21.8242 43.5992ZM19.4484 41.7313C19.4866 40.9176 19.5085 39.656 20.6499 39.656C21.7914 39.656 21.7422 40.9285 21.775 41.7313H19.4484ZM13.337 45.1721C13.4725 45.4415 13.6824 45.6665 13.9418 45.8204C14.2012 45.9743 14.4992 46.0507 14.8007 46.0405C16.6576 46.0405 16.9853 43.9159 16.9853 41.9607C16.9853 40.5516 16.4774 38.793 14.7297 38.793C14.4285 38.8055 14.1365 38.9008 13.886 39.0684C13.6355 39.2361 13.436 39.4696 13.3097 39.7433V38.9787H12.3648V48.1814H13.3425L13.337 45.1721ZM15.9858 42.3266C15.9858 44.1835 15.6636 45.2431 14.6478 45.2431C13.2988 45.2431 13.337 43.3916 13.337 42.4359C13.337 41.4801 13.337 39.656 14.6368 39.656C15.9367 39.656 15.9858 41.4255 15.9858 42.3266ZM10.8902 45.1721C10.7509 45.1939 10.609 45.1939 10.4697 45.1721C10.2731 45.0683 10.2949 44.8225 10.2949 44.6259V40.6718C10.2949 40.5134 10.4697 38.804 8.42711 38.804C7.04535 38.804 6.33536 39.4211 6.38451 40.8466H7.26381C7.26381 40.0383 7.3785 39.6341 8.26873 39.6341C9.06065 39.6341 9.36103 39.929 9.36103 40.7264C9.36103 41.0814 9.36103 41.3545 9.17534 41.5183C9.04972 41.6166 7.66796 42.1355 7.11089 42.3812C6.79979 42.5314 6.54 42.7702 6.36413 43.0675C6.18826 43.3648 6.10415 43.7075 6.12236 44.0525C6.12236 45.3031 6.51559 46.0678 7.89188 46.0678C8.22262 46.0489 8.54112 45.9361 8.81004 45.7426C9.07895 45.5492 9.28714 45.283 9.41018 44.9755H9.43749C9.5358 45.9148 9.84164 45.9913 10.6718 45.9531C10.7452 45.9315 10.82 45.915 10.8957 45.9039L10.8902 45.1721ZM9.2791 43.8449C9.31122 44.1765 9.21029 44.5073 8.99852 44.7645C8.78676 45.0217 8.4815 45.1842 8.1499 45.2163C8.12585 45.2186 8.10174 45.2203 8.07757 45.2212C7.28565 45.2212 7.11089 44.7788 7.11089 44.0852C7.08742 43.8503 7.13211 43.6136 7.23962 43.4035C7.34713 43.1933 7.5129 43.0185 7.71711 42.9001C8.23595 42.6489 8.7821 42.4413 9.26271 42.1573L9.2791 43.8449ZM2.90554 39.6341C3.83399 39.6341 4.03061 40.3987 4.04153 41.1524H4.95906C4.95906 39.8799 4.30368 38.804 2.91646 38.804C0.813786 38.804 0.54071 40.8302 0.54071 42.5123C0.54071 44.2982 0.841093 46.0514 2.94377 46.0514C4.47299 46.0514 4.96998 44.7898 5.00821 43.4681H4.07976C4.03061 44.3092 3.9323 45.2212 2.86731 45.2212C1.61663 45.2212 1.55655 43.6265 1.55655 42.7253C1.55655 41.8242 1.48009 39.6341 2.90554 39.6341Z" fill="black"/>
<path d="M123.348 50.5788H122.48V52.25H121.628V52.9873H122.48V57.3565C122.48 58.285 122.873 58.3724 123.392 58.3615H124.358V57.6242H123.768C123.282 57.6242 123.359 57.3565 123.359 57.149V52.96H124.407V52.2227H123.375L123.348 50.5788ZM117.308 52.25H116.456V58.3888H117.308V54.2817C117.285 54.0812 117.31 53.8784 117.379 53.6889C117.448 53.4995 117.56 53.3285 117.706 53.1894C117.938 52.9672 118.248 52.8439 118.569 52.8453C119.285 52.8453 119.492 53.2768 119.492 53.9376V58.4325H120.371V53.6973C120.4 53.4884 120.38 53.2757 120.315 53.0753C120.249 52.8749 120.138 52.6921 119.992 52.5406C119.845 52.3892 119.666 52.273 119.468 52.2009C119.269 52.1288 119.057 52.1027 118.848 52.1244C118.546 52.1229 118.248 52.1946 117.979 52.3335C117.711 52.4724 117.481 52.6743 117.308 52.9218V52.25ZM113.9 56.3462C113.954 57.0398 113.725 57.8153 112.878 57.8153C111.644 57.8153 111.786 56.226 111.786 55.3959H114.784C114.741 53.9595 114.85 52.0807 112.851 52.0807C111.212 52.0807 110.874 54.0141 110.874 55.3085C110.874 57.7825 111.704 58.5526 112.873 58.5526C114.173 58.5526 114.795 57.5477 114.741 56.368L113.9 56.3462ZM111.77 54.6804C111.802 53.9486 111.824 52.8235 112.862 52.8235C113.9 52.8235 113.839 53.9595 113.872 54.6804H111.77ZM103.108 54.2817C103.082 54.0829 103.102 53.8807 103.167 53.6912C103.233 53.5016 103.341 53.3299 103.484 53.1894C103.719 52.9674 104.03 52.8441 104.353 52.8453C105.063 52.8453 105.276 53.2768 105.276 53.9376V58.4325H106.15V54.3254C106.129 54.1245 106.154 53.9215 106.224 53.7321C106.294 53.5427 106.407 53.372 106.554 53.2331C106.775 53.0216 107.067 52.8991 107.373 52.889C108.127 52.889 108.318 53.2768 108.318 53.9813V58.4761H109.197V54.0359C109.266 53.5262 109.131 53.0099 108.82 52.5996C108.508 52.3201 108.103 52.1664 107.684 52.1681C107.349 52.1665 107.019 52.256 106.73 52.4273C106.442 52.5985 106.205 52.845 106.046 53.1403C105.919 52.8551 105.713 52.6122 105.453 52.4399C105.193 52.2677 104.889 52.1734 104.577 52.1681C104.278 52.1741 103.987 52.2566 103.73 52.4077C103.472 52.5588 103.258 52.7734 103.108 53.031V52.25H102.261V58.3888H103.108V54.2817ZM99.787 50.5788H98.9186V52.25H98.0667V52.9873H98.9186V57.3565C98.9186 58.285 99.3064 58.3724 99.8307 58.3615H100.797V57.6242H100.208C99.7215 57.6242 99.798 57.3565 99.798 57.149V52.96H100.819V52.2227H99.787V50.5788ZM96.9197 53.8939C96.9197 52.6378 96.2316 52.0807 95.0082 52.0807C94.7721 52.062 94.5347 52.0936 94.3117 52.1733C94.0887 52.253 93.8851 52.379 93.7143 52.5431C93.5435 52.7072 93.4094 52.9056 93.3208 53.1252C93.2323 53.3449 93.1912 53.5808 93.2005 53.8175C93.2005 54.9098 93.7466 55.2102 94.7078 55.5597C95.3414 55.8273 96.2316 55.9038 96.2316 56.7776C96.2316 57.5258 95.7674 57.8153 95.0519 57.8153C94.2327 57.8153 93.9596 57.3511 94.0088 56.6028H93.1786C93.1257 57.0674 93.2485 57.5349 93.5227 57.9136C93.7104 58.1316 93.9464 58.3029 94.2118 58.4138C94.4773 58.5247 94.7649 58.5722 95.0519 58.5526C96.319 58.5526 97.1437 57.8372 97.1437 56.6684C97.1437 55.4996 96.2534 55.2976 95.3632 54.8989C94.7679 54.6476 94.1125 54.5439 94.1125 53.7519C94.1125 53.113 94.4675 52.8235 95.0901 52.8235C95.8329 52.8235 96.1005 53.1676 96.0677 53.9158L96.9197 53.8939ZM90.9558 56.3462C91.0104 57.0398 90.7756 57.8153 89.9345 57.8153C88.7002 57.8153 88.8422 56.226 88.8422 55.3959H91.846C91.7969 53.9595 91.9116 52.0807 89.9127 52.0807C88.2742 52.0807 87.9356 54.0141 87.9356 55.3085C87.9356 57.7825 88.7657 58.5526 89.9345 58.5526C91.2343 58.5526 91.8569 57.5477 91.7969 56.368L90.9558 56.3462ZM88.8204 54.6804C88.8531 53.9486 88.8804 52.8235 89.9127 52.8235C90.9449 52.8235 90.8903 53.9595 90.923 54.6804H88.8204ZM84.1453 58.3888H85.1011L86.958 52.25H86.0459L84.6478 57.6515L83.2442 52.25H82.3321L84.1453 58.3888ZM77.9847 52.25H77.1273V58.3888H77.9847V54.2817C77.9627 54.0812 77.9872 53.8784 78.0563 53.6889C78.1255 53.4995 78.2374 53.3285 78.3834 53.1894C78.6179 52.9674 78.9289 52.8441 79.2518 52.8453C79.9618 52.8453 80.1748 53.2768 80.1748 53.9376V58.4325H81.0541V53.6973C81.0825 53.4884 81.0631 53.2757 80.9973 53.0753C80.9316 52.8749 80.8211 52.6921 80.6744 52.5406C80.5277 52.3892 80.3484 52.273 80.1503 52.2009C79.9521 52.1288 79.7401 52.1027 79.5303 52.1244C79.2275 52.1229 78.9288 52.1947 78.6597 52.3335C78.3906 52.4723 78.159 52.6742 77.9847 52.9218V52.25ZM75.1994 50.1091H74.3201V51.2014H75.1994V50.1091ZM75.1994 52.25H74.3201V58.3888H75.1994V52.25ZM62.201 56.3462C62.2556 57.0398 62.0208 57.8153 61.1797 57.8153C59.9454 57.8153 60.0874 56.226 60.0874 55.3959H63.0912C63.0421 53.9595 63.1568 52.0807 61.1579 52.0807C59.5194 52.0807 59.1808 54.0141 59.1808 55.3085C59.1808 57.7825 60.0109 58.5526 61.1797 58.5526C62.4795 58.5526 63.1022 57.5477 63.0421 56.368L62.201 56.3462ZM60.0656 54.6804C60.1038 53.9486 60.1256 52.8235 61.1579 52.8235C62.1901 52.8235 62.1355 53.9595 62.1682 54.6804H60.0656ZM56.6248 52.8781C56.4777 52.6321 56.2687 52.4291 56.0185 52.2891C55.7684 52.1492 55.486 52.0774 55.1994 52.0807C53.8777 52.0807 53.2824 53.5062 53.3479 55.3085C53.3479 55.8546 53.2114 58.5526 55.1557 58.5526C55.4776 58.5798 55.7995 58.4998 56.0712 58.3249C56.3428 58.1501 56.549 57.8902 56.6576 57.5859V58.3888H57.5041V50.1091H56.6248V52.8781ZM56.6248 55.9802C56.6248 56.6793 56.3681 57.8153 55.4561 57.8153C54.26 57.8153 54.2108 56.6138 54.2108 55.2866C54.2108 53.397 54.6915 52.8235 55.4233 52.8235C56.603 52.8235 56.6248 54.38 56.6248 55.2211V55.9802ZM52.1573 57.7498C52.0326 57.7716 51.9051 57.7716 51.7805 57.7498C51.6002 57.6624 51.6275 57.4385 51.6275 57.2855V53.7629C51.6275 53.6209 51.7805 52.0917 49.9454 52.0917C48.7056 52.0917 48.0721 52.6378 48.1158 53.9158H48.9023C48.9023 53.2003 49.006 52.8235 49.8034 52.8235C50.5134 52.8235 50.781 53.0856 50.781 53.7847C50.781 54.1069 50.781 54.3309 50.6117 54.4892C50.5025 54.5766 49.2573 55.0354 48.7603 55.2648C48.481 55.3973 48.2473 55.6098 48.0889 55.8752C47.9304 56.1406 47.8542 56.4471 47.87 56.7558C47.87 57.8481 48.225 58.5526 49.4593 58.5526C49.7584 58.5359 50.0464 58.4332 50.2886 58.2569C50.5307 58.0806 50.7169 57.8381 50.8247 57.5586C50.9176 58.3997 51.1906 58.4652 51.917 58.4325C51.9813 58.4127 52.047 58.3981 52.1136 58.3888L52.1573 57.7498ZM50.6772 56.5646C50.6938 56.7114 50.6812 56.8601 50.6403 57.002C50.5994 57.144 50.5309 57.2765 50.4388 57.392C50.3467 57.5076 50.2327 57.6038 50.1034 57.6752C49.9741 57.7467 49.832 57.792 49.6852 57.8085C49.6519 57.8123 49.6185 57.8145 49.5849 57.8153C48.8695 57.8153 48.7166 57.4166 48.7166 56.7995C48.6952 56.5889 48.7354 56.3767 48.8324 56.1886C48.9293 56.0005 49.0788 55.8447 49.2627 55.7399C49.7269 55.516 50.2185 55.3303 50.6499 55.0736L50.6772 56.5646ZM45.2158 52.25H44.3692V58.3888H45.2485V54.6695C45.2485 53.5772 45.9148 52.8453 47.0508 53.031V52.1736C46.6682 52.1118 46.2761 52.1876 45.9441 52.3876C45.6122 52.5876 45.3618 52.8988 45.2376 53.2659L45.2158 52.25ZM41.8733 50.5788H40.9995V52.25H40.1475V52.9873H40.9995V57.3565C40.9995 58.285 41.3872 58.3724 41.9115 58.3615H42.8782V57.6242H42.2884C41.8023 57.6242 41.8788 57.3565 41.8788 57.149V52.96H42.9001V52.2227H41.8679L41.8733 50.5788ZM37.7062 58.3888C37.7376 58.7379 37.634 59.0858 37.4167 59.3609C37.3493 59.4354 37.259 59.4853 37.16 59.5029V59.9999C37.3167 59.9516 37.4643 59.8778 37.597 59.7814C37.77 59.6394 37.9072 59.4585 37.9973 59.2536C38.0875 59.0486 38.128 58.8253 38.1158 58.6018C38.1595 58.1812 38.1486 57.4712 38.1486 57.2965H37.1546V58.3888H37.7062ZM29.017 54.2817C28.9907 54.0824 29.0116 53.8798 29.078 53.69C29.1444 53.5003 29.2544 53.3288 29.3993 53.1894C29.6311 52.9667 29.9407 52.8433 30.2622 52.8453C30.9722 52.8453 31.1852 53.2768 31.1852 53.9376V58.4325H32.0645V54.3254C32.0424 54.1249 32.0669 53.9221 32.1361 53.7326C32.2052 53.5432 32.3171 53.3722 32.4632 53.2331C32.686 53.0237 32.9768 52.9016 33.2824 52.889C34.0415 52.889 34.2272 53.2768 34.2272 53.9813V58.4761H35.1065V54.0359C35.1753 53.5262 35.0398 53.0099 34.7297 52.5996C34.418 52.3192 34.0129 52.1654 33.5937 52.1681C33.2582 52.1671 32.9288 52.2569 32.6403 52.4281C32.3518 52.5992 32.1151 52.8453 31.9552 53.1403C31.8406 52.8363 31.6381 52.5732 31.3736 52.3846C31.1091 52.1959 30.7945 52.0902 30.4697 52.0807C30.1628 52.0955 29.8652 52.1912 29.6072 52.3581C29.3492 52.525 29.1399 52.7571 29.0006 53.031V52.25H28.1377V58.3888H29.0115L29.017 54.2817ZM26.2534 53.8939C26.2534 52.6378 25.5653 52.0807 24.3419 52.0807C24.1058 52.062 23.8684 52.0936 23.6454 52.1733C23.4224 52.253 23.2187 52.379 23.048 52.5431C22.8772 52.7072 22.7431 52.9056 22.6545 53.1252C22.5659 53.3449 22.5249 53.5808 22.5342 53.8175C22.5342 54.9098 23.0803 55.2102 24.0415 55.5597C24.6751 55.8273 25.5653 55.9038 25.5653 56.7776C25.5653 57.5258 25.0956 57.8153 24.3856 57.8153C23.5664 57.8153 23.2933 57.3511 23.3425 56.6028H22.5068C22.4675 56.8613 22.4882 57.1253 22.5673 57.3744C22.6463 57.6236 22.7816 57.8512 22.9627 58.0397C23.1438 58.2282 23.3658 58.3724 23.6116 58.4614C23.8574 58.5503 24.1204 58.5815 24.3801 58.5526C25.6472 58.5526 26.4719 57.8372 26.4719 56.6684C26.4719 55.4996 25.5817 55.2976 24.6914 54.8989C24.0907 54.6476 23.4353 54.5439 23.4353 53.7519C23.4353 53.113 23.7903 52.8235 24.4129 52.8235C25.1611 52.8235 25.4233 53.1676 25.3905 53.9158L26.2534 53.8939ZM20.9121 50.1091H20.0273V51.2014H20.9066L20.9121 50.1091ZM20.9121 52.25H20.0273V58.3888H20.9066L20.9121 52.25ZM16.9416 52.25H16.0951V58.3888H16.9744V54.6695C16.9744 53.5772 17.6407 52.8453 18.7712 53.031V52.1736C18.3887 52.1063 17.9948 52.1798 17.6624 52.3807C17.33 52.5815 17.0817 52.896 16.9634 53.2659H16.9361L16.9416 52.25ZM13.1458 58.3888H14.0251V52.25H13.1404V56.1932C13.1585 56.5742 13.0695 56.9525 12.8837 57.2855C12.7666 57.4564 12.6092 57.5957 12.4252 57.691C12.2413 57.7863 12.0367 57.8346 11.8296 57.8317C11.207 57.8317 11.0377 57.5532 11.0377 57.0343V52.2664H10.1639V56.9633C10.1639 58.0556 10.71 58.5308 11.6494 58.5308C11.9608 58.5259 12.2645 58.4324 12.5247 58.2612C12.7849 58.09 12.9909 57.8482 13.1185 57.5641L13.1458 58.3888ZM7.50412 55.3849C7.50412 56.8322 7.24743 57.8153 6.20428 57.8153C5.16113 57.8153 4.90444 56.8322 4.90444 55.3849C4.90444 53.528 5.30313 52.8235 6.20428 52.8235C7.10543 52.8235 7.50412 53.528 7.50412 55.3849ZM8.41073 55.1119C8.41073 53.255 7.72258 52.0807 6.22613 52.0807C4.72968 52.0807 4.01422 53.255 4.01422 55.1119C4.01422 57.7607 4.88806 58.5526 6.22613 58.5526C7.56419 58.5526 8.41073 57.7716 8.41073 55.1119ZM1.82416 50.5788H0.977629V52.25H0.0983276V52.9873H0.977629V57.3565C0.977629 58.285 1.37086 58.3724 1.8897 58.3615H2.85638V57.6242H2.23923C1.75316 57.6242 1.82962 57.3565 1.82962 57.149V52.96H2.85092V52.2227H1.8187L1.82416 50.5788Z" fill="black"/>
<path d="M68.4271 54.6368C68.7339 54.4741 68.9975 54.2406 69.196 53.9556C69.3945 53.6707 69.5222 53.3425 69.5686 52.9983C69.5615 52.6468 69.4151 52.3123 69.1617 52.0685C68.9083 51.8247 68.5685 51.6915 68.2169 51.698C67.8653 51.7045 67.5306 51.8503 67.2864 52.1033C67.0422 52.3563 66.9083 52.6959 66.9143 53.0475C66.9431 53.6004 67.1676 54.1251 67.5478 54.5276C66.7504 55.03 66.1824 55.527 66.1824 56.5319C66.1642 56.7914 66.2023 57.0518 66.2942 57.2952C66.3861 57.5386 66.5296 57.7592 66.7149 57.9419C66.9001 58.1245 67.1227 58.2649 67.3674 58.3534C67.612 58.4418 67.8729 58.4763 68.1322 58.4544C68.4344 58.4612 68.7339 58.3965 69.0063 58.2655C69.2787 58.1345 69.5163 57.941 69.6996 57.7007L70.1202 58.3124H71.0159L70.1366 57.089C70.4284 56.5215 70.5925 55.897 70.6172 55.2594H69.9563C69.9283 55.6807 69.8419 56.0961 69.6996 56.4937L68.4271 54.6368ZM68.1049 54.1562C67.8204 53.8185 67.6418 53.4043 67.5915 52.9656C67.5843 52.8813 67.5937 52.7963 67.6193 52.7157C67.6449 52.635 67.6861 52.5601 67.7406 52.4954C67.7951 52.4307 67.8618 52.3773 67.937 52.3383C68.0121 52.2994 68.0942 52.2756 68.1785 52.2684C68.1885 52.2675 68.1986 52.2669 68.2086 52.2665C68.381 52.2696 68.545 52.3411 68.6647 52.4652C68.7843 52.5893 68.8497 52.7558 68.8466 52.9282C68.8462 52.9498 68.8447 52.9714 68.8422 52.9929C68.8251 53.2326 68.7488 53.4644 68.6201 53.6675C68.4915 53.8705 68.3144 54.0384 68.1049 54.1562L68.1049 54.1562ZM69.3119 57.1709C69.1861 57.3475 69.0231 57.4943 68.8343 57.601C68.6456 57.7076 68.4357 57.7715 68.2196 57.7881C68.051 57.8001 67.8819 57.7759 67.7234 57.7172C67.565 57.6585 67.4209 57.5665 67.3009 57.4476C67.181 57.3286 67.0878 57.1854 67.0277 57.0274C66.9676 56.8695 66.942 56.7006 66.9525 56.5319C66.9591 56.2214 67.048 55.9183 67.2101 55.6534C67.3723 55.3886 67.6019 55.1715 67.8755 55.0246L69.3119 57.1709Z" fill="black"/>
<path d="M23.8558 20.5952V0.0327148H19.1862V20.5952C19.1862 22.3812 18.3288 23.8285 16.7176 23.8285C15.1065 23.8285 14.2545 22.3812 14.2545 20.5952V0.0327148H9.59585V20.5952C9.59585 22.3812 8.73839 23.8285 7.12725 23.8285C5.51611 23.8285 4.66412 22.3812 4.66412 20.5952V0.0327148H0V20.5952C0 24.9644 3.18951 28.498 7.09995 28.498C7.99781 28.4911 8.88519 28.3043 9.70971 27.9488C10.5342 27.5933 11.2792 27.0762 11.9006 26.4281C12.5214 27.0756 13.2655 27.5923 14.089 27.9478C14.9125 28.3032 15.7988 28.4903 16.6958 28.498C20.639 28.498 23.8285 24.959 23.8285 20.5952" fill="black"/>
<path d="M84.1562 20.5953V14.2545H76.6576V18.9241H79.4921V20.5953C79.4928 21.4528 79.1528 22.2755 78.547 22.8823C77.9411 23.4891 77.119 23.8305 76.2615 23.8312C75.404 23.8319 74.5814 23.4919 73.9745 22.8861C73.3677 22.2802 73.0264 21.4581 73.0257 20.6006V20.5953V7.94102C73.0253 7.51642 73.1086 7.09592 73.2708 6.70352C73.4329 6.31112 73.6708 5.95449 73.9708 5.65402C74.2707 5.35354 74.627 5.11509 75.0191 4.95228C75.4113 4.78948 75.8316 4.7055 76.2562 4.70516C76.6808 4.70481 77.1013 4.78809 77.4937 4.95025C77.8861 5.11241 78.2427 5.35028 78.5432 5.65026C78.8437 5.95025 79.0821 6.30648 79.2449 6.69861C79.4077 7.09075 79.4917 7.51112 79.4921 7.93571V7.94102V9.91261H84.1617V7.90278C84.1617 5.80684 83.329 3.79673 81.847 2.31467C80.3649 0.832612 78.3548 0 76.2589 0C74.1629 0 72.1528 0.832612 70.6707 2.31467C69.1887 3.79673 68.3561 5.80684 68.3561 7.90278V20.5953C68.3561 22.6912 69.1887 24.7014 70.6707 26.1834C72.1528 27.6655 74.1629 28.4981 76.2589 28.4981C78.3548 28.4981 80.3649 27.6655 81.847 26.1834C83.329 24.7014 84.1617 22.6912 84.1617 20.5953" fill="black"/>
<path d="M100.186 7.94103V8.68379C100.186 9.54129 99.845 10.3637 99.2387 10.97C98.6323 11.5764 97.81 11.917 96.9525 11.917H93.7138V4.71874H96.9525C97.81 4.71874 98.6323 5.05938 99.2387 5.66573C99.845 6.27207 100.186 7.09445 100.186 7.95195V7.94103ZM102.523 20.6062V19.8362C102.525 18.2474 102.045 16.6954 101.147 15.385C102.261 14.6875 103.183 13.7226 103.83 12.5781C104.477 11.4336 104.827 10.1456 104.85 8.83125V7.73895C104.796 5.68107 103.941 3.7255 102.467 2.28833C100.993 0.851163 99.0165 0.0458365 96.9579 0.0437012H89.0497V28.4981H93.7193V16.5811H94.6204C95.045 16.5818 95.4653 16.6662 95.8573 16.8293C96.2493 16.9925 96.6053 17.2312 96.905 17.532C97.2048 17.8327 97.4423 18.1895 97.6041 18.5821C97.766 18.9746 97.8489 19.3952 97.8482 19.8198V19.8252V20.5953C97.8482 22.6913 98.6808 24.7014 100.163 26.1834C101.645 27.6655 103.655 28.4981 105.751 28.4981V23.8285C104.893 23.8285 104.071 23.4879 103.465 22.8815C102.858 22.2752 102.518 21.4528 102.518 20.5953" fill="black"/>
<path d="M120.339 7.94108V20.5954C120.339 21.4529 119.999 22.2755 119.394 22.8824C118.788 23.4892 117.966 23.8305 117.108 23.8312C116.251 23.8319 115.428 23.492 114.821 22.8861C114.214 22.2803 113.873 21.4582 113.872 20.6007V20.5954V7.94108C113.872 7.08358 114.211 6.26092 114.817 5.65408C115.423 5.04724 116.245 4.70592 117.103 4.70522C117.96 4.70451 118.783 5.04448 119.39 5.65033C119.997 6.25617 120.338 7.07827 120.339 7.93577V7.94108ZM125.008 20.5954V7.91377C125.008 5.81782 124.176 3.80772 122.694 2.32566C121.211 0.843599 119.201 0.0109863 117.105 0.0109863C115.009 0.0109863 112.999 0.843599 111.517 2.32566C110.035 3.80772 109.203 5.81782 109.203 7.91377V20.5954C109.257 22.6561 110.113 24.6142 111.59 26.0525C113.067 27.4909 115.047 28.2958 117.108 28.2958C119.17 28.2958 121.15 27.4909 122.626 26.0525C124.103 24.6142 124.96 22.6561 125.014 20.5954" fill="black"/>
</g>
<defs>
<clipPath id="clip0_309_12437">
<rect width="125.014" height="60" fill="white"/>
</clipPath>
</defs>
</svg>
